<?xml version="1.0" standalone="no"?>
<!DOCTYPE svg PUBLIC "-//W3C//DTD SVG 20010904//EN"
 "http://www.w3.org/TR/2001/REC-SVG-20010904/DTD/svg10.dtd">
<svg version="1.0" xmlns="http://www.w3.org/2000/svg"
 width="700.000000pt" height="700.000000pt" viewBox="0 0 700.000000 700.000000"
 preserveAspectRatio="xMidYMid meet">
<metadata>
Created by potrace 1.11, written by Peter Selinger 2001-2013
</metadata>
<g transform="translate(0.000000,700.000000) scale(0.100000,-0.100000)"
fill="#000000" stroke="none">
<path d="M876 6413 c-2 -2 0 -25 4 -51 5 -26 11 -76 14 -112 4 -36 8 -78 10
-95 2 -16 7 -61 11 -100 4 -38 8 -77 10 -85 1 -8 6 -50 10 -93 3 -43 8 -88 10
-100 2 -12 7 -49 10 -82 3 -33 8 -73 10 -90 4 -28 8 -74 20 -190 3 -27 7 -68
10 -90 11 -90 15 -125 25 -225 6 -58 13 -123 16 -145 8 -70 13 -108 20 -175 3
-36 8 -74 10 -84 2 -11 6 -49 9 -85 2 -36 7 -75 9 -86 2 -11 7 -56 10 -100 4
-44 9 -87 11 -95 2 -8 6 -46 10 -85 3 -38 8 -81 10 -95 2 -14 6 -52 10 -85 3
-33 8 -78 10 -100 6 -44 13 -115 20 -185 4 -40 7 -72 21 -175 2 -16 6 -57 9
-90 3 -33 8 -73 10 -90 4 -29 10 -86 20 -190 3 -27 7 -70 10 -95 11 -87 14
-116 30 -255 8 -77 18 -165 21 -195 3 -30 7 -71 9 -90 6 -46 14 -124 20 -180
3 -25 7 -61 10 -80 2 -19 7 -62 10 -95 4 -33 8 -73 10 -90 2 -16 7 -57 10 -90
3 -33 8 -73 10 -90 2 -16 7 -57 10 -90 3 -33 10 -98 16 -145 5 -47 12 -107 15
-135 2 -27 7 -66 9 -85 4 -37 11 -100 20 -190 4 -30 8 -66 10 -80 2 -14 7 -54
10 -90 9 -102 24 -159 66 -246 42 -90 98 -158 176 -216 60 -44 182 -96 252
-107 56 -9 3086 -7 3120 2 142 37 213 78 308 174 97 98 156 233 168 389 3 38
7 80 10 94 2 14 7 54 10 90 3 36 7 76 10 90 2 14 7 54 11 90 3 36 7 72 9 81 2
8 6 53 10 100 4 46 8 86 10 89 2 3 6 40 10 83 3 43 8 87 10 98 2 11 7 50 10
87 3 37 8 81 10 97 2 17 6 59 10 95 4 36 8 76 10 89 3 14 7 52 10 85 3 34 8
78 11 99 11 94 13 116 19 172 3 33 8 74 10 90 3 17 7 55 10 85 2 30 8 93 14
140 12 96 23 193 26 230 8 85 16 158 20 180 2 14 7 54 10 90 7 73 8 81 30 275
15 138 21 197 31 285 3 25 7 61 9 80 3 19 7 60 10 90 3 30 8 71 10 90 3 19 7
60 10 90 3 30 7 71 10 90 2 19 7 62 10 95 3 33 8 76 10 95 2 19 7 62 11 95 3
33 8 74 10 90 2 17 6 55 9 85 3 30 7 69 10 85 2 17 7 55 10 85 3 30 8 71 10
90 4 34 15 140 20 190 1 14 5 48 9 75 3 28 8 75 11 105 5 53 12 109 20 176 3
17 7 57 10 90 3 32 7 77 10 99 2 22 7 67 10 100 4 33 8 71 10 85 2 14 7 57 11
95 3 39 10 93 13 121 l7 50 -2623 0 c-1443 0 -2625 -1 -2627 -3z m4588 -614
c-1 -42 -13 -176 -18 -209 -3 -14 -7 -54 -11 -90 -3 -36 -7 -78 -9 -95 -2 -16
-7 -64 -11 -105 -4 -41 -9 -82 -10 -91 -2 -9 -6 -52 -10 -95 -4 -43 -9 -81
-10 -84 -2 -3 -6 -43 -10 -90 -4 -47 -8 -92 -10 -100 -2 -8 -6 -49 -10 -90 -4
-41 -11 -77 -15 -80 -10 -6 -3678 -5 -3684 1 -3 3 -10 58 -22 179 -1 19 -5 53
-8 75 -3 22 -8 67 -11 100 -3 33 -8 74 -10 91 -2 16 -7 59 -10 95 -4 35 -8 71
-10 79 -2 8 -7 51 -11 95 -3 44 -8 88 -9 97 -2 9 -7 48 -10 85 -4 37 -9 82
-11 98 -2 17 -6 57 -10 90 -4 33 -8 63 -10 67 -2 3 3 8 13 10 9 2 897 3 1972
2 l1956 -1 -1 -34z m-1872 -2001 c72 -88 158 -200 268 -348 222 -300 453 -738
485 -921 3 -18 8 -36 10 -39 16 -26 22 -190 11 -275 -49 -370 -346 -680 -711
-743 -50 -9 -256 -9 -311 0 -53 8 -183 52 -237 80 -252 127 -431 377 -472 658
-8 52 -8 194 0 230 3 14 7 36 10 50 3 14 7 36 10 49 19 95 174 438 253 561 16
25 59 92 97 150 37 58 90 137 118 175 96 131 161 220 167 225 3 3 21 25 40 50
67 87 163 200 171 200 4 0 45 -46 91 -102z"/>
</g>
</svg>
