solid Pump
facet normal 1.0 3.928401818334005e-15 -5.115912110022962e-15
  outer loop
    vertex 164.52703575388276 -871.218417199497 1.2000000000001232
    vertex 164.52703575388279 -877.068417199497 4.422500925240809
    vertex 164.5270357538828 -879.0184171994969 1.200000000000119
  endloop
endfacet
facet normal 1.0 3.928401818334005e-15 -5.115912110022962e-15
  outer loop
    vertex 164.52703575388279 -877.8761336461246 5.0422835533725845
    vertex 164.5270357538828 -879.0184171994969 1.200000000000119
    vertex 164.52703575388279 -877.068417199497 4.422500925240809
  endloop
endfacet
facet normal 1.0 3.928401818334005e-15 -5.115912110022962e-15
  outer loop
    vertex 164.5270357538828 -878.4959162742563 5.850000000000119
    vertex 164.5270357538828 -879.0184171994969 1.200000000000119
    vertex 164.52703575388279 -877.8761336461246 5.0422835533725845
  endloop
endfacet
facet normal 1.0 3.928401818334005e-15 -5.115912110022962e-15
  outer loop
    vertex 164.5270357538828 -879.0184171994969 6.7906057241002875
    vertex 164.5270357538828 -879.0184171994969 1.200000000000119
    vertex 164.5270357538828 -878.4959162742563 5.850000000000119
  endloop
endfacet
facet normal 1.0 3.928401818334005e-15 -5.115912110022962e-15
  outer loop
    vertex 164.5270357538828 -878.8855279220244 6.7906057241002875
    vertex 164.5270357538828 -879.0184171994969 6.7906057241002875
    vertex 164.5270357538828 -878.4959162742563 5.850000000000119
  endloop
endfacet
facet normal 1.0 3.928401818334005e-15 -5.115912110022962e-15
  outer loop
    vertex 164.52703575388276 -876.1278114753969 4.032889277472753
    vertex 164.52703575388279 -877.068417199497 4.422500925240809
    vertex 164.52703575388276 -871.218417199497 1.2000000000001232
  endloop
endfacet
facet normal 1.0 3.928401818334005e-15 -5.115912110022962e-15
  outer loop
    vertex 164.52703575388279 -875.1184171994969 3.900000000000122
    vertex 164.52703575388276 -876.1278114753969 4.032889277472753
    vertex 164.52703575388276 -871.218417199497 1.2000000000001232
  endloop
endfacet
facet normal 1.0 3.928401818334005e-15 -5.115912110022962e-15
  outer loop
    vertex 164.52703575388279 -874.1090229235971 4.032889277472758
    vertex 164.52703575388279 -875.1184171994969 3.900000000000122
    vertex 164.52703575388276 -871.218417199497 1.2000000000001232
  endloop
endfacet
facet normal 1.0 3.928401818334005e-15 -5.115912110022962e-15
  outer loop
    vertex 164.52703575388279 -873.168417199497 4.422500925240813
    vertex 164.52703575388279 -874.1090229235971 4.032889277472758
    vertex 164.52703575388276 -871.218417199497 1.2000000000001232
  endloop
endfacet
facet normal 1.0 3.928401818334005e-15 -5.115912110022962e-15
  outer loop
    vertex 164.52703575388279 -872.3607007528694 5.042283553372589
    vertex 164.52703575388279 -873.168417199497 4.422500925240813
    vertex 164.52703575388276 -871.218417199497 1.2000000000001232
  endloop
endfacet
facet normal 1.0 3.928401818334005e-15 -5.115912110022962e-15
  outer loop
    vertex 164.52703575388279 -871.7409181247377 5.850000000000126
    vertex 164.52703575388279 -872.3607007528694 5.042283553372589
    vertex 164.52703575388276 -871.218417199497 1.2000000000001232
  endloop
endfacet
facet normal 1.0 3.928401818334005e-15 -5.115912110022962e-15
  outer loop
    vertex 164.52703575388279 -871.3513064769696 6.790605724100295
    vertex 164.52703575388279 -871.7409181247377 5.850000000000126
    vertex 164.52703575388276 -871.218417199497 1.2000000000001232
  endloop
endfacet
facet normal 1.0 3.928401818334005e-15 -5.115912110022962e-15
  outer loop
    vertex 164.52703575388279 -871.218417199497 6.790605724100295
    vertex 164.52703575388279 -871.3513064769696 6.790605724100295
    vertex 164.52703575388276 -871.218417199497 1.2000000000001232
  endloop
endfacet
facet normal -1.0 -7.856803636668014e-15 1.0231824220045922e-14
  outer loop
    vertex 149.52703575388287 -879.0184171994971 6.790605724100441
    vertex 149.52703575388284 -878.4959162742565 5.850000000000272
    vertex 149.5270357538828 -879.0184171994971 1.2000000000002728
  endloop
endfacet
facet normal -1.0 -7.856803636668014e-15 1.0231824220045922e-14
  outer loop
    vertex 149.52703575388284 -877.8761336461246 5.042283553372738
    vertex 149.5270357538828 -879.0184171994971 1.2000000000002728
    vertex 149.52703575388284 -878.4959162742565 5.850000000000272
  endloop
endfacet
facet normal -1.0 -7.856803636668014e-15 1.0231824220045922e-14
  outer loop
    vertex 149.52703575388284 -877.068417199497 4.4225009252409615
    vertex 149.5270357538828 -879.0184171994971 1.2000000000002728
    vertex 149.52703575388284 -877.8761336461246 5.042283553372738
  endloop
endfacet
facet normal -1.0 -7.856803636668014e-15 1.0231824220045922e-14
  outer loop
    vertex 149.52703575388273 -871.218417199497 1.200000000000277
    vertex 149.5270357538828 -879.0184171994971 1.2000000000002728
    vertex 149.52703575388284 -877.068417199497 4.4225009252409615
  endloop
endfacet
facet normal -1.0 -7.856803636668014e-15 1.0231824220045922e-14
  outer loop
    vertex 149.52703575388284 -878.8855279220244 6.790605724100441
    vertex 149.52703575388284 -878.4959162742565 5.850000000000272
    vertex 149.52703575388287 -879.0184171994971 6.790605724100441
  endloop
endfacet
facet normal -1.0 -7.856803636668014e-15 1.0231824220045922e-14
  outer loop
    vertex 149.5270357538828 -876.1278114753969 4.032889277472907
    vertex 149.52703575388273 -871.218417199497 1.200000000000277
    vertex 149.52703575388284 -877.068417199497 4.4225009252409615
  endloop
endfacet
facet normal -1.0 -7.856803636668014e-15 1.0231824220045922e-14
  outer loop
    vertex 149.5270357538828 -875.1184171994971 3.9000000000002757
    vertex 149.52703575388273 -871.218417199497 1.200000000000277
    vertex 149.5270357538828 -876.1278114753969 4.032889277472907
  endloop
endfacet
facet normal -1.0 -7.856803636668014e-15 1.0231824220045922e-14
  outer loop
    vertex 149.5270357538828 -874.1090229235973 4.03288927747291
    vertex 149.52703575388273 -871.218417199497 1.200000000000277
    vertex 149.5270357538828 -875.1184171994971 3.9000000000002757
  endloop
endfacet
facet normal -1.0 -7.856803636668014e-15 1.0231824220045922e-14
  outer loop
    vertex 149.52703575388279 -873.168417199497 4.422500925240967
    vertex 149.52703575388273 -871.218417199497 1.200000000000277
    vertex 149.5270357538828 -874.1090229235973 4.03288927747291
  endloop
endfacet
facet normal -1.0 -7.856803636668014e-15 1.0231824220045922e-14
  outer loop
    vertex 149.52703575388279 -872.3607007528695 5.042283553372742
    vertex 149.52703575388273 -871.218417199497 1.200000000000277
    vertex 149.52703575388279 -873.168417199497 4.422500925240967
  endloop
endfacet
facet normal -1.0 -7.856803636668014e-15 1.0231824220045922e-14
  outer loop
    vertex 149.5270357538828 -871.7409181247377 5.850000000000279
    vertex 149.52703575388273 -871.218417199497 1.200000000000277
    vertex 149.52703575388279 -872.3607007528695 5.042283553372742
  endloop
endfacet
facet normal -1.0 -7.856803636668014e-15 1.0231824220045922e-14
  outer loop
    vertex 149.5270357538828 -871.3513064769699 6.790605724100448
    vertex 149.52703575388273 -871.218417199497 1.200000000000277
    vertex 149.5270357538828 -871.7409181247377 5.850000000000279
  endloop
endfacet
facet normal -1.0 -7.856803636668014e-15 1.0231824220045922e-14
  outer loop
    vertex 149.5270357538828 -871.218417199497 6.790605724100448
    vertex 149.52703575388273 -871.218417199497 1.200000000000277
    vertex 149.5270357538828 -871.3513064769699 6.790605724100448
  endloop
endfacet
facet normal -1.0231824220045925e-14 4.996003610813204e-16 -1.0
  outer loop
    vertex 152.72703575388286 -884.0184171994971 1.2000000000002375
    vertex 152.7270357538828 -879.0184171994971 1.2000000000002402
    vertex 157.32703575388283 -884.0184171994971 1.200000000000191
  endloop
endfacet
facet normal -1.0231824220045925e-14 4.996003610813204e-16 -1.0
  outer loop
    vertex 149.5270357538828 -879.0184171994971 1.2000000000002728
    vertex 149.52703575388273 -871.218417199497 1.200000000000277
    vertex 152.7270357538828 -879.0184171994971 1.2000000000002402
  endloop
endfacet
facet normal -1.0231824220045925e-14 4.996003610813204e-16 -1.0
  outer loop
    vertex 164.52703575388276 -871.218417199497 1.2000000000001232
    vertex 152.7270357538828 -879.0184171994971 1.2000000000002402
    vertex 149.52703575388273 -871.218417199497 1.200000000000277
  endloop
endfacet
facet normal -1.0231824220045925e-14 4.996003610813204e-16 -1.0
  outer loop
    vertex 157.32703575388283 -879.0184171994971 1.2000000000001925
    vertex 152.7270357538828 -879.0184171994971 1.2000000000002402
    vertex 164.52703575388276 -871.218417199497 1.2000000000001232
  endloop
endfacet
facet normal -1.0231824220045925e-14 4.996003610813204e-16 -1.0
  outer loop
    vertex 157.32703575388283 -884.0184171994971 1.200000000000191
    vertex 152.7270357538828 -879.0184171994971 1.2000000000002402
    vertex 157.32703575388283 -879.0184171994971 1.2000000000001925
  endloop
endfacet
facet normal -1.0231824220045925e-14 4.996003610813204e-16 -1.0
  outer loop
    vertex 164.5270357538828 -879.0184171994969 1.200000000000119
    vertex 157.32703575388283 -879.0184171994971 1.2000000000001925
    vertex 164.52703575388276 -871.218417199497 1.2000000000001232
  endloop
endfacet
facet normal -7.85680363666801e-15 1.0 4.996003610814008e-16
  outer loop
    vertex 149.5270357538828 -871.218417199497 6.790605724100448
    vertex 164.52703575388279 -871.218417199497 6.790605724100295
    vertex 149.52703575388273 -871.218417199497 1.200000000000277
  endloop
endfacet
facet normal -7.85680363666801e-15 1.0 4.996003610814008e-16
  outer loop
    vertex 164.52703575388276 -871.218417199497 1.2000000000001232
    vertex 149.52703575388273 -871.218417199497 1.200000000000277
    vertex 164.52703575388279 -871.218417199497 6.790605724100295
  endloop
endfacet
facet normal 1.1174289682761182e-14 -0.923879532511291 0.38268343236507973
  outer loop
    vertex 164.52703575388279 -871.3513064769696 6.790605724100295
    vertex 149.5270357538828 -871.3513064769699 6.790605724100448
    vertex 164.52703575388279 -871.7409181247377 5.850000000000126
  endloop
endfacet
facet normal 1.1174289682761182e-14 -0.923879532511291 0.38268343236507973
  outer loop
    vertex 149.5270357538828 -871.7409181247377 5.850000000000279
    vertex 164.52703575388279 -871.7409181247377 5.850000000000126
    vertex 149.5270357538828 -871.3513064769699 6.790605724100448
  endloop
endfacet
facet normal 1.2459641560252323e-14 -0.38268343236508967 0.9238795325112868
  outer loop
    vertex 149.52703575388279 -873.168417199497 4.422500925240967
    vertex 149.5270357538828 -874.1090229235973 4.03288927747291
    vertex 164.52703575388279 -873.168417199497 4.422500925240813
  endloop
endfacet
facet normal 1.2459641560252323e-14 -0.38268343236508967 0.9238795325112868
  outer loop
    vertex 164.52703575388279 -874.1090229235971 4.032889277472758
    vertex 164.52703575388279 -873.168417199497 4.422500925240813
    vertex 149.5270357538828 -874.1090229235973 4.03288927747291
  endloop
endfacet
facet normal 3.334532912947146e-15 0.6087614290087279 0.7933533402912296
  outer loop
    vertex 149.52703575388284 -877.068417199497 4.4225009252409615
    vertex 149.52703575388284 -877.8761336461246 5.042283553372738
    vertex 164.52703575388279 -877.068417199497 4.422500925240809
  endloop
endfacet
facet normal 3.334532912947146e-15 0.6087614290087279 0.7933533402912296
  outer loop
    vertex 164.52703575388279 -877.8761336461246 5.0422835533725845
    vertex 164.52703575388279 -877.068417199497 4.422500925240809
    vertex 149.52703575388284 -877.8761336461246 5.042283553372738
  endloop
endfacet
facet normal 1.1170116429244936e-14 -0.13052619222005252 0.9914448613738104
  outer loop
    vertex 149.5270357538828 -874.1090229235973 4.03288927747291
    vertex 149.5270357538828 -875.1184171994971 3.9000000000002757
    vertex 164.52703575388279 -874.1090229235971 4.032889277472758
  endloop
endfacet
facet normal 1.1170116429244936e-14 -0.13052619222005252 0.9914448613738104
  outer loop
    vertex 164.52703575388279 -875.1184171994969 3.900000000000122
    vertex 164.52703575388279 -874.1090229235971 4.032889277472758
    vertex 149.5270357538828 -875.1184171994971 3.9000000000002757
  endloop
endfacet
facet normal 1.2900370931545128e-14 -0.6087614290087279 0.7933533402912296
  outer loop
    vertex 149.52703575388279 -872.3607007528695 5.042283553372742
    vertex 149.52703575388279 -873.168417199497 4.422500925240967
    vertex 164.52703575388279 -872.3607007528694 5.042283553372589
  endloop
endfacet
facet normal 1.2900370931545128e-14 -0.6087614290087279 0.7933533402912296
  outer loop
    vertex 164.52703575388279 -873.168417199497 4.422500925240813
    vertex 164.52703575388279 -872.3607007528694 5.042283553372589
    vertex 149.52703575388279 -873.168417199497 4.422500925240967
  endloop
endfacet
facet normal 9.424765745317004e-15 -1.0 1.5146585731694409e-15
  outer loop
    vertex 157.32703575388285 -879.0184171994971 6.800000000000192
    vertex 157.32703575388283 -879.0184171994971 1.2000000000001925
    vertex 164.5270357538828 -879.0184171994969 6.7906057241002875
  endloop
endfacet
facet normal 9.424765745317004e-15 -1.0 1.5146585731694409e-15
  outer loop
    vertex 164.5270357538828 -879.0184171994969 1.200000000000119
    vertex 164.5270357538828 -879.0184171994969 6.7906057241002875
    vertex 157.32703575388283 -879.0184171994971 1.2000000000001925
  endloop
endfacet
facet normal 6.4463043940550636e-15 0.3826834323650888 0.9238795325112873
  outer loop
    vertex 149.5270357538828 -876.1278114753969 4.032889277472907
    vertex 149.52703575388284 -877.068417199497 4.4225009252409615
    vertex 164.52703575388276 -876.1278114753969 4.032889277472753
  endloop
endfacet
facet normal 6.4463043940550636e-15 0.3826834323650888 0.9238795325112873
  outer loop
    vertex 164.52703575388279 -877.068417199497 4.422500925240809
    vertex 164.52703575388276 -876.1278114753969 4.032889277472753
    vertex 149.52703575388284 -877.068417199497 4.4225009252409615
  endloop
endfacet
facet normal -3.343190458994262e-15 0.9238795325112827 0.3826834323650995
  outer loop
    vertex 149.52703575388284 -878.8855279220244 6.790605724100441
    vertex 164.5270357538828 -878.8855279220244 6.7906057241002875
    vertex 149.52703575388284 -878.4959162742565 5.850000000000272
  endloop
endfacet
facet normal -3.343190458994262e-15 0.9238795325112827 0.3826834323650995
  outer loop
    vertex 164.5270357538828 -878.4959162742563 5.850000000000119
    vertex 149.52703575388284 -878.4959162742565 5.850000000000272
    vertex 164.5270357538828 -878.8855279220244 6.7906057241002875
  endloop
endfacet
facet normal 1.246196134272413e-14 -0.7933533402912274 0.608761429008731
  outer loop
    vertex 164.52703575388279 -871.7409181247377 5.850000000000126
    vertex 149.5270357538828 -871.7409181247377 5.850000000000279
    vertex 164.52703575388279 -872.3607007528694 5.042283553372589
  endloop
endfacet
facet normal 1.246196134272413e-14 -0.7933533402912274 0.608761429008731
  outer loop
    vertex 149.52703575388279 -872.3607007528695 5.042283553372742
    vertex 164.52703575388279 -872.3607007528694 5.042283553372589
    vertex 149.5270357538828 -871.7409181247377 5.850000000000279
  endloop
endfacet
facet normal 9.118895220697429e-15 0.1305261922200488 0.9914448613738108
  outer loop
    vertex 149.5270357538828 -875.1184171994971 3.9000000000002757
    vertex 149.5270357538828 -876.1278114753969 4.032889277472907
    vertex 164.52703575388279 -875.1184171994969 3.900000000000122
  endloop
endfacet
facet normal 9.118895220697429e-15 0.1305261922200488 0.9914448613738108
  outer loop
    vertex 164.52703575388276 -876.1278114753969 4.032889277472753
    vertex 164.52703575388279 -875.1184171994969 3.900000000000122
    vertex 149.5270357538828 -876.1278114753969 4.032889277472907
  endloop
endfacet
facet normal -4.481475601735364e-18 0.7933533402912368 0.6087614290087185
  outer loop
    vertex 149.52703575388284 -878.4959162742565 5.850000000000272
    vertex 164.5270357538828 -878.4959162742563 5.850000000000119
    vertex 149.52703575388284 -877.8761336461246 5.042283553372738
  endloop
endfacet
facet normal -4.481475601735364e-18 0.7933533402912368 0.6087614290087185
  outer loop
    vertex 164.52703575388279 -877.8761336461246 5.0422835533725845
    vertex 149.52703575388284 -877.8761336461246 5.042283553372738
    vertex 164.5270357538828 -878.4959162742563 5.850000000000119
  endloop
endfacet
facet normal 1.0231824220045925e-14 -4.996003610813204e-16 1.0
  outer loop
    vertex 149.5270357538828 -871.218417199497 6.790605724100448
    vertex 149.5270357538828 -871.3513064769699 6.790605724100448
    vertex 164.52703575388279 -871.218417199497 6.790605724100295
  endloop
endfacet
facet normal 1.0231824220045925e-14 -4.996003610813204e-16 1.0
  outer loop
    vertex 164.52703575388279 -871.3513064769696 6.790605724100295
    vertex 164.52703575388279 -871.218417199497 6.790605724100295
    vertex 149.5270357538828 -871.3513064769699 6.790605724100448
  endloop
endfacet
facet normal 7.837554823815699e-05 0.03473514192183362 0.9993965498104063
  outer loop
    vertex 149.52703575388284 -878.8855279220244 6.790605724100441
    vertex 149.52703575388287 -879.0184171994971 6.790605724100441
    vertex 164.5270357538828 -878.8855279220244 6.7906057241002875
  endloop
endfacet
facet normal 7.837554823815699e-05 0.03473514192183362 0.9993965498104063
  outer loop
    vertex 152.72703575388286 -879.0184171994971 6.80000000000024
    vertex 164.5270357538828 -878.8855279220244 6.7906057241002875
    vertex 149.52703575388287 -879.0184171994971 6.790605724100441
  endloop
endfacet
facet normal 7.837554823815699e-05 0.03473514192183362 0.9993965498104063
  outer loop
    vertex 157.32703575388285 -879.0184171994971 6.800000000000192
    vertex 164.5270357538828 -878.8855279220244 6.7906057241002875
    vertex 152.72703575388286 -879.0184171994971 6.80000000000024
  endloop
endfacet
facet normal 7.837554823815699e-05 0.03473514192183362 0.9993965498104063
  outer loop
    vertex 164.5270357538828 -879.0184171994969 6.7906057241002875
    vertex 164.5270357538828 -878.8855279220244 6.7906057241002875
    vertex 157.32703575388285 -879.0184171994971 6.800000000000192
  endloop
endfacet
facet normal 1.0231824220045925e-14 -4.996003610813204e-16 1.0
  outer loop
    vertex 152.72703575388286 -879.0184171994971 6.80000000000024
    vertex 152.7270357538829 -884.0184171994971 6.800000000000237
    vertex 157.32703575388285 -879.0184171994971 6.800000000000192
  endloop
endfacet
facet normal 1.0231824220045925e-14 -4.996003610813204e-16 1.0
  outer loop
    vertex 157.3270357538829 -884.0184171994971 6.800000000000191
    vertex 157.32703575388285 -879.0184171994971 6.800000000000192
    vertex 152.7270357538829 -884.0184171994971 6.800000000000237
  endloop
endfacet
facet normal 1.0 7.856803636668014e-15 -1.0231824220045922e-14
  outer loop
    vertex 157.3270357538829 -884.0184171994971 6.800000000000191
    vertex 157.32703575388283 -884.0184171994971 1.200000000000191
    vertex 157.32703575388285 -879.0184171994971 6.800000000000192
  endloop
endfacet
facet normal 1.0 7.856803636668014e-15 -1.0231824220045922e-14
  outer loop
    vertex 157.32703575388283 -879.0184171994971 1.2000000000001925
    vertex 157.32703575388285 -879.0184171994971 6.800000000000192
    vertex 157.32703575388283 -884.0184171994971 1.200000000000191
  endloop
endfacet
facet normal -1.0 -7.856803636668014e-15 1.0231824220045922e-14
  outer loop
    vertex 152.72703575388286 -884.0184171994971 1.2000000000002375
    vertex 152.7270357538829 -884.0184171994971 6.800000000000237
    vertex 152.7270357538828 -879.0184171994971 1.2000000000002402
  endloop
endfacet
facet normal -1.0 -7.856803636668014e-15 1.0231824220045922e-14
  outer loop
    vertex 152.72703575388286 -879.0184171994971 6.80000000000024
    vertex 152.7270357538828 -879.0184171994971 1.2000000000002402
    vertex 152.7270357538829 -884.0184171994971 6.800000000000237
  endloop
endfacet
facet normal 7.85680363666801e-15 -1.0 -4.996003610814008e-16
  outer loop
    vertex 157.3270357538829 -884.0184171994971 6.800000000000191
    vertex 152.7270357538829 -884.0184171994971 6.800000000000237
    vertex 157.32703575388283 -884.0184171994971 1.200000000000191
  endloop
endfacet
facet normal 7.85680363666801e-15 -1.0 -4.996003610814008e-16
  outer loop
    vertex 152.72703575388286 -884.0184171994971 1.2000000000002375
    vertex 157.32703575388283 -884.0184171994971 1.200000000000191
    vertex 152.7270357538829 -884.0184171994971 6.800000000000237
  endloop
endfacet
facet normal 4.328888892207831e-15 -1.0 1.514658573169486e-15
  outer loop
    vertex 152.72703575388286 -879.0184171994971 6.80000000000024
    vertex 149.52703575388287 -879.0184171994971 6.790605724100441
    vertex 152.7270357538828 -879.0184171994971 1.2000000000002402
  endloop
endfacet
facet normal 4.328888892207831e-15 -1.0 1.514658573169486e-15
  outer loop
    vertex 149.5270357538828 -879.0184171994971 1.2000000000002728
    vertex 152.7270357538828 -879.0184171994971 1.2000000000002402
    vertex 149.52703575388287 -879.0184171994971 6.790605724100441
  endloop
endfacet
endsolid Pump
