solid Pump
facet normal 1.0 -3.928401818334006e-15 -5.115912110022963e-15
  outer loop
    vertex 164.52703575388284 -858.2248406701377 1.2000000000000557
    vertex 164.5270357538828 -860.1748406701377 4.422500925240742
    vertex 164.5270357538828 -866.0248406701377 1.20000000000005
  endloop
endfacet
facet normal 1.0 -3.928401818334006e-15 -5.115912110022963e-15
  outer loop
    vertex 164.5270357538828 -860.1748406701377 4.422500925240742
    vertex 164.52703575388284 -858.2248406701377 1.2000000000000557
    vertex 164.5270357538828 -859.3671242235101 5.04228355337252
  endloop
endfacet
facet normal 1.0 -3.928401818334006e-15 -5.115912110022963e-15
  outer loop
    vertex 164.5270357538828 -859.3671242235101 5.04228355337252
    vertex 164.52703575388284 -858.2248406701377 1.2000000000000557
    vertex 164.52703575388284 -858.7473415953784 5.850000000000056
  endloop
endfacet
facet normal 1.0 -3.928401818334006e-15 -5.115912110022963e-15
  outer loop
    vertex 164.52703575388284 -858.7473415953784 5.850000000000056
    vertex 164.52703575388284 -858.2248406701377 1.2000000000000557
    vertex 164.52703575388284 -858.2248406701377 6.7906057241002244
  endloop
endfacet
facet normal 1.0 -3.928401818334006e-15 -5.115912110022963e-15
  outer loop
    vertex 164.52703575388284 -858.7473415953784 5.850000000000056
    vertex 164.52703575388284 -858.2248406701377 6.7906057241002244
    vertex 164.52703575388284 -858.3577299476103 6.7906057241002244
  endloop
endfacet
facet normal 1.0 -3.928401818334006e-15 -5.115912110022963e-15
  outer loop
    vertex 164.5270357538828 -866.0248406701377 1.20000000000005
    vertex 164.5270357538828 -860.1748406701377 4.422500925240742
    vertex 164.5270357538828 -861.1154463942378 4.0328892774726866
  endloop
endfacet
facet normal 1.0 -3.928401818334006e-15 -5.115912110022963e-15
  outer loop
    vertex 164.5270357538828 -866.0248406701377 1.20000000000005
    vertex 164.5270357538828 -861.1154463942378 4.0328892774726866
    vertex 164.5270357538828 -862.1248406701378 3.9000000000000536
  endloop
endfacet
facet normal 1.0 -3.928401818334006e-15 -5.115912110022963e-15
  outer loop
    vertex 164.5270357538828 -866.0248406701377 1.20000000000005
    vertex 164.5270357538828 -862.1248406701378 3.9000000000000536
    vertex 164.5270357538828 -863.1342349460376 4.032889277472687
  endloop
endfacet
facet normal 1.0 -3.928401818334006e-15 -5.115912110022963e-15
  outer loop
    vertex 164.5270357538828 -866.0248406701377 1.20000000000005
    vertex 164.5270357538828 -863.1342349460376 4.032889277472687
    vertex 164.5270357538828 -864.0748406701377 4.422500925240741
  endloop
endfacet
facet normal 1.0 -3.928401818334006e-15 -5.115912110022963e-15
  outer loop
    vertex 164.5270357538828 -866.0248406701377 1.20000000000005
    vertex 164.5270357538828 -864.0748406701377 4.422500925240741
    vertex 164.5270357538828 -864.8825571167653 5.042283553372516
  endloop
endfacet
facet normal 1.0 -3.928401818334006e-15 -5.115912110022963e-15
  outer loop
    vertex 164.5270357538828 -866.0248406701377 1.20000000000005
    vertex 164.5270357538828 -864.8825571167653 5.042283553372516
    vertex 164.5270357538828 -865.502339744897 5.850000000000053
  endloop
endfacet
facet normal 1.0 -3.928401818334006e-15 -5.115912110022963e-15
  outer loop
    vertex 164.5270357538828 -866.0248406701377 1.20000000000005
    vertex 164.5270357538828 -865.502339744897 5.850000000000053
    vertex 164.5270357538828 -865.8919513926651 6.790605724100222
  endloop
endfacet
facet normal 1.0 -3.928401818334006e-15 -5.115912110022963e-15
  outer loop
    vertex 164.5270357538828 -866.0248406701377 1.20000000000005
    vertex 164.5270357538828 -865.8919513926651 6.790605724100222
    vertex 164.5270357538828 -866.0248406701377 6.790605724100222
  endloop
endfacet
facet normal -1.0 7.85680363666801e-15 1.0231824220045928e-14
  outer loop
    vertex 149.52703575388284 -858.2248406701376 1.2000000000002093
    vertex 149.5270357538829 -858.7473415953782 5.850000000000209
    vertex 149.52703575388293 -858.2248406701376 6.790605724100378
  endloop
endfacet
facet normal -1.0 7.85680363666801e-15 1.0231824220045928e-14
  outer loop
    vertex 149.5270357538829 -858.7473415953782 5.850000000000209
    vertex 149.52703575388284 -858.2248406701376 1.2000000000002093
    vertex 149.52703575388287 -859.3671242235101 5.042283553372672
  endloop
endfacet
facet normal -1.0 7.85680363666801e-15 1.0231824220045928e-14
  outer loop
    vertex 149.52703575388287 -859.3671242235101 5.042283553372672
    vertex 149.52703575388284 -858.2248406701376 1.2000000000002093
    vertex 149.52703575388287 -860.1748406701375 4.422500925240896
  endloop
endfacet
facet normal -1.0 7.85680363666801e-15 1.0231824220045928e-14
  outer loop
    vertex 149.52703575388287 -860.1748406701375 4.422500925240896
    vertex 149.52703575388284 -858.2248406701376 1.2000000000002093
    vertex 149.52703575388279 -866.0248406701377 1.2000000000002022
  endloop
endfacet
facet normal -1.0 7.85680363666801e-15 1.0231824220045928e-14
  outer loop
    vertex 149.52703575388293 -858.2248406701376 6.790605724100378
    vertex 149.5270357538829 -858.7473415953782 5.850000000000209
    vertex 149.5270357538829 -858.3577299476102 6.790605724100378
  endloop
endfacet
facet normal -1.0 7.85680363666801e-15 1.0231824220045928e-14
  outer loop
    vertex 149.52703575388287 -860.1748406701375 4.422500925240896
    vertex 149.52703575388279 -866.0248406701377 1.2000000000002022
    vertex 149.52703575388284 -861.1154463942378 4.03288927747284
  endloop
endfacet
facet normal -1.0 7.85680363666801e-15 1.0231824220045928e-14
  outer loop
    vertex 149.52703575388284 -861.1154463942378 4.03288927747284
    vertex 149.52703575388279 -866.0248406701377 1.2000000000002022
    vertex 149.52703575388284 -862.1248406701376 3.9000000000002064
  endloop
endfacet
facet normal -1.0 7.85680363666801e-15 1.0231824220045928e-14
  outer loop
    vertex 149.52703575388284 -862.1248406701376 3.9000000000002064
    vertex 149.52703575388279 -866.0248406701377 1.2000000000002022
    vertex 149.52703575388284 -863.1342349460374 4.032889277472841
  endloop
endfacet
facet normal -1.0 7.85680363666801e-15 1.0231824220045928e-14
  outer loop
    vertex 149.52703575388284 -863.1342349460374 4.032889277472841
    vertex 149.52703575388279 -866.0248406701377 1.2000000000002022
    vertex 149.52703575388284 -864.0748406701375 4.422500925240895
  endloop
endfacet
facet normal -1.0 7.85680363666801e-15 1.0231824220045928e-14
  outer loop
    vertex 149.52703575388284 -864.0748406701375 4.422500925240895
    vertex 149.52703575388279 -866.0248406701377 1.2000000000002022
    vertex 149.52703575388284 -864.882557116765 5.04228355337267
  endloop
endfacet
facet normal -1.0 7.85680363666801e-15 1.0231824220045928e-14
  outer loop
    vertex 149.52703575388284 -864.882557116765 5.04228355337267
    vertex 149.52703575388279 -866.0248406701377 1.2000000000002022
    vertex 149.52703575388284 -865.502339744897 5.850000000000207
  endloop
endfacet
facet normal -1.0 7.85680363666801e-15 1.0231824220045928e-14
  outer loop
    vertex 149.52703575388284 -865.502339744897 5.850000000000207
    vertex 149.52703575388279 -866.0248406701377 1.2000000000002022
    vertex 149.52703575388284 -865.8919513926649 6.790605724100374
  endloop
endfacet
facet normal -1.0 7.85680363666801e-15 1.0231824220045928e-14
  outer loop
    vertex 149.52703575388284 -865.8919513926649 6.790605724100374
    vertex 149.52703575388279 -866.0248406701377 1.2000000000002022
    vertex 149.52703575388284 -866.0248406701377 6.790605724100374
  endloop
endfacet
facet normal -1.0231824220045922e-14 8.269460797428239e-16 -1.0
  outer loop
    vertex 157.32703575388288 -853.2248406701376 1.2000000000001332
    vertex 152.72703575388286 -858.2248406701376 1.200000000000177
    vertex 152.7270357538829 -853.2248406701376 1.2000000000001811
  endloop
endfacet
facet normal -1.0231824220045922e-14 8.269460797428239e-16 -1.0
  outer loop
    vertex 152.72703575388286 -858.2248406701376 1.200000000000177
    vertex 149.52703575388279 -866.0248406701377 1.2000000000002022
    vertex 149.52703575388284 -858.2248406701376 1.2000000000002093
  endloop
endfacet
facet normal -1.0231824220045922e-14 8.269460797428239e-16 -1.0
  outer loop
    vertex 149.52703575388279 -866.0248406701377 1.2000000000002022
    vertex 152.72703575388286 -858.2248406701376 1.200000000000177
    vertex 164.5270357538828 -866.0248406701377 1.20000000000005
  endloop
endfacet
facet normal -1.0231824220045922e-14 8.269460797428239e-16 -1.0
  outer loop
    vertex 164.5270357538828 -866.0248406701377 1.20000000000005
    vertex 152.72703575388286 -858.2248406701376 1.200000000000177
    vertex 157.32703575388285 -858.2248406701376 1.200000000000129
  endloop
endfacet
facet normal -1.0231824220045922e-14 8.269460797428239e-16 -1.0
  outer loop
    vertex 157.32703575388285 -858.2248406701376 1.200000000000129
    vertex 152.72703575388286 -858.2248406701376 1.200000000000177
    vertex 157.32703575388288 -853.2248406701376 1.2000000000001332
  endloop
endfacet
facet normal -1.0231824220045922e-14 8.269460797428239e-16 -1.0
  outer loop
    vertex 164.5270357538828 -866.0248406701377 1.20000000000005
    vertex 157.32703575388285 -858.2248406701376 1.200000000000129
    vertex 164.52703575388284 -858.2248406701377 1.2000000000000557
  endloop
endfacet
facet normal -7.856803636668018e-15 -1.0 -8.269460797427436e-16
  outer loop
    vertex 149.52703575388279 -866.0248406701377 1.2000000000002022
    vertex 164.5270357538828 -866.0248406701377 6.790605724100222
    vertex 149.52703575388284 -866.0248406701377 6.790605724100374
  endloop
endfacet
facet normal -7.856803636668018e-15 -1.0 -8.269460797427436e-16
  outer loop
    vertex 164.5270357538828 -866.0248406701377 6.790605724100222
    vertex 149.52703575388279 -866.0248406701377 1.2000000000002022
    vertex 164.5270357538828 -866.0248406701377 1.20000000000005
  endloop
endfacet
facet normal 1.1174289682761189e-14 0.9238795325112904 0.38268343236508096
  outer loop
    vertex 164.5270357538828 -865.502339744897 5.850000000000053
    vertex 149.52703575388284 -865.8919513926649 6.790605724100374
    vertex 164.5270357538828 -865.8919513926651 6.790605724100222
  endloop
endfacet
facet normal 1.1174289682761189e-14 0.9238795325112904 0.38268343236508096
  outer loop
    vertex 149.52703575388284 -865.8919513926649 6.790605724100374
    vertex 164.5270357538828 -865.502339744897 5.850000000000053
    vertex 149.52703575388284 -865.502339744897 5.850000000000207
  endloop
endfacet
facet normal 1.2459641560252323e-14 0.38268343236508845 0.9238795325112874
  outer loop
    vertex 164.5270357538828 -864.0748406701377 4.422500925240741
    vertex 149.52703575388284 -863.1342349460374 4.032889277472841
    vertex 149.52703575388284 -864.0748406701375 4.422500925240895
  endloop
endfacet
facet normal 1.2459641560252323e-14 0.38268343236508845 0.9238795325112874
  outer loop
    vertex 149.52703575388284 -863.1342349460374 4.032889277472841
    vertex 164.5270357538828 -864.0748406701377 4.422500925240741
    vertex 164.5270357538828 -863.1342349460376 4.032889277472687
  endloop
endfacet
facet normal 3.3345329129471382e-15 -0.608761429008729 0.7933533402912287
  outer loop
    vertex 164.5270357538828 -860.1748406701377 4.422500925240742
    vertex 149.52703575388287 -859.3671242235101 5.042283553372672
    vertex 149.52703575388287 -860.1748406701375 4.422500925240896
  endloop
endfacet
facet normal 3.3345329129471382e-15 -0.608761429008729 0.7933533402912287
  outer loop
    vertex 149.52703575388287 -859.3671242235101 5.042283553372672
    vertex 164.5270357538828 -860.1748406701377 4.422500925240742
    vertex 164.5270357538828 -859.3671242235101 5.04228355337252
  endloop
endfacet
facet normal 1.1170116429244935e-14 0.13052619222005118 0.9914448613738106
  outer loop
    vertex 164.5270357538828 -863.1342349460376 4.032889277472687
    vertex 149.52703575388284 -862.1248406701376 3.9000000000002064
    vertex 149.52703575388284 -863.1342349460374 4.032889277472841
  endloop
endfacet
facet normal 1.1170116429244935e-14 0.13052619222005118 0.9914448613738106
  outer loop
    vertex 149.52703575388284 -862.1248406701376 3.9000000000002064
    vertex 164.5270357538828 -863.1342349460376 4.032889277472687
    vertex 164.5270357538828 -862.1248406701378 3.9000000000000536
  endloop
endfacet
facet normal 1.290037093154513e-14 0.6087614290087268 0.7933533402912305
  outer loop
    vertex 164.5270357538828 -864.8825571167653 5.042283553372516
    vertex 149.52703575388284 -864.0748406701375 4.422500925240895
    vertex 149.52703575388284 -864.882557116765 5.04228355337267
  endloop
endfacet
facet normal 1.290037093154513e-14 0.6087614290087268 0.7933533402912305
  outer loop
    vertex 149.52703575388284 -864.0748406701375 4.422500925240895
    vertex 164.5270357538828 -864.8825571167653 5.042283553372516
    vertex 164.5270357538828 -864.0748406701377 4.422500925240741
  endloop
endfacet
facet normal 9.424765745317012e-15 1.0 2.841205013993585e-15
  outer loop
    vertex 164.52703575388284 -858.2248406701377 6.7906057241002244
    vertex 157.32703575388285 -858.2248406701376 1.200000000000129
    vertex 157.3270357538829 -858.2248406701376 6.800000000000129
  endloop
endfacet
facet normal 9.424765745317012e-15 1.0 2.841205013993585e-15
  outer loop
    vertex 157.32703575388285 -858.2248406701376 1.200000000000129
    vertex 164.52703575388284 -858.2248406701377 6.7906057241002244
    vertex 164.52703575388284 -858.2248406701377 1.2000000000000557
  endloop
endfacet
facet normal 6.446304394055057e-15 -0.38268343236509 0.9238795325112867
  outer loop
    vertex 164.5270357538828 -861.1154463942378 4.0328892774726866
    vertex 149.52703575388287 -860.1748406701375 4.422500925240896
    vertex 149.52703575388284 -861.1154463942378 4.03288927747284
  endloop
endfacet
facet normal 6.446304394055057e-15 -0.38268343236509 0.9238795325112867
  outer loop
    vertex 149.52703575388287 -860.1748406701375 4.422500925240896
    vertex 164.5270357538828 -861.1154463942378 4.0328892774726866
    vertex 164.5270357538828 -860.1748406701377 4.422500925240742
  endloop
endfacet
facet normal -3.34319045899427e-15 -0.9238795325112833 0.3826834323650983
  outer loop
    vertex 149.5270357538829 -858.7473415953782 5.850000000000209
    vertex 164.52703575388284 -858.3577299476103 6.7906057241002244
    vertex 149.5270357538829 -858.3577299476102 6.790605724100378
  endloop
endfacet
facet normal -3.34319045899427e-15 -0.9238795325112833 0.3826834323650983
  outer loop
    vertex 164.52703575388284 -858.3577299476103 6.7906057241002244
    vertex 149.5270357538829 -858.7473415953782 5.850000000000209
    vertex 164.52703575388284 -858.7473415953784 5.850000000000056
  endloop
endfacet
facet normal 1.2461961342724137e-14 0.7933533402912265 0.6087614290087321
  outer loop
    vertex 164.5270357538828 -864.8825571167653 5.042283553372516
    vertex 149.52703575388284 -865.502339744897 5.850000000000207
    vertex 164.5270357538828 -865.502339744897 5.850000000000053
  endloop
endfacet
facet normal 1.2461961342724137e-14 0.7933533402912265 0.6087614290087321
  outer loop
    vertex 149.52703575388284 -865.502339744897 5.850000000000207
    vertex 164.5270357538828 -864.8825571167653 5.042283553372516
    vertex 149.52703575388284 -864.882557116765 5.04228355337267
  endloop
endfacet
facet normal 9.118895220697426e-15 -0.13052619222005013 0.9914448613738106
  outer loop
    vertex 164.5270357538828 -862.1248406701378 3.9000000000000536
    vertex 149.52703575388284 -861.1154463942378 4.03288927747284
    vertex 149.52703575388284 -862.1248406701376 3.9000000000002064
  endloop
endfacet
facet normal 9.118895220697426e-15 -0.13052619222005013 0.9914448613738106
  outer loop
    vertex 149.52703575388284 -861.1154463942378 4.03288927747284
    vertex 164.5270357538828 -862.1248406701378 3.9000000000000536
    vertex 164.5270357538828 -861.1154463942378 4.0328892774726866
  endloop
endfacet
facet normal -4.481475601743253e-18 -0.7933533402912377 0.6087614290087174
  outer loop
    vertex 149.52703575388287 -859.3671242235101 5.042283553372672
    vertex 164.52703575388284 -858.7473415953784 5.850000000000056
    vertex 149.5270357538829 -858.7473415953782 5.850000000000209
  endloop
endfacet
facet normal -4.481475601743253e-18 -0.7933533402912377 0.6087614290087174
  outer loop
    vertex 164.52703575388284 -858.7473415953784 5.850000000000056
    vertex 149.52703575388287 -859.3671242235101 5.042283553372672
    vertex 164.5270357538828 -859.3671242235101 5.04228355337252
  endloop
endfacet
facet normal 1.0231824220045922e-14 -8.269460797428239e-16 1.0
  outer loop
    vertex 164.5270357538828 -866.0248406701377 6.790605724100222
    vertex 149.52703575388284 -865.8919513926649 6.790605724100374
    vertex 149.52703575388284 -866.0248406701377 6.790605724100374
  endloop
endfacet
facet normal 1.0231824220045922e-14 -8.269460797428239e-16 1.0
  outer loop
    vertex 149.52703575388284 -865.8919513926649 6.790605724100374
    vertex 164.5270357538828 -866.0248406701377 6.790605724100222
    vertex 164.5270357538828 -865.8919513926651 6.790605724100222
  endloop
endfacet
facet normal 7.837554823815697e-05 -0.03473514192183494 0.999396549810406
  outer loop
    vertex 164.52703575388284 -858.3577299476103 6.7906057241002244
    vertex 149.52703575388293 -858.2248406701376 6.790605724100378
    vertex 149.5270357538829 -858.3577299476102 6.790605724100378
  endloop
endfacet
facet normal 7.837554823815697e-05 -0.03473514192183494 0.999396549810406
  outer loop
    vertex 149.52703575388293 -858.2248406701376 6.790605724100378
    vertex 164.52703575388284 -858.3577299476103 6.7906057241002244
    vertex 152.72703575388292 -858.2248406701376 6.800000000000177
  endloop
endfacet
facet normal 7.837554823815697e-05 -0.03473514192183494 0.999396549810406
  outer loop
    vertex 152.72703575388292 -858.2248406701376 6.800000000000177
    vertex 164.52703575388284 -858.3577299476103 6.7906057241002244
    vertex 157.3270357538829 -858.2248406701376 6.800000000000129
  endloop
endfacet
facet normal 7.837554823815697e-05 -0.03473514192183494 0.999396549810406
  outer loop
    vertex 157.3270357538829 -858.2248406701376 6.800000000000129
    vertex 164.52703575388284 -858.3577299476103 6.7906057241002244
    vertex 164.52703575388284 -858.2248406701377 6.7906057241002244
  endloop
endfacet
facet normal 1.0231824220045922e-14 -8.269460797428239e-16 1.0
  outer loop
    vertex 157.3270357538829 -858.2248406701376 6.800000000000129
    vertex 152.72703575388294 -853.2248406701376 6.800000000000181
    vertex 152.72703575388292 -858.2248406701376 6.800000000000177
  endloop
endfacet
facet normal 1.0231824220045922e-14 -8.269460797428239e-16 1.0
  outer loop
    vertex 152.72703575388294 -853.2248406701376 6.800000000000181
    vertex 157.3270357538829 -858.2248406701376 6.800000000000129
    vertex 157.32703575388294 -853.2248406701376 6.800000000000133
  endloop
endfacet
facet normal 1.0 -7.85680363666801e-15 -1.0231824220045928e-14
  outer loop
    vertex 157.3270357538829 -858.2248406701376 6.800000000000129
    vertex 157.32703575388288 -853.2248406701376 1.2000000000001332
    vertex 157.32703575388294 -853.2248406701376 6.800000000000133
  endloop
endfacet
facet normal 1.0 -7.85680363666801e-15 -1.0231824220045928e-14
  outer loop
    vertex 157.32703575388288 -853.2248406701376 1.2000000000001332
    vertex 157.3270357538829 -858.2248406701376 6.800000000000129
    vertex 157.32703575388285 -858.2248406701376 1.200000000000129
  endloop
endfacet
facet normal -1.0 7.85680363666801e-15 1.0231824220045928e-14
  outer loop
    vertex 152.72703575388286 -858.2248406701376 1.200000000000177
    vertex 152.72703575388294 -853.2248406701376 6.800000000000181
    vertex 152.7270357538829 -853.2248406701376 1.2000000000001811
  endloop
endfacet
facet normal -1.0 7.85680363666801e-15 1.0231824220045928e-14
  outer loop
    vertex 152.72703575388294 -853.2248406701376 6.800000000000181
    vertex 152.72703575388286 -858.2248406701376 1.200000000000177
    vertex 152.72703575388292 -858.2248406701376 6.800000000000177
  endloop
endfacet
facet normal 7.856803636668018e-15 1.0 8.269460797427436e-16
  outer loop
    vertex 157.32703575388288 -853.2248406701376 1.2000000000001332
    vertex 152.72703575388294 -853.2248406701376 6.800000000000181
    vertex 157.32703575388294 -853.2248406701376 6.800000000000133
  endloop
endfacet
facet normal 7.856803636668018e-15 1.0 8.269460797427436e-16
  outer loop
    vertex 152.72703575388294 -853.2248406701376 6.800000000000181
    vertex 157.32703575388288 -853.2248406701376 1.2000000000001332
    vertex 152.7270357538829 -853.2248406701376 1.2000000000001811
  endloop
endfacet
facet normal 4.328888892207839e-15 1.0 2.8412050139936304e-15
  outer loop
    vertex 152.72703575388286 -858.2248406701376 1.200000000000177
    vertex 149.52703575388293 -858.2248406701376 6.790605724100378
    vertex 152.72703575388292 -858.2248406701376 6.800000000000177
  endloop
endfacet
facet normal 4.328888892207839e-15 1.0 2.8412050139936304e-15
  outer loop
    vertex 149.52703575388293 -858.2248406701376 6.790605724100378
    vertex 152.72703575388286 -858.2248406701376 1.200000000000177
    vertex 149.52703575388284 -858.2248406701376 1.2000000000002093
  endloop
endfacet
endsolid Pump
