solid Enclosure
facet normal -1.0 0.0 0.0
  outer loop
    vertex -144.68431681542856 -62.20737177338381 23.450000000000003
    vertex -144.68431681542856 -214.4073717733838 21.05
    vertex -144.68431681542856 -214.4073717733838 23.450000000000003
  endloop
endfacet
facet normal -1.0 0.0 0.0
  outer loop
    vertex -144.68431681542856 -214.4073717733838 21.05
    vertex -144.68431681542856 -62.20737177338381 23.450000000000003
    vertex -144.68431681542856 -62.20737177338381 21.049999999999997
  endloop
endfacet
facet normal 1.0 0.0 0.0
  outer loop
    vertex 7.31568318457141 -62.20737177338381 21.049999999999997
    vertex 7.31568318457141 -214.4073717733838 23.450000000000003
    vertex 7.31568318457141 -214.4073717733838 21.049999999999997
  endloop
endfacet
facet normal 1.0 0.0 0.0
  outer loop
    vertex 7.31568318457141 -214.4073717733838 23.450000000000003
    vertex 7.31568318457141 -62.20737177338381 21.049999999999997
    vertex 7.31568318457141 -62.20737177338381 23.45
  endloop
endfacet
facet normal 0.0 1.0 0.0
  outer loop
    vertex -144.68431681542856 -62.20737177338381 23.450000000000003
    vertex 7.31568318457141 -62.20737177338381 21.049999999999997
    vertex -144.68431681542856 -62.20737177338381 21.049999999999997
  endloop
endfacet
facet normal 0.0 1.0 0.0
  outer loop
    vertex 7.31568318457141 -62.20737177338381 21.049999999999997
    vertex -144.68431681542856 -62.20737177338381 23.450000000000003
    vertex 7.31568318457141 -62.20737177338381 23.45
  endloop
endfacet
facet normal -9.276205534697033e-18 -9.26401603990768e-18 -1.0
  outer loop
    vertex 7.31568318457141 -62.20737177338381 21.049999999999997
    vertex -144.68431681542856 -214.4073717733838 21.05
    vertex -144.68431681542856 -62.20737177338381 21.049999999999997
  endloop
endfacet
facet normal -9.276205534697033e-18 -9.26401603990768e-18 -1.0
  outer loop
    vertex -144.68431681542856 -214.4073717733838 21.05
    vertex 7.31568318457141 -62.20737177338381 21.049999999999997
    vertex 7.31568318457141 -214.4073717733838 21.049999999999997
  endloop
endfacet
facet normal 0.0 -1.0 0.0
  outer loop
    vertex 7.31568318457141 -214.4073717733838 23.450000000000003
    vertex -144.68431681542856 -214.4073717733838 21.05
    vertex 7.31568318457141 -214.4073717733838 21.049999999999997
  endloop
endfacet
facet normal 0.0 -1.0 0.0
  outer loop
    vertex -144.68431681542856 -214.4073717733838 21.05
    vertex 7.31568318457141 -214.4073717733838 23.450000000000003
    vertex -144.68431681542856 -214.4073717733838 23.450000000000003
  endloop
endfacet
facet normal 9.35002149385908e-18 9.337637359430125e-18 1.0
  outer loop
    vertex 6.715683184571411 -213.8073717733838 24.05
    vertex -144.08431681542856 -62.80737177338381 24.05
    vertex -144.08431681542856 -213.8073717733838 24.05
  endloop
endfacet
facet normal 9.35002149385908e-18 9.337637359430125e-18 1.0
  outer loop
    vertex -144.08431681542856 -62.80737177338381 24.05
    vertex 6.715683184571411 -213.8073717733838 24.05
    vertex 6.715683184571411 -62.80737177338381 24.049999999999997
  endloop
endfacet
facet normal -0.7071067811865476 0.0 0.7071067811865476
  outer loop
    vertex -144.08431681542856 -213.8073717733838 24.05
    vertex -144.68431681542856 -62.20737177338381 23.450000000000003
    vertex -144.68431681542856 -214.4073717733838 23.450000000000003
  endloop
endfacet
facet normal -0.7071067811865476 0.0 0.7071067811865476
  outer loop
    vertex -144.68431681542856 -62.20737177338381 23.450000000000003
    vertex -144.08431681542856 -213.8073717733838 24.05
    vertex -144.08431681542856 -62.80737177338381 24.05
  endloop
endfacet
facet normal 1.3257307951085555e-17 0.7071067811865476 0.7071067811865476
  outer loop
    vertex -144.68431681542856 -62.20737177338381 23.450000000000003
    vertex 6.715683184571411 -62.80737177338381 24.049999999999997
    vertex 7.31568318457141 -62.20737177338381 23.45
  endloop
endfacet
facet normal 1.3257307951085555e-17 0.7071067811865476 0.7071067811865476
  outer loop
    vertex 6.715683184571411 -62.80737177338381 24.049999999999997
    vertex -144.68431681542856 -62.20737177338381 23.450000000000003
    vertex -144.08431681542856 -62.80737177338381 24.05
  endloop
endfacet
facet normal 3.1393893372099894e-32 -0.7071067811865476 0.7071067811865476
  outer loop
    vertex 6.715683184571411 -213.8073717733838 24.05
    vertex -144.68431681542856 -214.4073717733838 23.450000000000003
    vertex 7.31568318457141 -214.4073717733838 23.450000000000003
  endloop
endfacet
facet normal 3.1393893372099894e-32 -0.7071067811865476 0.7071067811865476
  outer loop
    vertex -144.68431681542856 -214.4073717733838 23.450000000000003
    vertex 6.715683184571411 -213.8073717733838 24.05
    vertex -144.08431681542856 -213.8073717733838 24.05
  endloop
endfacet
facet normal 0.7071067811865476 1.3222351867966617e-17 0.7071067811865476
  outer loop
    vertex 7.31568318457141 -62.20737177338381 23.45
    vertex 6.715683184571411 -213.8073717733838 24.05
    vertex 7.31568318457141 -214.4073717733838 23.450000000000003
  endloop
endfacet
facet normal 0.7071067811865476 1.3222351867966617e-17 0.7071067811865476
  outer loop
    vertex 6.715683184571411 -213.8073717733838 24.05
    vertex 7.31568318457141 -62.20737177338381 23.45
    vertex 6.715683184571411 -62.80737177338381 24.049999999999997
  endloop
endfacet
endsolid Enclosure
