solid Enclosure
facet normal 0.0 1.0 0.0
  outer loop
    vertex -338.80069766147545 -98.16627762759093 19.049999999999997
    vertex -201.10069766147544 -98.16627762759093 0.0
    vertex -338.80069766147545 -98.16627762759093 0.0
  endloop
endfacet
facet normal 0.0 1.0 0.0
  outer loop
    vertex -201.10069766147544 -98.16627762759093 0.0
    vertex -338.80069766147545 -98.16627762759093 19.049999999999997
    vertex -201.10069766147544 -98.16627762759093 19.049999999999997
  endloop
endfacet
facet normal 0.0 0.0 -1.0
  outer loop
    vertex -201.10069766147544 -98.16627762759093 0.0
    vertex -338.80069766147545 -173.86627762759093 0.0
    vertex -338.80069766147545 -98.16627762759093 0.0
  endloop
endfacet
facet normal 0.0 0.0 -1.0
  outer loop
    vertex -338.80069766147545 -173.86627762759093 0.0
    vertex -201.10069766147544 -98.16627762759093 0.0
    vertex -338.80069766147545 -185.56627762759092 0.0
  endloop
endfacet
facet normal 0.0 0.0 -1.0
  outer loop
    vertex -338.80069766147545 -185.56627762759092 0.0
    vertex -201.10069766147544 -98.16627762759093 0.0
    vertex -338.80069766147545 -243.21627762759093 0.0
  endloop
endfacet
facet normal 0.0 0.0 -1.0
  outer loop
    vertex -194.25069766147547 -173.86627762759093 0.0
    vertex -201.10069766147544 -185.56627762759092 0.0
    vertex -201.10069766147544 -173.86627762759093 0.0
  endloop
endfacet
facet normal 0.0 0.0 -1.0
  outer loop
    vertex -201.10069766147544 -185.56627762759092 0.0
    vertex -194.25069766147547 -173.86627762759093 0.0
    vertex -194.25069766147547 -185.5662776275909 0.0
  endloop
endfacet
facet normal 0.0 0.0 -1.0
  outer loop
    vertex -338.80069766147545 -243.21627762759093 0.0
    vertex -352.50069766147544 -246.21627762759093 0.0
    vertex -352.50069766147544 -243.21627762759093 0.0
  endloop
endfacet
facet normal 0.0 0.0 -1.0
  outer loop
    vertex -352.50069766147544 -246.21627762759093 0.0
    vertex -338.80069766147545 -243.21627762759093 0.0
    vertex -187.40069766147548 -246.21627762759093 0.0
  endloop
endfacet
facet normal 0.0 0.0 -1.0
  outer loop
    vertex -187.40069766147548 -246.21627762759093 0.0
    vertex -338.80069766147545 -243.21627762759093 0.0
    vertex -201.10069766147544 -243.21627762759093 0.0
  endloop
endfacet
facet normal 0.0 0.0 -1.0
  outer loop
    vertex -201.10069766147544 -243.21627762759093 0.0
    vertex -338.80069766147545 -243.21627762759093 0.0
    vertex -201.10069766147544 -98.16627762759093 0.0
  endloop
endfacet
facet normal 0.0 0.0 -1.0
  outer loop
    vertex -201.10069766147544 -243.21627762759093 0.0
    vertex -201.10069766147544 -98.16627762759093 0.0
    vertex -201.10069766147544 -173.86627762759093 0.0
  endloop
endfacet
facet normal 0.0 0.0 -1.0
  outer loop
    vertex -201.10069766147544 -243.21627762759093 0.0
    vertex -201.10069766147544 -173.86627762759093 0.0
    vertex -201.10069766147544 -185.56627762759092 0.0
  endloop
endfacet
facet normal 0.0 0.0 -1.0
  outer loop
    vertex -187.40069766147548 -246.21627762759093 0.0
    vertex -201.10069766147544 -243.21627762759093 0.0
    vertex -187.40069766147548 -243.21627762759093 0.0
  endloop
endfacet
facet normal 0.0 0.0 -1.0
  outer loop
    vertex -338.80069766147545 -173.86627762759093 0.0
    vertex -345.6506976614754 -185.56627762759095 0.0
    vertex -345.6506976614754 -173.86627762759093 0.0
  endloop
endfacet
facet normal 0.0 0.0 -1.0
  outer loop
    vertex -345.6506976614754 -185.56627762759095 0.0
    vertex -338.80069766147545 -173.86627762759093 0.0
    vertex -338.80069766147545 -185.56627762759092 0.0
  endloop
endfacet
facet normal 0.0 -1.0 0.0
  outer loop
    vertex -187.40069766147548 -246.21627762759093 23.336
    vertex -352.50069766147544 -246.21627762759093 0.0
    vertex -187.40069766147548 -246.21627762759093 0.0
  endloop
endfacet
facet normal 0.0 -1.0 0.0
  outer loop
    vertex -352.50069766147544 -246.21627762759093 0.0
    vertex -187.40069766147548 -246.21627762759093 23.336
    vertex -352.50069766147544 -246.21627762759093 23.336
  endloop
endfacet
facet normal 0.0 1.0 0.0
  outer loop
    vertex -345.95069766147543 -91.01627762759094 21.049999999999997
    vertex -193.95069766147546 -91.01627762759094 19.049999999999997
    vertex -345.95069766147543 -91.01627762759094 19.049999999999997
  endloop
endfacet
facet normal 0.0 1.0 0.0
  outer loop
    vertex -193.95069766147546 -91.01627762759094 19.049999999999997
    vertex -345.95069766147543 -91.01627762759094 21.049999999999997
    vertex -193.95069766147546 -91.01627762759094 21.049999999999997
  endloop
endfacet
facet normal 1.0 0.0 0.0
  outer loop
    vertex -193.95069766147546 -185.5662776275909 19.049999999999997
    vertex -193.95069766147546 -243.21627762759093 21.05
    vertex -193.95069766147546 -243.21627762759093 19.049999999999997
  endloop
endfacet
facet normal 1.0 0.0 0.0
  outer loop
    vertex -193.95069766147546 -243.21627762759093 21.05
    vertex -193.95069766147546 -185.5662776275909 19.049999999999997
    vertex -193.95069766147546 -91.01627762759094 21.049999999999997
  endloop
endfacet
facet normal 1.0 0.0 0.0
  outer loop
    vertex -193.95069766147546 -91.01627762759094 21.049999999999997
    vertex -193.95069766147546 -185.5662776275909 19.049999999999997
    vertex -193.95069766147546 -173.86627762759096 19.049999999999997
  endloop
endfacet
facet normal 1.0 0.0 0.0
  outer loop
    vertex -193.95069766147546 -91.01627762759094 21.049999999999997
    vertex -193.95069766147546 -173.86627762759096 19.049999999999997
    vertex -193.95069766147546 -91.01627762759094 19.049999999999997
  endloop
endfacet
facet normal -1.0 0.0 0.0
  outer loop
    vertex -338.80069766147545 -98.16627762759093 19.049999999999997
    vertex -338.80069766147545 -173.86627762759093 0.0
    vertex -338.80069766147545 -173.86627762759093 19.049999999999997
  endloop
endfacet
facet normal -1.0 0.0 0.0
  outer loop
    vertex -338.80069766147545 -173.86627762759093 0.0
    vertex -338.80069766147545 -98.16627762759093 19.049999999999997
    vertex -338.80069766147545 -98.16627762759093 0.0
  endloop
endfacet
facet normal -5.279958195560525e-17 1.0 -3.240534618057832e-16
  outer loop
    vertex -352.50069766147544 -243.21627762759093 23.336
    vertex -338.80069766147545 -243.21627762759093 0.0
    vertex -352.50069766147544 -243.21627762759093 0.0
  endloop
endfacet
facet normal -5.279958195560525e-17 1.0 -3.240534618057832e-16
  outer loop
    vertex -338.80069766147545 -243.21627762759093 0.0
    vertex -352.50069766147544 -243.21627762759093 23.336
    vertex -345.95069766147543 -243.21627762759093 19.049999999999997
  endloop
endfacet
facet normal -5.279958195560525e-17 1.0 -3.240534618057832e-16
  outer loop
    vertex -345.95069766147543 -243.21627762759093 19.049999999999997
    vertex -352.50069766147544 -243.21627762759093 23.336
    vertex -345.95069766147543 -243.21627762759093 21.05
  endloop
endfacet
facet normal -5.279958195560525e-17 1.0 -3.240534618057832e-16
  outer loop
    vertex -345.95069766147543 -243.21627762759093 21.05
    vertex -352.50069766147544 -243.21627762759093 23.336
    vertex -193.95069766147546 -243.21627762759093 21.05
  endloop
endfacet
facet normal -5.279958195560525e-17 1.0 -3.240534618057832e-16
  outer loop
    vertex -201.10069766147544 -243.21627762759093 19.049999999999997
    vertex -187.40069766147548 -243.21627762759093 0.0
    vertex -201.10069766147544 -243.21627762759093 0.0
  endloop
endfacet
facet normal -5.279958195560525e-17 1.0 -3.240534618057832e-16
  outer loop
    vertex -187.40069766147548 -243.21627762759093 0.0
    vertex -201.10069766147544 -243.21627762759093 19.049999999999997
    vertex -193.95069766147546 -243.21627762759093 19.049999999999997
  endloop
endfacet
facet normal -5.279958195560525e-17 1.0 -3.240534618057832e-16
  outer loop
    vertex -187.40069766147548 -243.21627762759093 0.0
    vertex -193.95069766147546 -243.21627762759093 19.049999999999997
    vertex -187.40069766147548 -243.21627762759093 23.336
  endloop
endfacet
facet normal -5.279958195560525e-17 1.0 -3.240534618057832e-16
  outer loop
    vertex -187.40069766147548 -243.21627762759093 23.336
    vertex -193.95069766147546 -243.21627762759093 19.049999999999997
    vertex -193.95069766147546 -243.21627762759093 21.05
  endloop
endfacet
facet normal -5.279958195560525e-17 1.0 -3.240534618057832e-16
  outer loop
    vertex -187.40069766147548 -243.21627762759093 23.336
    vertex -193.95069766147546 -243.21627762759093 21.05
    vertex -352.50069766147544 -243.21627762759093 23.336
  endloop
endfacet
facet normal -5.279958195560525e-17 1.0 -3.240534618057832e-16
  outer loop
    vertex -338.80069766147545 -243.21627762759093 19.049999999999997
    vertex -338.80069766147545 -243.21627762759093 0.0
    vertex -345.95069766147543 -243.21627762759093 19.049999999999997
  endloop
endfacet
facet normal 1.0 0.0 0.0
  outer loop
    vertex -201.10069766147544 -185.56627762759092 0.0
    vertex -201.10069766147544 -243.21627762759093 19.049999999999997
    vertex -201.10069766147544 -243.21627762759093 0.0
  endloop
endfacet
facet normal 1.0 0.0 0.0
  outer loop
    vertex -201.10069766147544 -243.21627762759093 19.049999999999997
    vertex -201.10069766147544 -185.56627762759092 0.0
    vertex -201.10069766147544 -185.56627762759092 19.049999999999997
  endloop
endfacet
facet normal 0.0 0.0 1.0
  outer loop
    vertex -335.80069766147545 -241.21627762759093 6.049999999999997
    vertex -275.60755191096786 -176.20513187708332 6.049999999999997
    vertex -335.80069766147545 -98.88027762759093 6.049999999999997
  endloop
endfacet
facet normal 0.0 0.0 1.0
  outer loop
    vertex -275.60755191096786 -176.20513187708332 6.049999999999997
    vertex -335.80069766147545 -241.21627762759093 6.049999999999997
    vertex -204.1006976614755 -241.21627762759093 6.049999999999997
  endloop
endfacet
facet normal 0.0 0.0 1.0
  outer loop
    vertex -335.80069766147545 -98.88027762759093 6.049999999999997
    vertex -275.60755191096786 -176.20513187708332 6.049999999999997
    vertex -276.878900891751 -174.54827762759095 6.049999999999997
  endloop
endfacet
facet normal 0.0 0.0 1.0
  outer loop
    vertex -335.80069766147545 -98.88027762759093 6.049999999999997
    vertex -276.878900891751 -174.54827762759095 6.049999999999997
    vertex -277.678104271788 -172.61882998841108 6.049999999999997
  endloop
endfacet
facet normal 0.0 0.0 1.0
  outer loop
    vertex -335.80069766147545 -98.88027762759093 6.049999999999997
    vertex -277.678104271788 -172.61882998841108 6.049999999999997
    vertex -277.9506976614755 -170.54827762759092 6.049999999999997
  endloop
endfacet
facet normal 0.0 0.0 1.0
  outer loop
    vertex -275.60755191096786 -176.20513187708332 6.049999999999997
    vertex -204.1006976614755 -241.21627762759093 6.049999999999997
    vertex -273.95069766147543 -177.47648085786645 6.049999999999997
  endloop
endfacet
facet normal 0.0 0.0 1.0
  outer loop
    vertex -273.95069766147543 -177.47648085786645 6.049999999999997
    vertex -204.1006976614755 -241.21627762759093 6.049999999999997
    vertex -272.02125002229565 -178.27568423790348 6.049999999999997
  endloop
endfacet
facet normal 0.0 0.0 1.0
  outer loop
    vertex -272.02125002229565 -178.27568423790348 6.049999999999997
    vertex -204.1006976614755 -241.21627762759093 6.049999999999997
    vertex -269.95069766147543 -178.54827762759095 6.049999999999997
  endloop
endfacet
facet normal 0.0 0.0 1.0
  outer loop
    vertex -269.95069766147543 -178.54827762759095 6.049999999999997
    vertex -204.1006976614755 -241.21627762759093 6.049999999999997
    vertex -267.88014530065533 -178.27568423790348 6.049999999999997
  endloop
endfacet
facet normal 0.0 0.0 1.0
  outer loop
    vertex -267.88014530065533 -178.27568423790348 6.049999999999997
    vertex -204.1006976614755 -241.21627762759093 6.049999999999997
    vertex -265.95069766147543 -177.47648085786645 6.049999999999997
  endloop
endfacet
facet normal 0.0 0.0 1.0
  outer loop
    vertex -265.95069766147543 -177.47648085786645 6.049999999999997
    vertex -204.1006976614755 -241.21627762759093 6.049999999999997
    vertex -264.29384341198306 -176.20513187708332 6.049999999999997
  endloop
endfacet
facet normal 0.0 0.0 1.0
  outer loop
    vertex -264.29384341198306 -176.20513187708332 6.049999999999997
    vertex -204.1006976614755 -241.21627762759093 6.049999999999997
    vertex -263.02249443119996 -174.54827762759092 6.049999999999997
  endloop
endfacet
facet normal 0.0 0.0 1.0
  outer loop
    vertex -263.02249443119996 -174.54827762759092 6.049999999999997
    vertex -204.1006976614755 -241.21627762759093 6.049999999999997
    vertex -262.2232910511629 -172.61882998841108 6.049999999999997
  endloop
endfacet
facet normal 0.0 0.0 1.0
  outer loop
    vertex -262.2232910511629 -172.61882998841108 6.049999999999997
    vertex -204.1006976614755 -241.21627762759093 6.049999999999997
    vertex -261.95069766147543 -170.54827762759092 6.049999999999997
  endloop
endfacet
facet normal 0.0 0.0 1.0
  outer loop
    vertex -335.80069766147545 -98.88027762759093 6.049999999999997
    vertex -275.60755191096786 -164.89142337809855 6.049999999999997
    vertex -204.1006976614755 -98.88027762759093 6.049999999999997
  endloop
endfacet
facet normal 0.0 0.0 1.0
  outer loop
    vertex -275.60755191096786 -164.89142337809855 6.049999999999997
    vertex -335.80069766147545 -98.88027762759093 6.049999999999997
    vertex -276.878900891751 -166.54827762759092 6.049999999999997
  endloop
endfacet
facet normal 0.0 0.0 1.0
  outer loop
    vertex -276.878900891751 -166.54827762759092 6.049999999999997
    vertex -335.80069766147545 -98.88027762759093 6.049999999999997
    vertex -277.678104271788 -168.47772526677076 6.049999999999997
  endloop
endfacet
facet normal 0.0 0.0 1.0
  outer loop
    vertex -277.678104271788 -168.47772526677076 6.049999999999997
    vertex -335.80069766147545 -98.88027762759093 6.049999999999997
    vertex -277.9506976614755 -170.54827762759092 6.049999999999997
  endloop
endfacet
facet normal 0.0 0.0 1.0
  outer loop
    vertex -204.1006976614755 -98.88027762759093 6.049999999999997
    vertex -275.60755191096786 -164.89142337809855 6.049999999999997
    vertex -273.9506976614755 -163.62007439731542 6.049999999999997
  endloop
endfacet
facet normal 0.0 0.0 1.0
  outer loop
    vertex -204.1006976614755 -98.88027762759093 6.049999999999997
    vertex -273.9506976614755 -163.62007439731542 6.049999999999997
    vertex -272.02125002229565 -162.82087101727836 6.049999999999997
  endloop
endfacet
facet normal 0.0 0.0 1.0
  outer loop
    vertex -204.1006976614755 -98.88027762759093 6.049999999999997
    vertex -272.02125002229565 -162.82087101727836 6.049999999999997
    vertex -269.95069766147543 -162.54827762759092 6.049999999999997
  endloop
endfacet
facet normal 0.0 0.0 1.0
  outer loop
    vertex -204.1006976614755 -98.88027762759093 6.049999999999997
    vertex -269.95069766147543 -162.54827762759092 6.049999999999997
    vertex -267.88014530065533 -162.82087101727836 6.049999999999997
  endloop
endfacet
facet normal 0.0 0.0 1.0
  outer loop
    vertex -204.1006976614755 -98.88027762759093 6.049999999999997
    vertex -267.88014530065533 -162.82087101727836 6.049999999999997
    vertex -265.95069766147543 -163.62007439731542 6.049999999999997
  endloop
endfacet
facet normal 0.0 0.0 1.0
  outer loop
    vertex -204.1006976614755 -98.88027762759093 6.049999999999997
    vertex -265.95069766147543 -163.62007439731542 6.049999999999997
    vertex -264.29384341198306 -164.89142337809852 6.049999999999997
  endloop
endfacet
facet normal 0.0 0.0 1.0
  outer loop
    vertex -204.1006976614755 -98.88027762759093 6.049999999999997
    vertex -264.29384341198306 -164.89142337809852 6.049999999999997
    vertex -263.02249443119996 -166.54827762759092 6.049999999999997
  endloop
endfacet
facet normal 0.0 0.0 1.0
  outer loop
    vertex -204.1006976614755 -98.88027762759093 6.049999999999997
    vertex -263.02249443119996 -166.54827762759092 6.049999999999997
    vertex -262.2232910511629 -168.47772526677073 6.049999999999997
  endloop
endfacet
facet normal 0.0 0.0 1.0
  outer loop
    vertex -204.1006976614755 -98.88027762759093 6.049999999999997
    vertex -262.2232910511629 -168.47772526677073 6.049999999999997
    vertex -261.95069766147543 -170.54827762759092 6.049999999999997
  endloop
endfacet
facet normal 0.0 0.0 1.0
  outer loop
    vertex -204.1006976614755 -98.88027762759093 6.049999999999997
    vertex -261.95069766147543 -170.54827762759092 6.049999999999997
    vertex -204.1006976614755 -241.21627762759093 6.049999999999997
  endloop
endfacet
facet normal 1.0 0.0 0.0
  outer loop
    vertex -335.80069766147545 -98.88027762759093 6.049999999999997
    vertex -335.80069766147545 -241.21627762759093 21.049999999999997
    vertex -335.80069766147545 -241.21627762759093 6.049999999999997
  endloop
endfacet
facet normal 1.0 0.0 0.0
  outer loop
    vertex -335.80069766147545 -241.21627762759093 21.049999999999997
    vertex -335.80069766147545 -98.88027762759093 6.049999999999997
    vertex -335.80069766147545 -98.88027762759093 21.049999999999997
  endloop
endfacet
facet normal -1.0 0.0 0.0
  outer loop
    vertex -204.1006976614755 -98.88027762759093 21.049999999999997
    vertex -204.1006976614755 -241.21627762759093 6.049999999999997
    vertex -204.1006976614755 -241.21627762759093 21.049999999999997
  endloop
endfacet
facet normal -1.0 0.0 0.0
  outer loop
    vertex -204.1006976614755 -241.21627762759093 6.049999999999997
    vertex -204.1006976614755 -98.88027762759093 21.049999999999997
    vertex -204.1006976614755 -98.88027762759093 6.049999999999997
  endloop
endfacet
facet normal -0.0 -1.0 -0.0
  outer loop
    vertex -204.1006976614755 -98.88027762759093 21.049999999999997
    vertex -335.80069766147545 -98.88027762759093 6.049999999999997
    vertex -204.1006976614755 -98.88027762759093 6.049999999999997
  endloop
endfacet
facet normal -0.0 -1.0 -0.0
  outer loop
    vertex -335.80069766147545 -98.88027762759093 6.049999999999997
    vertex -204.1006976614755 -98.88027762759093 21.049999999999997
    vertex -335.80069766147545 -98.88027762759093 21.049999999999997
  endloop
endfacet
facet normal 0.0 0.0 1.0
  outer loop
    vertex -277.678104271788 -172.61882998841108 21.049999999999997
    vertex -277.678104271788 -168.47772526677076 21.049999999999997
    vertex -277.9506976614755 -170.54827762759092 21.049999999999997
  endloop
endfacet
facet normal 0.0 0.0 1.0
  outer loop
    vertex -277.678104271788 -168.47772526677076 21.049999999999997
    vertex -277.678104271788 -172.61882998841108 21.049999999999997
    vertex -276.878900891751 -174.54827762759095 21.049999999999997
  endloop
endfacet
facet normal 0.0 0.0 1.0
  outer loop
    vertex -277.678104271788 -168.47772526677076 21.049999999999997
    vertex -276.878900891751 -174.54827762759095 21.049999999999997
    vertex -276.878900891751 -166.54827762759092 21.049999999999997
  endloop
endfacet
facet normal 0.0 0.0 1.0
  outer loop
    vertex -276.878900891751 -166.54827762759092 21.049999999999997
    vertex -276.878900891751 -174.54827762759095 21.049999999999997
    vertex -275.60755191096786 -176.20513187708332 21.049999999999997
  endloop
endfacet
facet normal 0.0 0.0 1.0
  outer loop
    vertex -276.878900891751 -166.54827762759092 21.049999999999997
    vertex -275.60755191096786 -176.20513187708332 21.049999999999997
    vertex -275.60755191096786 -164.89142337809855 21.049999999999997
  endloop
endfacet
facet normal 0.0 0.0 1.0
  outer loop
    vertex -275.60755191096786 -164.89142337809855 21.049999999999997
    vertex -275.60755191096786 -176.20513187708332 21.049999999999997
    vertex -273.95069766147543 -177.47648085786645 21.049999999999997
  endloop
endfacet
facet normal 0.0 0.0 1.0
  outer loop
    vertex -275.60755191096786 -164.89142337809855 21.049999999999997
    vertex -273.95069766147543 -177.47648085786645 21.049999999999997
    vertex -273.9506976614755 -163.62007439731542 21.049999999999997
  endloop
endfacet
facet normal 0.0 0.0 1.0
  outer loop
    vertex -273.9506976614755 -163.62007439731542 21.049999999999997
    vertex -273.95069766147543 -177.47648085786645 21.049999999999997
    vertex -272.02125002229565 -162.82087101727836 21.049999999999997
  endloop
endfacet
facet normal 0.0 0.0 1.0
  outer loop
    vertex -272.02125002229565 -162.82087101727836 21.049999999999997
    vertex -273.95069766147543 -177.47648085786645 21.049999999999997
    vertex -272.02125002229565 -178.27568423790348 21.049999999999997
  endloop
endfacet
facet normal 0.0 0.0 1.0
  outer loop
    vertex -272.02125002229565 -162.82087101727836 21.049999999999997
    vertex -272.02125002229565 -178.27568423790348 21.049999999999997
    vertex -269.95069766147543 -178.54827762759095 21.049999999999997
  endloop
endfacet
facet normal 0.0 0.0 1.0
  outer loop
    vertex -272.02125002229565 -162.82087101727836 21.049999999999997
    vertex -269.95069766147543 -178.54827762759095 21.049999999999997
    vertex -269.95069766147543 -162.54827762759092 21.049999999999997
  endloop
endfacet
facet normal 0.0 0.0 1.0
  outer loop
    vertex -269.95069766147543 -162.54827762759092 21.049999999999997
    vertex -269.95069766147543 -178.54827762759095 21.049999999999997
    vertex -267.88014530065533 -178.27568423790348 21.049999999999997
  endloop
endfacet
facet normal 0.0 0.0 1.0
  outer loop
    vertex -269.95069766147543 -162.54827762759092 21.049999999999997
    vertex -267.88014530065533 -178.27568423790348 21.049999999999997
    vertex -267.88014530065533 -162.82087101727836 21.049999999999997
  endloop
endfacet
facet normal 0.0 0.0 1.0
  outer loop
    vertex -267.88014530065533 -162.82087101727836 21.049999999999997
    vertex -267.88014530065533 -178.27568423790348 21.049999999999997
    vertex -265.95069766147543 -177.47648085786645 21.049999999999997
  endloop
endfacet
facet normal 0.0 0.0 1.0
  outer loop
    vertex -267.88014530065533 -162.82087101727836 21.049999999999997
    vertex -265.95069766147543 -177.47648085786645 21.049999999999997
    vertex -265.95069766147543 -163.62007439731542 21.049999999999997
  endloop
endfacet
facet normal 0.0 0.0 1.0
  outer loop
    vertex -265.95069766147543 -163.62007439731542 21.049999999999997
    vertex -265.95069766147543 -177.47648085786645 21.049999999999997
    vertex -264.29384341198306 -176.20513187708332 21.049999999999997
  endloop
endfacet
facet normal 0.0 0.0 1.0
  outer loop
    vertex -265.95069766147543 -163.62007439731542 21.049999999999997
    vertex -264.29384341198306 -176.20513187708332 21.049999999999997
    vertex -264.29384341198306 -164.89142337809852 21.049999999999997
  endloop
endfacet
facet normal 0.0 0.0 1.0
  outer loop
    vertex -264.29384341198306 -164.89142337809852 21.049999999999997
    vertex -264.29384341198306 -176.20513187708332 21.049999999999997
    vertex -263.02249443119996 -174.54827762759092 21.049999999999997
  endloop
endfacet
facet normal 0.0 0.0 1.0
  outer loop
    vertex -264.29384341198306 -164.89142337809852 21.049999999999997
    vertex -263.02249443119996 -174.54827762759092 21.049999999999997
    vertex -263.02249443119996 -166.54827762759092 21.049999999999997
  endloop
endfacet
facet normal 0.0 0.0 1.0
  outer loop
    vertex -263.02249443119996 -166.54827762759092 21.049999999999997
    vertex -263.02249443119996 -174.54827762759092 21.049999999999997
    vertex -262.2232910511629 -172.61882998841108 21.049999999999997
  endloop
endfacet
facet normal 0.0 0.0 1.0
  outer loop
    vertex -263.02249443119996 -166.54827762759092 21.049999999999997
    vertex -262.2232910511629 -172.61882998841108 21.049999999999997
    vertex -262.2232910511629 -168.47772526677073 21.049999999999997
  endloop
endfacet
facet normal 0.0 0.0 1.0
  outer loop
    vertex -262.2232910511629 -168.47772526677073 21.049999999999997
    vertex -262.2232910511629 -172.61882998841108 21.049999999999997
    vertex -261.95069766147543 -170.54827762759092 21.049999999999997
  endloop
endfacet
facet normal 0.7933533402912413 -0.6087614290087128 0.0
  outer loop
    vertex -263.02249443119996 -174.54827762759092 6.049999999999997
    vertex -264.29384341198306 -176.20513187708332 21.049999999999997
    vertex -264.29384341198306 -176.20513187708332 6.049999999999997
  endloop
endfacet
facet normal 0.7933533402912413 -0.6087614290087128 0.0
  outer loop
    vertex -264.29384341198306 -176.20513187708332 21.049999999999997
    vertex -263.02249443119996 -174.54827762759092 6.049999999999997
    vertex -263.02249443119996 -174.54827762759092 21.049999999999997
  endloop
endfacet
facet normal 0.9238795325112863 -0.3826834323650914 0.0
  outer loop
    vertex -262.2232910511629 -172.61882998841108 6.049999999999997
    vertex -263.02249443119996 -174.54827762759092 21.049999999999997
    vertex -263.02249443119996 -174.54827762759092 6.049999999999997
  endloop
endfacet
facet normal 0.9238795325112863 -0.3826834323650914 0.0
  outer loop
    vertex -263.02249443119996 -174.54827762759092 21.049999999999997
    vertex -262.2232910511629 -172.61882998841108 6.049999999999997
    vertex -262.2232910511629 -172.61882998841108 21.049999999999997
  endloop
endfacet
facet normal 0.9914448613738104 -0.13052619222005216 0.0
  outer loop
    vertex -261.95069766147543 -170.54827762759092 6.049999999999997
    vertex -262.2232910511629 -172.61882998841108 21.049999999999997
    vertex -262.2232910511629 -172.61882998841108 6.049999999999997
  endloop
endfacet
facet normal 0.9914448613738104 -0.13052619222005216 0.0
  outer loop
    vertex -262.2232910511629 -172.61882998841108 21.049999999999997
    vertex -261.95069766147543 -170.54827762759092 6.049999999999997
    vertex -261.95069766147543 -170.54827762759092 21.049999999999997
  endloop
endfacet
facet normal 0.9914448613738106 0.13052619222005077 0.0
  outer loop
    vertex -262.2232910511629 -168.47772526677073 6.049999999999997
    vertex -261.95069766147543 -170.54827762759092 21.049999999999997
    vertex -261.95069766147543 -170.54827762759092 6.049999999999997
  endloop
endfacet
facet normal 0.9914448613738106 0.13052619222005077 0.0
  outer loop
    vertex -261.95069766147543 -170.54827762759092 21.049999999999997
    vertex -262.2232910511629 -168.47772526677073 6.049999999999997
    vertex -262.2232910511629 -168.47772526677073 21.049999999999997
  endloop
endfacet
facet normal 0.9238795325112863 0.3826834323650914 0.0
  outer loop
    vertex -263.02249443119996 -166.54827762759092 6.049999999999997
    vertex -262.2232910511629 -168.47772526677073 21.049999999999997
    vertex -262.2232910511629 -168.47772526677073 6.049999999999997
  endloop
endfacet
facet normal 0.9238795325112863 0.3826834323650914 0.0
  outer loop
    vertex -262.2232910511629 -168.47772526677073 21.049999999999997
    vertex -263.02249443119996 -166.54827762759092 6.049999999999997
    vertex -263.02249443119996 -166.54827762759092 21.049999999999997
  endloop
endfacet
facet normal 0.7933533402912372 0.6087614290087179 0.0
  outer loop
    vertex -264.29384341198306 -164.89142337809852 6.049999999999997
    vertex -263.02249443119996 -166.54827762759092 21.049999999999997
    vertex -263.02249443119996 -166.54827762759092 6.049999999999997
  endloop
endfacet
facet normal 0.7933533402912372 0.6087614290087179 0.0
  outer loop
    vertex -263.02249443119996 -166.54827762759092 21.049999999999997
    vertex -264.29384341198306 -164.89142337809852 6.049999999999997
    vertex -264.29384341198306 -164.89142337809852 21.049999999999997
  endloop
endfacet
facet normal 0.6087614290087128 0.7933533402912413 0.0
  outer loop
    vertex -265.95069766147543 -163.62007439731542 21.049999999999997
    vertex -264.29384341198306 -164.89142337809852 6.049999999999997
    vertex -265.95069766147543 -163.62007439731542 6.049999999999997
  endloop
endfacet
facet normal 0.6087614290087128 0.7933533402912413 0.0
  outer loop
    vertex -264.29384341198306 -164.89142337809852 6.049999999999997
    vertex -265.95069766147543 -163.62007439731542 21.049999999999997
    vertex -264.29384341198306 -164.89142337809852 21.049999999999997
  endloop
endfacet
facet normal 0.3826834323650914 0.9238795325112863 0.0
  outer loop
    vertex -267.88014530065533 -162.82087101727836 21.049999999999997
    vertex -265.95069766147543 -163.62007439731542 6.049999999999997
    vertex -267.88014530065533 -162.82087101727836 6.049999999999997
  endloop
endfacet
facet normal 0.3826834323650914 0.9238795325112863 0.0
  outer loop
    vertex -265.95069766147543 -163.62007439731542 6.049999999999997
    vertex -267.88014530065533 -162.82087101727836 21.049999999999997
    vertex -265.95069766147543 -163.62007439731542 21.049999999999997
  endloop
endfacet
facet normal 0.13052619222005216 0.9914448613738104 0.0
  outer loop
    vertex -269.95069766147543 -162.54827762759092 21.049999999999997
    vertex -267.88014530065533 -162.82087101727836 6.049999999999997
    vertex -269.95069766147543 -162.54827762759092 6.049999999999997
  endloop
endfacet
facet normal 0.13052619222005216 0.9914448613738104 0.0
  outer loop
    vertex -267.88014530065533 -162.82087101727836 6.049999999999997
    vertex -269.95069766147543 -162.54827762759092 21.049999999999997
    vertex -267.88014530065533 -162.82087101727836 21.049999999999997
  endloop
endfacet
facet normal -0.13052619222005077 0.9914448613738106 0.0
  outer loop
    vertex -272.02125002229565 -162.82087101727836 21.049999999999997
    vertex -269.95069766147543 -162.54827762759092 6.049999999999997
    vertex -272.02125002229565 -162.82087101727836 6.049999999999997
  endloop
endfacet
facet normal -0.13052619222005077 0.9914448613738106 0.0
  outer loop
    vertex -269.95069766147543 -162.54827762759092 6.049999999999997
    vertex -272.02125002229565 -162.82087101727836 21.049999999999997
    vertex -269.95069766147543 -162.54827762759092 21.049999999999997
  endloop
endfacet
facet normal -0.3826834323650914 0.9238795325112863 0.0
  outer loop
    vertex -273.9506976614755 -163.62007439731542 21.049999999999997
    vertex -272.02125002229565 -162.82087101727836 6.049999999999997
    vertex -273.9506976614755 -163.62007439731542 6.049999999999997
  endloop
endfacet
facet normal -0.3826834323650914 0.9238795325112863 0.0
  outer loop
    vertex -272.02125002229565 -162.82087101727836 6.049999999999997
    vertex -273.9506976614755 -163.62007439731542 21.049999999999997
    vertex -272.02125002229565 -162.82087101727836 21.049999999999997
  endloop
endfacet
facet normal -0.6087614290087248 0.7933533402912322 0.0
  outer loop
    vertex -275.60755191096786 -164.89142337809855 21.049999999999997
    vertex -273.9506976614755 -163.62007439731542 6.049999999999997
    vertex -275.60755191096786 -164.89142337809855 6.049999999999997
  endloop
endfacet
facet normal -0.6087614290087248 0.7933533402912322 0.0
  outer loop
    vertex -273.9506976614755 -163.62007439731542 6.049999999999997
    vertex -275.60755191096786 -164.89142337809855 21.049999999999997
    vertex -273.9506976614755 -163.62007439731542 21.049999999999997
  endloop
endfacet
facet normal -0.7933533402912372 0.6087614290087179 0.0
  outer loop
    vertex -275.60755191096786 -164.89142337809855 21.049999999999997
    vertex -276.878900891751 -166.54827762759092 6.049999999999997
    vertex -276.878900891751 -166.54827762759092 21.049999999999997
  endloop
endfacet
facet normal -0.7933533402912372 0.6087614290087179 0.0
  outer loop
    vertex -276.878900891751 -166.54827762759092 6.049999999999997
    vertex -275.60755191096786 -164.89142337809855 21.049999999999997
    vertex -275.60755191096786 -164.89142337809855 6.049999999999997
  endloop
endfacet
facet normal -0.9238795325112863 0.3826834323650914 0.0
  outer loop
    vertex -276.878900891751 -166.54827762759092 21.049999999999997
    vertex -277.678104271788 -168.47772526677076 6.049999999999997
    vertex -277.678104271788 -168.47772526677076 21.049999999999997
  endloop
endfacet
facet normal -0.9238795325112863 0.3826834323650914 0.0
  outer loop
    vertex -277.678104271788 -168.47772526677076 6.049999999999997
    vertex -276.878900891751 -166.54827762759092 21.049999999999997
    vertex -276.878900891751 -166.54827762759092 6.049999999999997
  endloop
endfacet
facet normal -0.9914448613738104 0.13052619222005216 0.0
  outer loop
    vertex -277.678104271788 -168.47772526677076 21.049999999999997
    vertex -277.9506976614755 -170.54827762759092 6.049999999999997
    vertex -277.9506976614755 -170.54827762759092 21.049999999999997
  endloop
endfacet
facet normal -0.9914448613738104 0.13052619222005216 0.0
  outer loop
    vertex -277.9506976614755 -170.54827762759092 6.049999999999997
    vertex -277.678104271788 -168.47772526677076 21.049999999999997
    vertex -277.678104271788 -168.47772526677076 6.049999999999997
  endloop
endfacet
facet normal -0.9914448613738104 -0.13052619222005216 -0.0
  outer loop
    vertex -277.9506976614755 -170.54827762759092 21.049999999999997
    vertex -277.678104271788 -172.61882998841108 6.049999999999997
    vertex -277.678104271788 -172.61882998841108 21.049999999999997
  endloop
endfacet
facet normal -0.9914448613738104 -0.13052619222005216 -0.0
  outer loop
    vertex -277.678104271788 -172.61882998841108 6.049999999999997
    vertex -277.9506976614755 -170.54827762759092 21.049999999999997
    vertex -277.9506976614755 -170.54827762759092 6.049999999999997
  endloop
endfacet
facet normal -0.9238795325112878 -0.38268343236508756 -0.0
  outer loop
    vertex -277.678104271788 -172.61882998841108 21.049999999999997
    vertex -276.878900891751 -174.54827762759095 6.049999999999997
    vertex -276.878900891751 -174.54827762759095 21.049999999999997
  endloop
endfacet
facet normal -0.9238795325112878 -0.38268343236508756 -0.0
  outer loop
    vertex -276.878900891751 -174.54827762759095 6.049999999999997
    vertex -277.678104271788 -172.61882998841108 21.049999999999997
    vertex -277.678104271788 -172.61882998841108 6.049999999999997
  endloop
endfacet
facet normal -0.7933533402912372 -0.6087614290087179 -0.0
  outer loop
    vertex -276.878900891751 -174.54827762759095 21.049999999999997
    vertex -275.60755191096786 -176.20513187708332 6.049999999999997
    vertex -275.60755191096786 -176.20513187708332 21.049999999999997
  endloop
endfacet
facet normal -0.7933533402912372 -0.6087614290087179 -0.0
  outer loop
    vertex -275.60755191096786 -176.20513187708332 6.049999999999997
    vertex -276.878900891751 -174.54827762759095 21.049999999999997
    vertex -276.878900891751 -174.54827762759095 6.049999999999997
  endloop
endfacet
facet normal -0.6087614290087128 -0.7933533402912413 -0.0
  outer loop
    vertex -273.95069766147543 -177.47648085786645 21.049999999999997
    vertex -275.60755191096786 -176.20513187708332 6.049999999999997
    vertex -273.95069766147543 -177.47648085786645 6.049999999999997
  endloop
endfacet
facet normal -0.6087614290087128 -0.7933533402912413 -0.0
  outer loop
    vertex -275.60755191096786 -176.20513187708332 6.049999999999997
    vertex -273.95069766147543 -177.47648085786645 21.049999999999997
    vertex -275.60755191096786 -176.20513187708332 21.049999999999997
  endloop
endfacet
facet normal -0.3826834323650914 -0.9238795325112863 -0.0
  outer loop
    vertex -272.02125002229565 -178.27568423790348 21.049999999999997
    vertex -273.95069766147543 -177.47648085786645 6.049999999999997
    vertex -272.02125002229565 -178.27568423790348 6.049999999999997
  endloop
endfacet
facet normal -0.3826834323650914 -0.9238795325112863 -0.0
  outer loop
    vertex -273.95069766147543 -177.47648085786645 6.049999999999997
    vertex -272.02125002229565 -178.27568423790348 21.049999999999997
    vertex -273.95069766147543 -177.47648085786645 21.049999999999997
  endloop
endfacet
facet normal -0.13052619222005216 -0.9914448613738104 -0.0
  outer loop
    vertex -269.95069766147543 -178.54827762759095 21.049999999999997
    vertex -272.02125002229565 -178.27568423790348 6.049999999999997
    vertex -269.95069766147543 -178.54827762759095 6.049999999999997
  endloop
endfacet
facet normal -0.13052619222005216 -0.9914448613738104 -0.0
  outer loop
    vertex -272.02125002229565 -178.27568423790348 6.049999999999997
    vertex -269.95069766147543 -178.54827762759095 21.049999999999997
    vertex -272.02125002229565 -178.27568423790348 21.049999999999997
  endloop
endfacet
facet normal 0.13052619222005216 -0.9914448613738104 0.0
  outer loop
    vertex -267.88014530065533 -178.27568423790348 21.049999999999997
    vertex -269.95069766147543 -178.54827762759095 6.049999999999997
    vertex -267.88014530065533 -178.27568423790348 6.049999999999997
  endloop
endfacet
facet normal 0.13052619222005216 -0.9914448613738104 0.0
  outer loop
    vertex -269.95069766147543 -178.54827762759095 6.049999999999997
    vertex -267.88014530065533 -178.27568423790348 21.049999999999997
    vertex -269.95069766147543 -178.54827762759095 21.049999999999997
  endloop
endfacet
facet normal 0.38268343236508756 -0.9238795325112878 0.0
  outer loop
    vertex -265.95069766147543 -177.47648085786645 21.049999999999997
    vertex -267.88014530065533 -178.27568423790348 6.049999999999997
    vertex -265.95069766147543 -177.47648085786645 6.049999999999997
  endloop
endfacet
facet normal 0.38268343236508756 -0.9238795325112878 0.0
  outer loop
    vertex -267.88014530065533 -178.27568423790348 6.049999999999997
    vertex -265.95069766147543 -177.47648085786645 21.049999999999997
    vertex -267.88014530065533 -178.27568423790348 21.049999999999997
  endloop
endfacet
facet normal 0.6087614290087179 -0.7933533402912372 0.0
  outer loop
    vertex -264.29384341198306 -176.20513187708332 21.049999999999997
    vertex -265.95069766147543 -177.47648085786645 6.049999999999997
    vertex -264.29384341198306 -176.20513187708332 6.049999999999997
  endloop
endfacet
facet normal 0.6087614290087179 -0.7933533402912372 0.0
  outer loop
    vertex -265.95069766147543 -177.47648085786645 6.049999999999997
    vertex -264.29384341198306 -176.20513187708332 21.049999999999997
    vertex -265.95069766147543 -177.47648085786645 21.049999999999997
  endloop
endfacet
facet normal 0.0 0.0 1.0
  outer loop
    vertex -187.40069766147548 -246.21627762759093 23.336
    vertex -352.50069766147544 -243.21627762759093 23.336
    vertex -352.50069766147544 -246.21627762759093 23.336
  endloop
endfacet
facet normal 0.0 0.0 1.0
  outer loop
    vertex -352.50069766147544 -243.21627762759093 23.336
    vertex -187.40069766147548 -246.21627762759093 23.336
    vertex -187.40069766147548 -243.21627762759093 23.336
  endloop
endfacet
facet normal 0.0 1.0 0.0
  outer loop
    vertex -335.80069766147545 -241.21627762759093 21.049999999999997
    vertex -204.1006976614755 -241.21627762759093 6.049999999999997
    vertex -335.80069766147545 -241.21627762759093 6.049999999999997
  endloop
endfacet
facet normal 0.0 1.0 0.0
  outer loop
    vertex -204.1006976614755 -241.21627762759093 6.049999999999997
    vertex -335.80069766147545 -241.21627762759093 21.049999999999997
    vertex -204.1006976614755 -241.21627762759093 21.049999999999997
  endloop
endfacet
facet normal 8.448740219041805e-19 1.2199956055669435e-17 1.0
  outer loop
    vertex -345.95069766147543 -243.21627762759093 21.05
    vertex -335.80069766147545 -241.21627762759093 21.049999999999997
    vertex -345.95069766147543 -91.01627762759094 21.049999999999997
  endloop
endfacet
facet normal 8.448740219041805e-19 1.2199956055669435e-17 1.0
  outer loop
    vertex -335.80069766147545 -241.21627762759093 21.049999999999997
    vertex -345.95069766147543 -243.21627762759093 21.05
    vertex -193.95069766147546 -243.21627762759093 21.05
  endloop
endfacet
facet normal 8.448740219041805e-19 1.2199956055669435e-17 1.0
  outer loop
    vertex -335.80069766147545 -241.21627762759093 21.049999999999997
    vertex -193.95069766147546 -243.21627762759093 21.05
    vertex -204.1006976614755 -241.21627762759093 21.049999999999997
  endloop
endfacet
facet normal 8.448740219041805e-19 1.2199956055669435e-17 1.0
  outer loop
    vertex -204.1006976614755 -241.21627762759093 21.049999999999997
    vertex -193.95069766147546 -243.21627762759093 21.05
    vertex -204.1006976614755 -98.88027762759093 21.049999999999997
  endloop
endfacet
facet normal 8.448740219041805e-19 1.2199956055669435e-17 1.0
  outer loop
    vertex -345.95069766147543 -91.01627762759094 21.049999999999997
    vertex -335.80069766147545 -98.88027762759093 21.049999999999997
    vertex -193.95069766147546 -91.01627762759094 21.049999999999997
  endloop
endfacet
facet normal 8.448740219041805e-19 1.2199956055669435e-17 1.0
  outer loop
    vertex -335.80069766147545 -98.88027762759093 21.049999999999997
    vertex -345.95069766147543 -91.01627762759094 21.049999999999997
    vertex -335.80069766147545 -241.21627762759093 21.049999999999997
  endloop
endfacet
facet normal 8.448740219041805e-19 1.2199956055669435e-17 1.0
  outer loop
    vertex -193.95069766147546 -91.01627762759094 21.049999999999997
    vertex -335.80069766147545 -98.88027762759093 21.049999999999997
    vertex -204.1006976614755 -98.88027762759093 21.049999999999997
  endloop
endfacet
facet normal 8.448740219041805e-19 1.2199956055669435e-17 1.0
  outer loop
    vertex -193.95069766147546 -91.01627762759094 21.049999999999997
    vertex -204.1006976614755 -98.88027762759093 21.049999999999997
    vertex -193.95069766147546 -243.21627762759093 21.05
  endloop
endfacet
facet normal 4.073915976782093e-15 1.0 -1.3824309794806967e-15
  outer loop
    vertex -345.6506976614754 -173.86627762759085 18.75
    vertex -338.80069766147545 -173.86627762759093 0.0
    vertex -345.6506976614754 -173.86627762759093 0.0
  endloop
endfacet
facet normal 4.073915976782093e-15 1.0 -1.3824309794806967e-15
  outer loop
    vertex -338.80069766147545 -173.86627762759093 0.0
    vertex -345.6506976614754 -173.86627762759085 18.75
    vertex -338.80069766147545 -173.86627762759093 19.049999999999997
  endloop
endfacet
facet normal 4.073915976782093e-15 1.0 -1.3824309794806967e-15
  outer loop
    vertex -338.80069766147545 -173.86627762759093 19.049999999999997
    vertex -345.6506976614754 -173.86627762759085 18.75
    vertex -345.95069766147543 -173.86627762759085 19.049999999999997
  endloop
endfacet
facet normal 4.073915976782093e-15 1.0 -1.3824309794806967e-15
  outer loop
    vertex -338.80069766147545 -173.86627762759093 19.049999999999997
    vertex -345.95069766147543 -173.86627762759085 19.049999999999997
    vertex -345.6506976614754 -173.86627762759093 19.049999999999997
  endloop
endfacet
facet normal 3.26140902073085e-15 -1.0 1.0190165042014867e-17
  outer loop
    vertex -338.80069766147545 -185.56627762759092 19.049999999999997
    vertex -345.6506976614754 -185.56627762759095 0.0
    vertex -338.80069766147545 -185.56627762759092 0.0
  endloop
endfacet
facet normal 3.26140902073085e-15 -1.0 1.0190165042014867e-17
  outer loop
    vertex -345.6506976614754 -185.56627762759095 0.0
    vertex -338.80069766147545 -185.56627762759092 19.049999999999997
    vertex -345.6506976614754 -185.56627762759095 18.75
  endloop
endfacet
facet normal 3.26140902073085e-15 -1.0 1.0190165042014867e-17
  outer loop
    vertex -345.6506976614754 -185.56627762759095 18.75
    vertex -338.80069766147545 -185.56627762759092 19.049999999999997
    vertex -345.95069766147543 -185.56627762759095 19.049999999999997
  endloop
endfacet
facet normal 3.26140902073085e-15 -1.0 1.0190165042014867e-17
  outer loop
    vertex -345.95069766147543 -185.56627762759095 19.049999999999997
    vertex -338.80069766147545 -185.56627762759092 19.049999999999997
    vertex -345.6506976614754 -185.56627762759095 19.049999999999997
  endloop
endfacet
facet normal -1.0 0.0 0.0
  outer loop
    vertex -338.80069766147545 -185.56627762759092 19.049999999999997
    vertex -338.80069766147545 -243.21627762759093 0.0
    vertex -338.80069766147545 -243.21627762759093 19.049999999999997
  endloop
endfacet
facet normal -1.0 0.0 0.0
  outer loop
    vertex -338.80069766147545 -243.21627762759093 0.0
    vertex -338.80069766147545 -185.56627762759092 19.049999999999997
    vertex -338.80069766147545 -185.56627762759092 0.0
  endloop
endfacet
facet normal 1.3579719922606954e-15 1.0 4.608103264935662e-16
  outer loop
    vertex -201.10069766147544 -173.86627762759093 19.049999999999997
    vertex -194.25069766147547 -173.86627762759093 0.0
    vertex -201.10069766147544 -173.86627762759093 0.0
  endloop
endfacet
facet normal 1.3579719922606954e-15 1.0 4.608103264935662e-16
  outer loop
    vertex -194.25069766147547 -173.86627762759093 0.0
    vertex -201.10069766147544 -173.86627762759093 19.049999999999997
    vertex -194.25069766147547 -173.86627762759096 18.75
  endloop
endfacet
facet normal 1.3579719922606954e-15 1.0 4.608103264935662e-16
  outer loop
    vertex -194.25069766147547 -173.86627762759096 18.75
    vertex -201.10069766147544 -173.86627762759093 19.049999999999997
    vertex -193.95069766147546 -173.86627762759096 19.049999999999997
  endloop
endfacet
facet normal 1.3579719922606954e-15 1.0 4.608103264935662e-16
  outer loop
    vertex -193.95069766147546 -173.86627762759096 19.049999999999997
    vertex -201.10069766147544 -173.86627762759093 19.049999999999997
    vertex -194.25069766147547 -173.86627762759093 19.049999999999997
  endloop
endfacet
facet normal 3.2614090207308525e-15 -1.0 -1.0190165042014211e-17
  outer loop
    vertex -194.25069766147547 -185.5662776275909 18.75
    vertex -201.10069766147544 -185.56627762759092 0.0
    vertex -194.25069766147547 -185.5662776275909 0.0
  endloop
endfacet
facet normal 3.2614090207308525e-15 -1.0 -1.0190165042014211e-17
  outer loop
    vertex -201.10069766147544 -185.56627762759092 0.0
    vertex -194.25069766147547 -185.5662776275909 18.75
    vertex -201.10069766147544 -185.56627762759092 19.049999999999997
  endloop
endfacet
facet normal 3.2614090207308525e-15 -1.0 -1.0190165042014211e-17
  outer loop
    vertex -201.10069766147544 -185.56627762759092 19.049999999999997
    vertex -194.25069766147547 -185.5662776275909 18.75
    vertex -193.95069766147546 -185.5662776275909 19.049999999999997
  endloop
endfacet
facet normal 3.2614090207308525e-15 -1.0 -1.0190165042014211e-17
  outer loop
    vertex -201.10069766147544 -185.56627762759092 19.049999999999997
    vertex -193.95069766147546 -185.5662776275909 19.049999999999997
    vertex -194.25069766147547 -185.5662776275909 19.049999999999997
  endloop
endfacet
facet normal 1.0 0.0 0.0
  outer loop
    vertex -201.10069766147544 -98.16627762759093 0.0
    vertex -201.10069766147544 -173.86627762759093 19.049999999999997
    vertex -201.10069766147544 -173.86627762759093 0.0
  endloop
endfacet
facet normal 1.0 0.0 0.0
  outer loop
    vertex -201.10069766147544 -173.86627762759093 19.049999999999997
    vertex -201.10069766147544 -98.16627762759093 0.0
    vertex -201.10069766147544 -98.16627762759093 19.049999999999997
  endloop
endfacet
facet normal 1.0 0.0 0.0
  outer loop
    vertex -187.40069766147548 -243.21627762759093 0.0
    vertex -187.40069766147548 -246.21627762759093 23.336
    vertex -187.40069766147548 -246.21627762759093 0.0
  endloop
endfacet
facet normal 1.0 0.0 0.0
  outer loop
    vertex -187.40069766147548 -246.21627762759093 23.336
    vertex -187.40069766147548 -243.21627762759093 0.0
    vertex -187.40069766147548 -243.21627762759093 23.336
  endloop
endfacet
facet normal -1.0 0.0 0.0
  outer loop
    vertex -352.50069766147544 -243.21627762759093 23.336
    vertex -352.50069766147544 -246.21627762759093 0.0
    vertex -352.50069766147544 -246.21627762759093 23.336
  endloop
endfacet
facet normal -1.0 0.0 0.0
  outer loop
    vertex -352.50069766147544 -246.21627762759093 0.0
    vertex -352.50069766147544 -243.21627762759093 23.336
    vertex -352.50069766147544 -243.21627762759093 0.0
  endloop
endfacet
facet normal 1.0 0.0 0.0
  outer loop
    vertex -194.25069766147547 -173.86627762759093 0.0
    vertex -194.25069766147547 -185.5662776275909 18.75
    vertex -194.25069766147547 -185.5662776275909 0.0
  endloop
endfacet
facet normal 1.0 0.0 0.0
  outer loop
    vertex -194.25069766147547 -185.5662776275909 18.75
    vertex -194.25069766147547 -173.86627762759093 0.0
    vertex -194.25069766147547 -173.86627762759096 18.75
  endloop
endfacet
facet normal 0.0 0.0 -1.0
  outer loop
    vertex -345.6506976614754 -185.56627762759095 19.049999999999997
    vertex -345.95069766147543 -243.21627762759093 19.049999999999997
    vertex -345.95069766147543 -185.56627762759095 19.049999999999997
  endloop
endfacet
facet normal 0.0 0.0 -1.0
  outer loop
    vertex -345.95069766147543 -243.21627762759093 19.049999999999997
    vertex -345.6506976614754 -185.56627762759095 19.049999999999997
    vertex -338.80069766147545 -243.21627762759093 19.049999999999997
  endloop
endfacet
facet normal 0.0 0.0 -1.0
  outer loop
    vertex -338.80069766147545 -243.21627762759093 19.049999999999997
    vertex -345.6506976614754 -185.56627762759095 19.049999999999997
    vertex -338.80069766147545 -185.56627762759092 19.049999999999997
  endloop
endfacet
facet normal -1.0 0.0 0.0
  outer loop
    vertex -345.95069766147543 -91.01627762759094 21.049999999999997
    vertex -345.95069766147543 -243.21627762759093 19.049999999999997
    vertex -345.95069766147543 -243.21627762759093 21.05
  endloop
endfacet
facet normal -1.0 0.0 0.0
  outer loop
    vertex -345.95069766147543 -243.21627762759093 19.049999999999997
    vertex -345.95069766147543 -91.01627762759094 21.049999999999997
    vertex -345.95069766147543 -185.56627762759095 19.049999999999997
  endloop
endfacet
facet normal -1.0 0.0 0.0
  outer loop
    vertex -345.95069766147543 -185.56627762759095 19.049999999999997
    vertex -345.95069766147543 -91.01627762759094 21.049999999999997
    vertex -345.95069766147543 -173.86627762759085 19.049999999999997
  endloop
endfacet
facet normal -1.0 0.0 0.0
  outer loop
    vertex -345.95069766147543 -173.86627762759085 19.049999999999997
    vertex -345.95069766147543 -91.01627762759094 21.049999999999997
    vertex -345.95069766147543 -91.01627762759094 19.049999999999997
  endloop
endfacet
facet normal -1.0 0.0 0.0
  outer loop
    vertex -345.6506976614754 -173.86627762759085 18.75
    vertex -345.6506976614754 -185.56627762759095 0.0
    vertex -345.6506976614754 -185.56627762759095 18.75
  endloop
endfacet
facet normal -1.0 0.0 0.0
  outer loop
    vertex -345.6506976614754 -185.56627762759095 0.0
    vertex -345.6506976614754 -173.86627762759085 18.75
    vertex -345.6506976614754 -173.86627762759093 0.0
  endloop
endfacet
facet normal 0.0 0.0 -1.0
  outer loop
    vertex -194.25069766147547 -185.5662776275909 19.049999999999997
    vertex -201.10069766147544 -243.21627762759093 19.049999999999997
    vertex -201.10069766147544 -185.56627762759092 19.049999999999997
  endloop
endfacet
facet normal 0.0 0.0 -1.0
  outer loop
    vertex -201.10069766147544 -243.21627762759093 19.049999999999997
    vertex -194.25069766147547 -185.5662776275909 19.049999999999997
    vertex -193.95069766147546 -243.21627762759093 19.049999999999997
  endloop
endfacet
facet normal 0.0 0.0 -1.0
  outer loop
    vertex -193.95069766147546 -243.21627762759093 19.049999999999997
    vertex -194.25069766147547 -185.5662776275909 19.049999999999997
    vertex -193.95069766147546 -185.5662776275909 19.049999999999997
  endloop
endfacet
facet normal 0.0 0.0 -1.0
  outer loop
    vertex -193.95069766147546 -173.86627762759096 19.049999999999997
    vertex -194.25069766147547 -185.5662776275909 19.049999999999997
    vertex -194.25069766147547 -173.86627762759093 19.049999999999997
  endloop
endfacet
facet normal 0.0 0.0 -1.0
  outer loop
    vertex -194.25069766147547 -185.5662776275909 19.049999999999997
    vertex -193.95069766147546 -173.86627762759096 19.049999999999997
    vertex -193.95069766147546 -185.5662776275909 19.049999999999997
  endloop
endfacet
facet normal 0.7071067811865476 0.0 -0.7071067811865476
  outer loop
    vertex -194.25069766147547 -173.86627762759096 18.75
    vertex -193.95069766147546 -185.5662776275909 19.049999999999997
    vertex -194.25069766147547 -185.5662776275909 18.75
  endloop
endfacet
facet normal 0.7071067811865476 0.0 -0.7071067811865476
  outer loop
    vertex -193.95069766147546 -185.5662776275909 19.049999999999997
    vertex -194.25069766147547 -173.86627762759096 18.75
    vertex -193.95069766147546 -173.86627762759096 19.049999999999997
  endloop
endfacet
facet normal 0.0 0.0 -1.0
  outer loop
    vertex -345.95069766147543 -91.01627762759094 19.049999999999997
    vertex -338.80069766147545 -98.16627762759093 19.049999999999997
    vertex -345.95069766147543 -173.86627762759085 19.049999999999997
  endloop
endfacet
facet normal 0.0 0.0 -1.0
  outer loop
    vertex -338.80069766147545 -98.16627762759093 19.049999999999997
    vertex -345.95069766147543 -91.01627762759094 19.049999999999997
    vertex -193.95069766147546 -91.01627762759094 19.049999999999997
  endloop
endfacet
facet normal 0.0 0.0 -1.0
  outer loop
    vertex -345.95069766147543 -173.86627762759085 19.049999999999997
    vertex -338.80069766147545 -98.16627762759093 19.049999999999997
    vertex -345.6506976614754 -173.86627762759093 19.049999999999997
  endloop
endfacet
facet normal 0.0 0.0 -1.0
  outer loop
    vertex -338.80069766147545 -98.16627762759093 19.049999999999997
    vertex -193.95069766147546 -91.01627762759094 19.049999999999997
    vertex -201.10069766147544 -98.16627762759093 19.049999999999997
  endloop
endfacet
facet normal 0.0 0.0 -1.0
  outer loop
    vertex -201.10069766147544 -98.16627762759093 19.049999999999997
    vertex -193.95069766147546 -91.01627762759094 19.049999999999997
    vertex -201.10069766147544 -173.86627762759093 19.049999999999997
  endloop
endfacet
facet normal 0.0 0.0 -1.0
  outer loop
    vertex -201.10069766147544 -173.86627762759093 19.049999999999997
    vertex -193.95069766147546 -91.01627762759094 19.049999999999997
    vertex -194.25069766147547 -173.86627762759093 19.049999999999997
  endloop
endfacet
facet normal 0.0 0.0 -1.0
  outer loop
    vertex -194.25069766147547 -173.86627762759093 19.049999999999997
    vertex -193.95069766147546 -91.01627762759094 19.049999999999997
    vertex -193.95069766147546 -173.86627762759096 19.049999999999997
  endloop
endfacet
facet normal 0.0 0.0 -1.0
  outer loop
    vertex -338.80069766147545 -173.86627762759093 19.049999999999997
    vertex -345.6506976614754 -173.86627762759093 19.049999999999997
    vertex -338.80069766147545 -98.16627762759093 19.049999999999997
  endloop
endfacet
facet normal 0.0 0.0 -1.0
  outer loop
    vertex -345.6506976614754 -173.86627762759093 19.049999999999997
    vertex -345.95069766147543 -185.56627762759095 19.049999999999997
    vertex -345.95069766147543 -173.86627762759085 19.049999999999997
  endloop
endfacet
facet normal 0.0 0.0 -1.0
  outer loop
    vertex -345.95069766147543 -185.56627762759095 19.049999999999997
    vertex -345.6506976614754 -173.86627762759093 19.049999999999997
    vertex -345.6506976614754 -185.56627762759095 19.049999999999997
  endloop
endfacet
facet normal -0.7071067811865209 0.0 -0.7071067811865741
  outer loop
    vertex -345.6506976614754 -173.86627762759085 18.75
    vertex -345.95069766147543 -185.56627762759095 19.049999999999997
    vertex -345.95069766147543 -173.86627762759085 19.049999999999997
  endloop
endfacet
facet normal -0.7071067811865209 0.0 -0.7071067811865741
  outer loop
    vertex -345.95069766147543 -185.56627762759095 19.049999999999997
    vertex -345.6506976614754 -173.86627762759085 18.75
    vertex -345.6506976614754 -185.56627762759095 18.75
  endloop
endfacet
endsolid Enclosure
