solid Enclosure
facet normal 0.38268343236511887 -0.9238795325112749 0.0
  outer loop
    vertex -329.5370565831532 -162.88781814905659 4.999999999999957
    vertex -329.94706420647884 -163.05764886731444 -4.2299497238218464e-14
    vertex -329.5370565831532 -162.88781814905659 -4.2299497238218464e-14
  endloop
endfacet
facet normal 0.38268343236511887 -0.9238795325112749 0.0
  outer loop
    vertex -329.94706420647884 -163.05764886731444 -4.2299497238218464e-14
    vertex -329.5370565831532 -162.88781814905659 4.999999999999957
    vertex -329.94706420647884 -163.05764886731444 4.999999999999957
  endloop
endfacet
facet normal -0.9238795325112958 0.38268343236506797 0.0
  outer loop
    vertex -327.4549903017874 -164.9698844304223 4.999999999999957
    vertex -327.62482102004526 -165.379892053748 -4.2299497238218464e-14
    vertex -327.62482102004526 -165.379892053748 4.999999999999957
  endloop
endfacet
facet normal -0.9238795325112958 0.38268343236506797 0.0
  outer loop
    vertex -327.62482102004526 -165.379892053748 -4.2299497238218464e-14
    vertex -327.4549903017874 -164.9698844304223 4.999999999999957
    vertex -327.4549903017874 -164.9698844304223 -4.2299497238218464e-14
  endloop
endfacet
facet normal -0.38268343236511343 0.923879532511277 0.0
  outer loop
    vertex -328.6570718298046 -166.17196595843942 4.999999999999957
    vertex -328.2470642064789 -166.00213524018153 -4.2299497238218464e-14
    vertex -328.6570718298046 -166.17196595843942 -4.2299497238218464e-14
  endloop
endfacet
facet normal -0.38268343236511343 0.923879532511277 0.0
  outer loop
    vertex -328.2470642064789 -166.00213524018153 -4.2299497238218464e-14
    vertex -328.6570718298046 -166.17196595843942 4.999999999999957
    vertex -328.2470642064789 -166.00213524018153 4.999999999999957
  endloop
endfacet
facet normal 0.9238795325112958 -0.38268343236506797 0.0
  outer loop
    vertex -330.56930739291244 -163.679892053748 -4.2299497238218464e-14
    vertex -330.7391381111703 -164.0898996770737 4.999999999999957
    vertex -330.7391381111703 -164.0898996770737 -4.2299497238218464e-14
  endloop
endfacet
facet normal 0.9238795325112958 -0.38268343236506797 0.0
  outer loop
    vertex -330.7391381111703 -164.0898996770737 4.999999999999957
    vertex -330.56930739291244 -163.679892053748 -4.2299497238218464e-14
    vertex -330.56930739291244 -163.679892053748 4.999999999999957
  endloop
endfacet
facet normal -0.13052619222004638 0.991444861373811 0.0
  outer loop
    vertex -329.0970642064789 -166.229892053748 4.999999999999957
    vertex -328.6570718298046 -166.17196595843942 -4.2299497238218464e-14
    vertex -329.0970642064789 -166.229892053748 -4.2299497238218464e-14
  endloop
endfacet
facet normal -0.13052619222004638 0.991444861373811 0.0
  outer loop
    vertex -328.6570718298046 -166.17196595843942 -4.2299497238218464e-14
    vertex -329.0970642064789 -166.229892053748 4.999999999999957
    vertex -328.6570718298046 -166.17196595843942 4.999999999999957
  endloop
endfacet
facet normal 0.793353340291197 -0.6087614290087705 0.0
  outer loop
    vertex -330.299145734496 -163.32781052573085 -4.2299497238218464e-14
    vertex -330.56930739291244 -163.679892053748 4.999999999999957
    vertex -330.56930739291244 -163.679892053748 -4.2299497238218464e-14
  endloop
endfacet
facet normal 0.793353340291197 -0.6087614290087705 0.0
  outer loop
    vertex -330.56930739291244 -163.679892053748 4.999999999999957
    vertex -330.299145734496 -163.32781052573085 -4.2299497238218464e-14
    vertex -330.299145734496 -163.32781052573085 4.999999999999957
  endloop
endfacet
facet normal 0.13052619222004638 0.991444861373811 0.0
  outer loop
    vertex -329.5370565831532 -166.17196595843942 4.999999999999957
    vertex -329.0970642064789 -166.229892053748 -4.2299497238218464e-14
    vertex -329.5370565831532 -166.17196595843942 -4.2299497238218464e-14
  endloop
endfacet
facet normal 0.13052619222004638 0.991444861373811 0.0
  outer loop
    vertex -329.0970642064789 -166.229892053748 -4.2299497238218464e-14
    vertex -329.5370565831532 -166.17196595843942 4.999999999999957
    vertex -329.0970642064789 -166.229892053748 4.999999999999957
  endloop
endfacet
facet normal -0.9914448613738268 -0.13052619221992806 -0.0
  outer loop
    vertex -327.4549903017874 -164.0898996770737 4.999999999999957
    vertex -327.3970642064789 -164.529892053748 -4.2299497238218464e-14
    vertex -327.3970642064789 -164.529892053748 4.999999999999957
  endloop
endfacet
facet normal -0.9914448613738268 -0.13052619221992806 -0.0
  outer loop
    vertex -327.3970642064789 -164.529892053748 -4.2299497238218464e-14
    vertex -327.4549903017874 -164.0898996770737 4.999999999999957
    vertex -327.4549903017874 -164.0898996770737 -4.2299497238218464e-14
  endloop
endfacet
facet normal 0.6087614290086979 -0.7933533402912526 0.0
  outer loop
    vertex -329.94706420647884 -163.05764886731444 4.999999999999957
    vertex -330.299145734496 -163.32781052573085 -4.2299497238218464e-14
    vertex -329.94706420647884 -163.05764886731444 -4.2299497238218464e-14
  endloop
endfacet
facet normal 0.6087614290086979 -0.7933533402912526 0.0
  outer loop
    vertex -330.299145734496 -163.32781052573085 -4.2299497238218464e-14
    vertex -329.94706420647884 -163.05764886731444 4.999999999999957
    vertex -330.299145734496 -163.32781052573085 4.999999999999957
  endloop
endfacet
facet normal -0.13052619222004638 -0.991444861373811 -0.0
  outer loop
    vertex -328.6570718298046 -162.88781814905659 4.999999999999957
    vertex -329.0970642064789 -162.829892053748 -4.2299497238218464e-14
    vertex -328.6570718298046 -162.88781814905659 -4.2299497238218464e-14
  endloop
endfacet
facet normal -0.13052619222004638 -0.991444861373811 -0.0
  outer loop
    vertex -329.0970642064789 -162.829892053748 -4.2299497238218464e-14
    vertex -328.6570718298046 -162.88781814905659 4.999999999999957
    vertex -329.0970642064789 -162.829892053748 4.999999999999957
  endloop
endfacet
facet normal 0.13052619222004638 -0.991444861373811 0.0
  outer loop
    vertex -329.0970642064789 -162.829892053748 4.999999999999957
    vertex -329.5370565831532 -162.88781814905659 -4.2299497238218464e-14
    vertex -329.0970642064789 -162.829892053748 -4.2299497238218464e-14
  endloop
endfacet
facet normal 0.13052619222004638 -0.991444861373811 0.0
  outer loop
    vertex -329.5370565831532 -162.88781814905659 -4.2299497238218464e-14
    vertex -329.0970642064789 -162.829892053748 4.999999999999957
    vertex -329.5370565831532 -162.88781814905659 4.999999999999957
  endloop
endfacet
facet normal -0.38268343236511887 -0.9238795325112749 -0.0
  outer loop
    vertex -328.2470642064789 -163.05764886731444 4.999999999999957
    vertex -328.6570718298046 -162.88781814905659 -4.2299497238218464e-14
    vertex -328.2470642064789 -163.05764886731444 -4.2299497238218464e-14
  endloop
endfacet
facet normal -0.38268343236511887 -0.9238795325112749 -0.0
  outer loop
    vertex -328.6570718298046 -162.88781814905659 -4.2299497238218464e-14
    vertex -328.2470642064789 -163.05764886731444 4.999999999999957
    vertex -328.6570718298046 -162.88781814905659 4.999999999999957
  endloop
endfacet
facet normal -0.7933533402911994 -0.6087614290087674 -0.0
  outer loop
    vertex -327.89498267846176 -163.32781052573085 4.999999999999957
    vertex -327.62482102004526 -163.679892053748 -4.2299497238218464e-14
    vertex -327.62482102004526 -163.679892053748 4.999999999999957
  endloop
endfacet
facet normal -0.7933533402911994 -0.6087614290087674 -0.0
  outer loop
    vertex -327.62482102004526 -163.679892053748 -4.2299497238218464e-14
    vertex -327.89498267846176 -163.32781052573085 4.999999999999957
    vertex -327.89498267846176 -163.32781052573085 -4.2299497238218464e-14
  endloop
endfacet
facet normal -0.923879532511295 -0.38268343236507024 -0.0
  outer loop
    vertex -327.62482102004526 -163.679892053748 4.999999999999957
    vertex -327.4549903017874 -164.0898996770737 -4.2299497238218464e-14
    vertex -327.4549903017874 -164.0898996770737 4.999999999999957
  endloop
endfacet
facet normal -0.923879532511295 -0.38268343236507024 -0.0
  outer loop
    vertex -327.4549903017874 -164.0898996770737 -4.2299497238218464e-14
    vertex -327.62482102004526 -163.679892053748 4.999999999999957
    vertex -327.62482102004526 -163.679892053748 -4.2299497238218464e-14
  endloop
endfacet
facet normal -0.6087614290086979 0.7933533402912526 0.0
  outer loop
    vertex -328.2470642064789 -166.00213524018153 4.999999999999957
    vertex -327.89498267846176 -165.73197358176512 -4.2299497238218464e-14
    vertex -328.2470642064789 -166.00213524018153 -4.2299497238218464e-14
  endloop
endfacet
facet normal -0.6087614290086979 0.7933533402912526 0.0
  outer loop
    vertex -327.89498267846176 -165.73197358176512 -4.2299497238218464e-14
    vertex -328.2470642064789 -166.00213524018153 4.999999999999957
    vertex -327.89498267846176 -165.73197358176512 4.999999999999957
  endloop
endfacet
facet normal -0.9914448613738268 0.13052619221992806 0.0
  outer loop
    vertex -327.3970642064789 -164.529892053748 4.999999999999957
    vertex -327.4549903017874 -164.9698844304223 -4.2299497238218464e-14
    vertex -327.4549903017874 -164.9698844304223 4.999999999999957
  endloop
endfacet
facet normal -0.9914448613738268 0.13052619221992806 0.0
  outer loop
    vertex -327.4549903017874 -164.9698844304223 -4.2299497238218464e-14
    vertex -327.3970642064789 -164.529892053748 4.999999999999957
    vertex -327.3970642064789 -164.529892053748 -4.2299497238218464e-14
  endloop
endfacet
facet normal 0.9914448613738268 -0.13052619221992806 0.0
  outer loop
    vertex -330.7391381111703 -164.0898996770737 -4.2299497238218464e-14
    vertex -330.79706420647886 -164.529892053748 4.999999999999957
    vertex -330.79706420647886 -164.529892053748 -4.2299497238218464e-14
  endloop
endfacet
facet normal 0.9914448613738268 -0.13052619221992806 0.0
  outer loop
    vertex -330.79706420647886 -164.529892053748 4.999999999999957
    vertex -330.7391381111703 -164.0898996770737 -4.2299497238218464e-14
    vertex -330.7391381111703 -164.0898996770737 4.999999999999957
  endloop
endfacet
facet normal -0.6087614290086979 -0.7933533402912526 -0.0
  outer loop
    vertex -327.89498267846176 -163.32781052573085 4.999999999999957
    vertex -328.2470642064789 -163.05764886731444 -4.2299497238218464e-14
    vertex -327.89498267846176 -163.32781052573085 -4.2299497238218464e-14
  endloop
endfacet
facet normal -0.6087614290086979 -0.7933533402912526 -0.0
  outer loop
    vertex -328.2470642064789 -163.05764886731444 -4.2299497238218464e-14
    vertex -327.89498267846176 -163.32781052573085 4.999999999999957
    vertex -328.2470642064789 -163.05764886731444 4.999999999999957
  endloop
endfacet
facet normal -0.7933533402911994 0.6087614290087674 0.0
  outer loop
    vertex -327.62482102004526 -165.379892053748 4.999999999999957
    vertex -327.89498267846176 -165.73197358176512 -4.2299497238218464e-14
    vertex -327.89498267846176 -165.73197358176512 4.999999999999957
  endloop
endfacet
facet normal -0.7933533402911994 0.6087614290087674 0.0
  outer loop
    vertex -327.89498267846176 -165.73197358176512 -4.2299497238218464e-14
    vertex -327.62482102004526 -165.379892053748 4.999999999999957
    vertex -327.62482102004526 -165.379892053748 -4.2299497238218464e-14
  endloop
endfacet
facet normal 0.38268343236511887 0.9238795325112749 0.0
  outer loop
    vertex -329.94706420647884 -166.00213524018153 4.999999999999957
    vertex -329.5370565831532 -166.17196595843942 -4.2299497238218464e-14
    vertex -329.94706420647884 -166.00213524018153 -4.2299497238218464e-14
  endloop
endfacet
facet normal 0.38268343236511887 0.9238795325112749 0.0
  outer loop
    vertex -329.5370565831532 -166.17196595843942 -4.2299497238218464e-14
    vertex -329.94706420647884 -166.00213524018153 4.999999999999957
    vertex -329.5370565831532 -166.17196595843942 4.999999999999957
  endloop
endfacet
facet normal 0.6087614290086979 0.7933533402912526 0.0
  outer loop
    vertex -330.299145734496 -165.73197358176512 4.999999999999957
    vertex -329.94706420647884 -166.00213524018153 -4.2299497238218464e-14
    vertex -330.299145734496 -165.73197358176512 -4.2299497238218464e-14
  endloop
endfacet
facet normal 0.6087614290086979 0.7933533402912526 0.0
  outer loop
    vertex -329.94706420647884 -166.00213524018153 -4.2299497238218464e-14
    vertex -330.299145734496 -165.73197358176512 4.999999999999957
    vertex -329.94706420647884 -166.00213524018153 4.999999999999957
  endloop
endfacet
facet normal 0.923879532511295 0.38268343236507024 0.0
  outer loop
    vertex -330.7391381111703 -164.9698844304223 -4.2299497238218464e-14
    vertex -330.56930739291244 -165.379892053748 4.999999999999957
    vertex -330.56930739291244 -165.379892053748 -4.2299497238218464e-14
  endloop
endfacet
facet normal 0.923879532511295 0.38268343236507024 0.0
  outer loop
    vertex -330.56930739291244 -165.379892053748 4.999999999999957
    vertex -330.7391381111703 -164.9698844304223 -4.2299497238218464e-14
    vertex -330.7391381111703 -164.9698844304223 4.999999999999957
  endloop
endfacet
facet normal 0.9914448613738268 0.13052619221992806 0.0
  outer loop
    vertex -330.79706420647886 -164.529892053748 -4.2299497238218464e-14
    vertex -330.7391381111703 -164.9698844304223 4.999999999999957
    vertex -330.7391381111703 -164.9698844304223 -4.2299497238218464e-14
  endloop
endfacet
facet normal 0.9914448613738268 0.13052619221992806 0.0
  outer loop
    vertex -330.7391381111703 -164.9698844304223 4.999999999999957
    vertex -330.79706420647886 -164.529892053748 -4.2299497238218464e-14
    vertex -330.79706420647886 -164.529892053748 4.999999999999957
  endloop
endfacet
facet normal 0.7933533402911994 0.6087614290087674 0.0
  outer loop
    vertex -330.56930739291244 -165.379892053748 -4.2299497238218464e-14
    vertex -330.299145734496 -165.73197358176512 4.999999999999957
    vertex -330.299145734496 -165.73197358176512 -4.2299497238218464e-14
  endloop
endfacet
facet normal 0.7933533402911994 0.6087614290087674 0.0
  outer loop
    vertex -330.299145734496 -165.73197358176512 4.999999999999957
    vertex -330.56930739291244 -165.379892053748 -4.2299497238218464e-14
    vertex -330.56930739291244 -165.379892053748 4.999999999999957
  endloop
endfacet
facet normal -5.639932965095753e-16 0.0 1.0
  outer loop
    vertex -324.0970642064788 -77.1298920537478 8.237499999999985
    vertex -334.09706420647893 -65.1298920537478 8.237499999999985
    vertex -334.09706420647893 -77.1298920537478 8.237499999999985
  endloop
endfacet
facet normal -5.639932965095753e-16 0.0 1.0
  outer loop
    vertex -334.09706420647893 -65.1298920537478 8.237499999999985
    vertex -324.0970642064788 -77.1298920537478 8.237499999999985
    vertex -324.0970642064788 -65.1298920537478 8.237499999999985
  endloop
endfacet
facet normal 0.0 1.0 0.0
  outer loop
    vertex -334.09706420647893 -65.1298920537478 8.237499999999985
    vertex -324.0970642064788 -65.1298920537478 4.999999999999961
    vertex -334.0970642064788 -65.1298920537478 4.999999999999961
  endloop
endfacet
facet normal 0.0 1.0 0.0
  outer loop
    vertex -324.0970642064788 -65.1298920537478 4.999999999999961
    vertex -334.09706420647893 -65.1298920537478 8.237499999999985
    vertex -324.0970642064788 -65.1298920537478 8.237499999999985
  endloop
endfacet
facet normal -1.0 -1.1473567807871943e-16 -7.47234467584875e-15
  outer loop
    vertex -334.09706420647893 -65.1298920537478 8.237499999999985
    vertex -334.09706420647893 -77.1298920537478 4.999999999999954
    vertex -334.09706420647893 -77.1298920537478 8.237499999999985
  endloop
endfacet
facet normal -1.0 -1.1473567807871943e-16 -7.47234467584875e-15
  outer loop
    vertex -334.09706420647893 -77.1298920537478 4.999999999999954
    vertex -334.09706420647893 -65.1298920537478 8.237499999999985
    vertex -334.0970642064788 -70.12989205374781 -3.947953075567056e-14
  endloop
endfacet
facet normal -1.0 -1.1473567807871943e-16 -7.47234467584875e-15
  outer loop
    vertex -334.0970642064788 -70.12989205374781 -3.947953075567056e-14
    vertex -334.09706420647893 -65.1298920537478 8.237499999999985
    vertex -334.0970642064788 -65.1298920537478 4.999999999999961
  endloop
endfacet
facet normal -1.0 -1.1473567807871943e-16 -7.47234467584875e-15
  outer loop
    vertex -334.09706420647893 -182.529892053748 8.23749999999998
    vertex -334.0970642064788 -194.529892053748 4.99999999999996
    vertex -334.09706420647893 -194.529892053748 8.23749999999998
  endloop
endfacet
facet normal -1.0 -1.1473567807871943e-16 -7.47234467584875e-15
  outer loop
    vertex -334.0970642064788 -194.529892053748 4.99999999999996
    vertex -334.09706420647893 -182.529892053748 8.23749999999998
    vertex -334.0970642064788 -189.529892053748 -3.947953075567056e-14
  endloop
endfacet
facet normal -1.0 -1.1473567807871943e-16 -7.47234467584875e-15
  outer loop
    vertex -334.0970642064788 -189.529892053748 -3.947953075567056e-14
    vertex -334.09706420647893 -182.529892053748 8.23749999999998
    vertex -334.09706420647893 -182.529892053748 4.99999999999996
  endloop
endfacet
facet normal -1.0 -1.1473567807871943e-16 -7.47234467584875e-15
  outer loop
    vertex -334.0970642064788 -189.529892053748 -3.947953075567056e-14
    vertex -334.09706420647893 -182.529892053748 4.99999999999996
    vertex -334.0970642064788 -70.12989205374781 -3.947953075567056e-14
  endloop
endfacet
facet normal -1.0 -1.1473567807871943e-16 -7.47234467584875e-15
  outer loop
    vertex -334.0970642064788 -70.12989205374781 -3.947953075567056e-14
    vertex -334.09706420647893 -182.529892053748 4.99999999999996
    vertex -334.09706420647893 -77.1298920537478 4.999999999999954
  endloop
endfacet
facet normal 0.0 0.0 1.0
  outer loop
    vertex -324.0970642064788 -194.529892053748 8.23749999999998
    vertex -334.09706420647893 -182.529892053748 8.23749999999998
    vertex -334.09706420647893 -194.529892053748 8.23749999999998
  endloop
endfacet
facet normal 0.0 0.0 1.0
  outer loop
    vertex -334.09706420647893 -182.529892053748 8.23749999999998
    vertex -324.0970642064788 -194.529892053748 8.23749999999998
    vertex -324.0970642064788 -182.529892053748 8.23749999999998
  endloop
endfacet
facet normal 0.0 -1.0 0.0
  outer loop
    vertex -324.0970642064788 -77.1298920537478 4.99999999999996
    vertex -334.09706420647893 -77.1298920537478 8.237499999999985
    vertex -334.09706420647893 -77.1298920537478 4.999999999999954
  endloop
endfacet
facet normal 0.0 -1.0 0.0
  outer loop
    vertex -334.09706420647893 -77.1298920537478 8.237499999999985
    vertex -324.0970642064788 -77.1298920537478 4.99999999999996
    vertex -324.0970642064788 -77.1298920537478 8.237499999999985
  endloop
endfacet
facet normal 2.1149748619109077e-16 1.0 0.0
  outer loop
    vertex -334.09706420647893 -182.529892053748 8.23749999999998
    vertex -324.0970642064788 -182.529892053748 4.99999999999996
    vertex -334.09706420647893 -182.529892053748 4.99999999999996
  endloop
endfacet
facet normal 2.1149748619109077e-16 1.0 0.0
  outer loop
    vertex -324.0970642064788 -182.529892053748 4.99999999999996
    vertex -334.09706420647893 -182.529892053748 8.23749999999998
    vertex -324.0970642064788 -182.529892053748 8.23749999999998
  endloop
endfacet
facet normal 0.0 -1.0 0.0
  outer loop
    vertex -324.0970642064788 -194.529892053748 8.23749999999998
    vertex -334.0970642064788 -194.529892053748 4.99999999999996
    vertex -324.0970642064788 -194.529892053748 4.99999999999996
  endloop
endfacet
facet normal 0.0 -1.0 0.0
  outer loop
    vertex -334.0970642064788 -194.529892053748 4.99999999999996
    vertex -324.0970642064788 -194.529892053748 8.23749999999998
    vertex -334.09706420647893 -194.529892053748 8.23749999999998
  endloop
endfacet
facet normal -2.819966482547877e-16 2.6754900213926868e-17 1.0
  outer loop
    vertex -334.09706420647893 -182.529892053748 4.99999999999996
    vertex -330.79706420647886 -164.529892053748 4.999999999999957
    vertex -334.09706420647893 -77.1298920537478 4.999999999999954
  endloop
endfacet
facet normal -2.819966482547877e-16 2.6754900213926868e-17 1.0
  outer loop
    vertex -330.79706420647886 -164.529892053748 4.999999999999957
    vertex -334.09706420647893 -182.529892053748 4.99999999999996
    vertex -330.7391381111703 -164.9698844304223 4.999999999999957
  endloop
endfacet
facet normal -2.819966482547877e-16 2.6754900213926868e-17 1.0
  outer loop
    vertex -330.7391381111703 -164.9698844304223 4.999999999999957
    vertex -334.09706420647893 -182.529892053748 4.99999999999996
    vertex -324.0970642064788 -182.529892053748 4.99999999999996
  endloop
endfacet
facet normal -2.819966482547877e-16 2.6754900213926868e-17 1.0
  outer loop
    vertex -330.7391381111703 -164.9698844304223 4.999999999999957
    vertex -324.0970642064788 -182.529892053748 4.99999999999996
    vertex -330.56930739291244 -165.379892053748 4.999999999999957
  endloop
endfacet
facet normal -2.819966482547877e-16 2.6754900213926868e-17 1.0
  outer loop
    vertex -330.56930739291244 -165.379892053748 4.999999999999957
    vertex -324.0970642064788 -182.529892053748 4.99999999999996
    vertex -330.299145734496 -165.73197358176512 4.999999999999957
  endloop
endfacet
facet normal -2.819966482547877e-16 2.6754900213926868e-17 1.0
  outer loop
    vertex -330.299145734496 -165.73197358176512 4.999999999999957
    vertex -324.0970642064788 -182.529892053748 4.99999999999996
    vertex -329.94706420647884 -166.00213524018153 4.999999999999957
  endloop
endfacet
facet normal -2.819966482547877e-16 2.6754900213926868e-17 1.0
  outer loop
    vertex -329.94706420647884 -166.00213524018153 4.999999999999957
    vertex -324.0970642064788 -182.529892053748 4.99999999999996
    vertex -329.5370565831532 -166.17196595843942 4.999999999999957
  endloop
endfacet
facet normal -2.819966482547877e-16 2.6754900213926868e-17 1.0
  outer loop
    vertex -329.5370565831532 -166.17196595843942 4.999999999999957
    vertex -324.0970642064788 -182.529892053748 4.99999999999996
    vertex -329.0970642064789 -166.229892053748 4.999999999999957
  endloop
endfacet
facet normal -2.819966482547877e-16 2.6754900213926868e-17 1.0
  outer loop
    vertex -329.0970642064789 -166.229892053748 4.999999999999957
    vertex -324.0970642064788 -182.529892053748 4.99999999999996
    vertex -328.6570718298046 -166.17196595843942 4.999999999999957
  endloop
endfacet
facet normal -2.819966482547877e-16 2.6754900213926868e-17 1.0
  outer loop
    vertex -328.6570718298046 -166.17196595843942 4.999999999999957
    vertex -324.0970642064788 -182.529892053748 4.99999999999996
    vertex -328.2470642064789 -166.00213524018153 4.999999999999957
  endloop
endfacet
facet normal -2.819966482547877e-16 2.6754900213926868e-17 1.0
  outer loop
    vertex -328.2470642064789 -166.00213524018153 4.999999999999957
    vertex -324.0970642064788 -182.529892053748 4.99999999999996
    vertex -327.89498267846176 -165.73197358176512 4.999999999999957
  endloop
endfacet
facet normal -2.819966482547877e-16 2.6754900213926868e-17 1.0
  outer loop
    vertex -327.89498267846176 -165.73197358176512 4.999999999999957
    vertex -324.0970642064788 -182.529892053748 4.99999999999996
    vertex -327.62482102004526 -165.379892053748 4.999999999999957
  endloop
endfacet
facet normal -2.819966482547877e-16 2.6754900213926868e-17 1.0
  outer loop
    vertex -327.62482102004526 -165.379892053748 4.999999999999957
    vertex -324.0970642064788 -182.529892053748 4.99999999999996
    vertex -327.4549903017874 -164.9698844304223 4.999999999999957
  endloop
endfacet
facet normal -2.819966482547877e-16 2.6754900213926868e-17 1.0
  outer loop
    vertex -327.4549903017874 -164.9698844304223 4.999999999999957
    vertex -324.0970642064788 -182.529892053748 4.99999999999996
    vertex -327.3970642064789 -164.529892053748 4.999999999999957
  endloop
endfacet
facet normal -2.819966482547877e-16 2.6754900213926868e-17 1.0
  outer loop
    vertex -327.3970642064789 -164.529892053748 4.999999999999957
    vertex -324.0970642064788 -182.529892053748 4.99999999999996
    vertex -327.3970642064789 -100.1298920537478 4.999999999999957
  endloop
endfacet
facet normal -2.819966482547877e-16 2.6754900213926868e-17 1.0
  outer loop
    vertex -334.09706420647893 -77.1298920537478 4.999999999999954
    vertex -330.7391381111703 -99.68989967707351 4.999999999999957
    vertex -324.0970642064788 -77.1298920537478 4.99999999999996
  endloop
endfacet
facet normal -2.819966482547877e-16 2.6754900213926868e-17 1.0
  outer loop
    vertex -330.7391381111703 -99.68989967707351 4.999999999999957
    vertex -334.09706420647893 -77.1298920537478 4.999999999999954
    vertex -330.79706420647886 -100.1298920537478 4.999999999999957
  endloop
endfacet
facet normal -2.819966482547877e-16 2.6754900213926868e-17 1.0
  outer loop
    vertex -330.79706420647886 -100.1298920537478 4.999999999999957
    vertex -334.09706420647893 -77.1298920537478 4.999999999999954
    vertex -330.79706420647886 -164.529892053748 4.999999999999957
  endloop
endfacet
facet normal -2.819966482547877e-16 2.6754900213926868e-17 1.0
  outer loop
    vertex -324.0970642064788 -77.1298920537478 4.99999999999996
    vertex -330.7391381111703 -99.68989967707351 4.999999999999957
    vertex -330.56930739291244 -99.2798920537478 4.999999999999957
  endloop
endfacet
facet normal -2.819966482547877e-16 2.6754900213926868e-17 1.0
  outer loop
    vertex -324.0970642064788 -77.1298920537478 4.99999999999996
    vertex -330.56930739291244 -99.2798920537478 4.999999999999957
    vertex -330.299145734496 -98.92781052573066 4.999999999999957
  endloop
endfacet
facet normal -2.819966482547877e-16 2.6754900213926868e-17 1.0
  outer loop
    vertex -324.0970642064788 -77.1298920537478 4.99999999999996
    vertex -330.299145734496 -98.92781052573066 4.999999999999957
    vertex -329.94706420647884 -98.65764886731425 4.999999999999957
  endloop
endfacet
facet normal -2.819966482547877e-16 2.6754900213926868e-17 1.0
  outer loop
    vertex -324.0970642064788 -77.1298920537478 4.99999999999996
    vertex -329.94706420647884 -98.65764886731425 4.999999999999957
    vertex -329.5370565831532 -98.48781814905638 4.999999999999957
  endloop
endfacet
facet normal -2.819966482547877e-16 2.6754900213926868e-17 1.0
  outer loop
    vertex -324.0970642064788 -77.1298920537478 4.99999999999996
    vertex -329.5370565831532 -98.48781814905638 4.999999999999957
    vertex -329.0970642064789 -98.42989205374779 4.999999999999957
  endloop
endfacet
facet normal -2.819966482547877e-16 2.6754900213926868e-17 1.0
  outer loop
    vertex -324.0970642064788 -77.1298920537478 4.99999999999996
    vertex -329.0970642064789 -98.42989205374779 4.999999999999957
    vertex -328.6570718298046 -98.48781814905638 4.999999999999957
  endloop
endfacet
facet normal -2.819966482547877e-16 2.6754900213926868e-17 1.0
  outer loop
    vertex -324.0970642064788 -77.1298920537478 4.99999999999996
    vertex -328.6570718298046 -98.48781814905638 4.999999999999957
    vertex -328.2470642064789 -98.65764886731425 4.999999999999957
  endloop
endfacet
facet normal -2.819966482547877e-16 2.6754900213926868e-17 1.0
  outer loop
    vertex -324.0970642064788 -77.1298920537478 4.99999999999996
    vertex -328.2470642064789 -98.65764886731425 4.999999999999957
    vertex -327.89498267846176 -98.92781052573066 4.999999999999957
  endloop
endfacet
facet normal -2.819966482547877e-16 2.6754900213926868e-17 1.0
  outer loop
    vertex -324.0970642064788 -77.1298920537478 4.99999999999996
    vertex -327.89498267846176 -98.92781052573066 4.999999999999957
    vertex -327.62482102004526 -99.2798920537478 4.999999999999957
  endloop
endfacet
facet normal -2.819966482547877e-16 2.6754900213926868e-17 1.0
  outer loop
    vertex -324.0970642064788 -77.1298920537478 4.99999999999996
    vertex -327.62482102004526 -99.2798920537478 4.999999999999957
    vertex -327.4549903017874 -99.68989967707351 4.999999999999957
  endloop
endfacet
facet normal -2.819966482547877e-16 2.6754900213926868e-17 1.0
  outer loop
    vertex -324.0970642064788 -77.1298920537478 4.99999999999996
    vertex -327.4549903017874 -99.68989967707351 4.999999999999957
    vertex -327.3970642064789 -100.1298920537478 4.999999999999957
  endloop
endfacet
facet normal -2.819966482547877e-16 2.6754900213926868e-17 1.0
  outer loop
    vertex -324.0970642064788 -77.1298920537478 4.99999999999996
    vertex -327.3970642064789 -100.1298920537478 4.999999999999957
    vertex -324.0970642064788 -182.529892053748 4.99999999999996
  endloop
endfacet
facet normal -2.819966482547877e-16 2.6754900213926868e-17 1.0
  outer loop
    vertex -330.7391381111703 -164.0898996770737 4.999999999999957
    vertex -330.79706420647886 -100.1298920537478 4.999999999999957
    vertex -330.79706420647886 -164.529892053748 4.999999999999957
  endloop
endfacet
facet normal -2.819966482547877e-16 2.6754900213926868e-17 1.0
  outer loop
    vertex -330.79706420647886 -100.1298920537478 4.999999999999957
    vertex -330.7391381111703 -164.0898996770737 4.999999999999957
    vertex -330.7391381111703 -100.56988443042208 4.999999999999957
  endloop
endfacet
facet normal -2.819966482547877e-16 2.6754900213926868e-17 1.0
  outer loop
    vertex -330.7391381111703 -100.56988443042208 4.999999999999957
    vertex -330.7391381111703 -164.0898996770737 4.999999999999957
    vertex -330.56930739291244 -163.679892053748 4.999999999999957
  endloop
endfacet
facet normal -2.819966482547877e-16 2.6754900213926868e-17 1.0
  outer loop
    vertex -330.7391381111703 -100.56988443042208 4.999999999999957
    vertex -330.56930739291244 -163.679892053748 4.999999999999957
    vertex -330.56930739291244 -100.97989205374779 4.999999999999957
  endloop
endfacet
facet normal -2.819966482547877e-16 2.6754900213926868e-17 1.0
  outer loop
    vertex -330.56930739291244 -100.97989205374779 4.999999999999957
    vertex -330.56930739291244 -163.679892053748 4.999999999999957
    vertex -330.299145734496 -163.32781052573085 4.999999999999957
  endloop
endfacet
facet normal -2.819966482547877e-16 2.6754900213926868e-17 1.0
  outer loop
    vertex -330.56930739291244 -100.97989205374779 4.999999999999957
    vertex -330.299145734496 -163.32781052573085 4.999999999999957
    vertex -330.299145734496 -101.33197358176491 4.999999999999957
  endloop
endfacet
facet normal -2.819966482547877e-16 2.6754900213926868e-17 1.0
  outer loop
    vertex -330.299145734496 -101.33197358176491 4.999999999999957
    vertex -330.299145734496 -163.32781052573085 4.999999999999957
    vertex -329.94706420647884 -163.05764886731444 4.999999999999957
  endloop
endfacet
facet normal -2.819966482547877e-16 2.6754900213926868e-17 1.0
  outer loop
    vertex -330.299145734496 -101.33197358176491 4.999999999999957
    vertex -329.94706420647884 -163.05764886731444 4.999999999999957
    vertex -329.94706420647884 -101.60213524018133 4.999999999999957
  endloop
endfacet
facet normal -2.819966482547877e-16 2.6754900213926868e-17 1.0
  outer loop
    vertex -329.94706420647884 -101.60213524018133 4.999999999999957
    vertex -329.94706420647884 -163.05764886731444 4.999999999999957
    vertex -329.5370565831532 -162.88781814905659 4.999999999999957
  endloop
endfacet
facet normal -2.819966482547877e-16 2.6754900213926868e-17 1.0
  outer loop
    vertex -329.94706420647884 -101.60213524018133 4.999999999999957
    vertex -329.5370565831532 -162.88781814905659 4.999999999999957
    vertex -329.5370565831532 -101.77196595843921 4.999999999999957
  endloop
endfacet
facet normal -2.819966482547877e-16 2.6754900213926868e-17 1.0
  outer loop
    vertex -329.5370565831532 -101.77196595843921 4.999999999999957
    vertex -329.5370565831532 -162.88781814905659 4.999999999999957
    vertex -329.0970642064789 -162.829892053748 4.999999999999957
  endloop
endfacet
facet normal -2.819966482547877e-16 2.6754900213926868e-17 1.0
  outer loop
    vertex -329.5370565831532 -101.77196595843921 4.999999999999957
    vertex -329.0970642064789 -162.829892053748 4.999999999999957
    vertex -329.0970642064789 -101.8298920537478 4.999999999999957
  endloop
endfacet
facet normal -2.819966482547877e-16 2.6754900213926868e-17 1.0
  outer loop
    vertex -329.0970642064789 -101.8298920537478 4.999999999999957
    vertex -329.0970642064789 -162.829892053748 4.999999999999957
    vertex -328.6570718298046 -162.88781814905659 4.999999999999957
  endloop
endfacet
facet normal -2.819966482547877e-16 2.6754900213926868e-17 1.0
  outer loop
    vertex -329.0970642064789 -101.8298920537478 4.999999999999957
    vertex -328.6570718298046 -162.88781814905659 4.999999999999957
    vertex -328.6570718298046 -101.77196595843921 4.999999999999957
  endloop
endfacet
facet normal -2.819966482547877e-16 2.6754900213926868e-17 1.0
  outer loop
    vertex -328.6570718298046 -101.77196595843921 4.999999999999957
    vertex -328.6570718298046 -162.88781814905659 4.999999999999957
    vertex -328.2470642064789 -163.05764886731444 4.999999999999957
  endloop
endfacet
facet normal -2.819966482547877e-16 2.6754900213926868e-17 1.0
  outer loop
    vertex -328.6570718298046 -101.77196595843921 4.999999999999957
    vertex -328.2470642064789 -163.05764886731444 4.999999999999957
    vertex -328.2470642064789 -101.60213524018133 4.999999999999957
  endloop
endfacet
facet normal -2.819966482547877e-16 2.6754900213926868e-17 1.0
  outer loop
    vertex -328.2470642064789 -101.60213524018133 4.999999999999957
    vertex -328.2470642064789 -163.05764886731444 4.999999999999957
    vertex -327.89498267846176 -163.32781052573085 4.999999999999957
  endloop
endfacet
facet normal -2.819966482547877e-16 2.6754900213926868e-17 1.0
  outer loop
    vertex -328.2470642064789 -101.60213524018133 4.999999999999957
    vertex -327.89498267846176 -163.32781052573085 4.999999999999957
    vertex -327.89498267846176 -101.33197358176491 4.999999999999957
  endloop
endfacet
facet normal -2.819966482547877e-16 2.6754900213926868e-17 1.0
  outer loop
    vertex -327.89498267846176 -101.33197358176491 4.999999999999957
    vertex -327.89498267846176 -163.32781052573085 4.999999999999957
    vertex -327.62482102004526 -163.679892053748 4.999999999999957
  endloop
endfacet
facet normal -2.819966482547877e-16 2.6754900213926868e-17 1.0
  outer loop
    vertex -327.89498267846176 -101.33197358176491 4.999999999999957
    vertex -327.62482102004526 -163.679892053748 4.999999999999957
    vertex -327.62482102004526 -100.97989205374779 4.999999999999957
  endloop
endfacet
facet normal -2.819966482547877e-16 2.6754900213926868e-17 1.0
  outer loop
    vertex -327.62482102004526 -100.97989205374779 4.999999999999957
    vertex -327.62482102004526 -163.679892053748 4.999999999999957
    vertex -327.4549903017874 -164.0898996770737 4.999999999999957
  endloop
endfacet
facet normal -2.819966482547877e-16 2.6754900213926868e-17 1.0
  outer loop
    vertex -327.62482102004526 -100.97989205374779 4.999999999999957
    vertex -327.4549903017874 -164.0898996770737 4.999999999999957
    vertex -327.4549903017874 -100.56988443042208 4.999999999999957
  endloop
endfacet
facet normal -2.819966482547877e-16 2.6754900213926868e-17 1.0
  outer loop
    vertex -327.4549903017874 -100.56988443042208 4.999999999999957
    vertex -327.4549903017874 -164.0898996770737 4.999999999999957
    vertex -327.3970642064789 -164.529892053748 4.999999999999957
  endloop
endfacet
facet normal -2.819966482547877e-16 2.6754900213926868e-17 1.0
  outer loop
    vertex -327.4549903017874 -100.56988443042208 4.999999999999957
    vertex -327.3970642064789 -164.529892053748 4.999999999999957
    vertex -327.3970642064789 -100.1298920537478 4.999999999999957
  endloop
endfacet
facet normal 0.0 0.0 -1.0
  outer loop
    vertex -334.0970642064788 -70.12989205374781 -3.947953075567056e-14
    vertex -330.79706420647886 -100.1298920537478 -4.2299497238218464e-14
    vertex -334.0970642064788 -189.529892053748 -3.947953075567056e-14
  endloop
endfacet
facet normal 0.0 0.0 -1.0
  outer loop
    vertex -330.79706420647886 -100.1298920537478 -4.2299497238218464e-14
    vertex -334.0970642064788 -70.12989205374781 -3.947953075567056e-14
    vertex -330.7391381111703 -99.68989967707351 -4.2299497238218464e-14
  endloop
endfacet
facet normal 0.0 0.0 -1.0
  outer loop
    vertex -330.7391381111703 -99.68989967707351 -4.2299497238218464e-14
    vertex -334.0970642064788 -70.12989205374781 -3.947953075567056e-14
    vertex -324.0970642064788 -70.12989205374781 -3.947953075567056e-14
  endloop
endfacet
facet normal 0.0 0.0 -1.0
  outer loop
    vertex -330.7391381111703 -99.68989967707351 -4.2299497238218464e-14
    vertex -324.0970642064788 -70.12989205374781 -3.947953075567056e-14
    vertex -330.56930739291244 -99.2798920537478 -4.2299497238218464e-14
  endloop
endfacet
facet normal 0.0 0.0 -1.0
  outer loop
    vertex -330.56930739291244 -99.2798920537478 -4.2299497238218464e-14
    vertex -324.0970642064788 -70.12989205374781 -3.947953075567056e-14
    vertex -330.299145734496 -98.92781052573066 -4.2299497238218464e-14
  endloop
endfacet
facet normal 0.0 0.0 -1.0
  outer loop
    vertex -330.299145734496 -98.92781052573066 -4.2299497238218464e-14
    vertex -324.0970642064788 -70.12989205374781 -3.947953075567056e-14
    vertex -329.94706420647884 -98.65764886731425 -4.2299497238218464e-14
  endloop
endfacet
facet normal 0.0 0.0 -1.0
  outer loop
    vertex -329.94706420647884 -98.65764886731425 -4.2299497238218464e-14
    vertex -324.0970642064788 -70.12989205374781 -3.947953075567056e-14
    vertex -329.5370565831532 -98.48781814905638 -4.2299497238218464e-14
  endloop
endfacet
facet normal 0.0 0.0 -1.0
  outer loop
    vertex -329.5370565831532 -98.48781814905638 -4.2299497238218464e-14
    vertex -324.0970642064788 -70.12989205374781 -3.947953075567056e-14
    vertex -329.0970642064789 -98.42989205374779 -4.2299497238218464e-14
  endloop
endfacet
facet normal 0.0 0.0 -1.0
  outer loop
    vertex -329.0970642064789 -98.42989205374779 -4.2299497238218464e-14
    vertex -324.0970642064788 -70.12989205374781 -3.947953075567056e-14
    vertex -328.6570718298046 -98.48781814905638 -4.2299497238218464e-14
  endloop
endfacet
facet normal 0.0 0.0 -1.0
  outer loop
    vertex -328.6570718298046 -98.48781814905638 -4.2299497238218464e-14
    vertex -324.0970642064788 -70.12989205374781 -3.947953075567056e-14
    vertex -328.2470642064789 -98.65764886731425 -4.2299497238218464e-14
  endloop
endfacet
facet normal 0.0 0.0 -1.0
  outer loop
    vertex -328.2470642064789 -98.65764886731425 -4.2299497238218464e-14
    vertex -324.0970642064788 -70.12989205374781 -3.947953075567056e-14
    vertex -327.89498267846176 -98.92781052573066 -4.2299497238218464e-14
  endloop
endfacet
facet normal 0.0 0.0 -1.0
  outer loop
    vertex -327.89498267846176 -98.92781052573066 -4.2299497238218464e-14
    vertex -324.0970642064788 -70.12989205374781 -3.947953075567056e-14
    vertex -327.62482102004526 -99.2798920537478 -4.2299497238218464e-14
  endloop
endfacet
facet normal 0.0 0.0 -1.0
  outer loop
    vertex -327.62482102004526 -99.2798920537478 -4.2299497238218464e-14
    vertex -324.0970642064788 -70.12989205374781 -3.947953075567056e-14
    vertex -327.4549903017874 -99.68989967707351 -4.2299497238218464e-14
  endloop
endfacet
facet normal 0.0 0.0 -1.0
  outer loop
    vertex -327.4549903017874 -99.68989967707351 -4.2299497238218464e-14
    vertex -324.0970642064788 -70.12989205374781 -3.947953075567056e-14
    vertex -327.3970642064789 -100.1298920537478 -4.2299497238218464e-14
  endloop
endfacet
facet normal 0.0 0.0 -1.0
  outer loop
    vertex -327.3970642064789 -100.1298920537478 -4.2299497238218464e-14
    vertex -324.0970642064788 -70.12989205374781 -3.947953075567056e-14
    vertex -327.3970642064789 -164.529892053748 -4.2299497238218464e-14
  endloop
endfacet
facet normal 0.0 0.0 -1.0
  outer loop
    vertex -334.0970642064788 -189.529892053748 -3.947953075567056e-14
    vertex -330.7391381111703 -164.9698844304223 -4.2299497238218464e-14
    vertex -324.0970642064788 -189.529892053748 -3.947953075567056e-14
  endloop
endfacet
facet normal 0.0 0.0 -1.0
  outer loop
    vertex -330.7391381111703 -164.9698844304223 -4.2299497238218464e-14
    vertex -334.0970642064788 -189.529892053748 -3.947953075567056e-14
    vertex -330.79706420647886 -164.529892053748 -4.2299497238218464e-14
  endloop
endfacet
facet normal 0.0 0.0 -1.0
  outer loop
    vertex -330.79706420647886 -164.529892053748 -4.2299497238218464e-14
    vertex -334.0970642064788 -189.529892053748 -3.947953075567056e-14
    vertex -330.79706420647886 -100.1298920537478 -4.2299497238218464e-14
  endloop
endfacet
facet normal 0.0 0.0 -1.0
  outer loop
    vertex -324.0970642064788 -189.529892053748 -3.947953075567056e-14
    vertex -330.7391381111703 -164.9698844304223 -4.2299497238218464e-14
    vertex -330.56930739291244 -165.379892053748 -4.2299497238218464e-14
  endloop
endfacet
facet normal 0.0 0.0 -1.0
  outer loop
    vertex -324.0970642064788 -189.529892053748 -3.947953075567056e-14
    vertex -330.56930739291244 -165.379892053748 -4.2299497238218464e-14
    vertex -330.299145734496 -165.73197358176512 -4.2299497238218464e-14
  endloop
endfacet
facet normal 0.0 0.0 -1.0
  outer loop
    vertex -324.0970642064788 -189.529892053748 -3.947953075567056e-14
    vertex -330.299145734496 -165.73197358176512 -4.2299497238218464e-14
    vertex -329.94706420647884 -166.00213524018153 -4.2299497238218464e-14
  endloop
endfacet
facet normal 0.0 0.0 -1.0
  outer loop
    vertex -324.0970642064788 -189.529892053748 -3.947953075567056e-14
    vertex -329.94706420647884 -166.00213524018153 -4.2299497238218464e-14
    vertex -329.5370565831532 -166.17196595843942 -4.2299497238218464e-14
  endloop
endfacet
facet normal 0.0 0.0 -1.0
  outer loop
    vertex -324.0970642064788 -189.529892053748 -3.947953075567056e-14
    vertex -329.5370565831532 -166.17196595843942 -4.2299497238218464e-14
    vertex -329.0970642064789 -166.229892053748 -4.2299497238218464e-14
  endloop
endfacet
facet normal 0.0 0.0 -1.0
  outer loop
    vertex -324.0970642064788 -189.529892053748 -3.947953075567056e-14
    vertex -329.0970642064789 -166.229892053748 -4.2299497238218464e-14
    vertex -328.6570718298046 -166.17196595843942 -4.2299497238218464e-14
  endloop
endfacet
facet normal 0.0 0.0 -1.0
  outer loop
    vertex -324.0970642064788 -189.529892053748 -3.947953075567056e-14
    vertex -328.6570718298046 -166.17196595843942 -4.2299497238218464e-14
    vertex -328.2470642064789 -166.00213524018153 -4.2299497238218464e-14
  endloop
endfacet
facet normal 0.0 0.0 -1.0
  outer loop
    vertex -324.0970642064788 -189.529892053748 -3.947953075567056e-14
    vertex -328.2470642064789 -166.00213524018153 -4.2299497238218464e-14
    vertex -327.89498267846176 -165.73197358176512 -4.2299497238218464e-14
  endloop
endfacet
facet normal 0.0 0.0 -1.0
  outer loop
    vertex -324.0970642064788 -189.529892053748 -3.947953075567056e-14
    vertex -327.89498267846176 -165.73197358176512 -4.2299497238218464e-14
    vertex -327.62482102004526 -165.379892053748 -4.2299497238218464e-14
  endloop
endfacet
facet normal 0.0 0.0 -1.0
  outer loop
    vertex -324.0970642064788 -189.529892053748 -3.947953075567056e-14
    vertex -327.62482102004526 -165.379892053748 -4.2299497238218464e-14
    vertex -327.4549903017874 -164.9698844304223 -4.2299497238218464e-14
  endloop
endfacet
facet normal 0.0 0.0 -1.0
  outer loop
    vertex -324.0970642064788 -189.529892053748 -3.947953075567056e-14
    vertex -327.4549903017874 -164.9698844304223 -4.2299497238218464e-14
    vertex -327.3970642064789 -164.529892053748 -4.2299497238218464e-14
  endloop
endfacet
facet normal 0.0 0.0 -1.0
  outer loop
    vertex -324.0970642064788 -189.529892053748 -3.947953075567056e-14
    vertex -327.3970642064789 -164.529892053748 -4.2299497238218464e-14
    vertex -324.0970642064788 -70.12989205374781 -3.947953075567056e-14
  endloop
endfacet
facet normal 0.0 0.0 -1.0
  outer loop
    vertex -330.7391381111703 -100.56988443042208 -4.2299497238218464e-14
    vertex -330.79706420647886 -164.529892053748 -4.2299497238218464e-14
    vertex -330.79706420647886 -100.1298920537478 -4.2299497238218464e-14
  endloop
endfacet
facet normal 0.0 0.0 -1.0
  outer loop
    vertex -330.79706420647886 -164.529892053748 -4.2299497238218464e-14
    vertex -330.7391381111703 -100.56988443042208 -4.2299497238218464e-14
    vertex -330.7391381111703 -164.0898996770737 -4.2299497238218464e-14
  endloop
endfacet
facet normal 0.0 0.0 -1.0
  outer loop
    vertex -330.7391381111703 -164.0898996770737 -4.2299497238218464e-14
    vertex -330.7391381111703 -100.56988443042208 -4.2299497238218464e-14
    vertex -330.56930739291244 -100.97989205374779 -4.2299497238218464e-14
  endloop
endfacet
facet normal 0.0 0.0 -1.0
  outer loop
    vertex -330.7391381111703 -164.0898996770737 -4.2299497238218464e-14
    vertex -330.56930739291244 -100.97989205374779 -4.2299497238218464e-14
    vertex -330.56930739291244 -163.679892053748 -4.2299497238218464e-14
  endloop
endfacet
facet normal 0.0 0.0 -1.0
  outer loop
    vertex -330.56930739291244 -163.679892053748 -4.2299497238218464e-14
    vertex -330.56930739291244 -100.97989205374779 -4.2299497238218464e-14
    vertex -330.299145734496 -101.33197358176491 -4.2299497238218464e-14
  endloop
endfacet
facet normal 0.0 0.0 -1.0
  outer loop
    vertex -330.56930739291244 -163.679892053748 -4.2299497238218464e-14
    vertex -330.299145734496 -101.33197358176491 -4.2299497238218464e-14
    vertex -330.299145734496 -163.32781052573085 -4.2299497238218464e-14
  endloop
endfacet
facet normal 0.0 0.0 -1.0
  outer loop
    vertex -330.299145734496 -163.32781052573085 -4.2299497238218464e-14
    vertex -330.299145734496 -101.33197358176491 -4.2299497238218464e-14
    vertex -329.94706420647884 -101.60213524018133 -4.2299497238218464e-14
  endloop
endfacet
facet normal 0.0 0.0 -1.0
  outer loop
    vertex -330.299145734496 -163.32781052573085 -4.2299497238218464e-14
    vertex -329.94706420647884 -101.60213524018133 -4.2299497238218464e-14
    vertex -329.94706420647884 -163.05764886731444 -4.2299497238218464e-14
  endloop
endfacet
facet normal 0.0 0.0 -1.0
  outer loop
    vertex -329.94706420647884 -163.05764886731444 -4.2299497238218464e-14
    vertex -329.94706420647884 -101.60213524018133 -4.2299497238218464e-14
    vertex -329.5370565831532 -101.77196595843921 -4.2299497238218464e-14
  endloop
endfacet
facet normal 0.0 0.0 -1.0
  outer loop
    vertex -329.94706420647884 -163.05764886731444 -4.2299497238218464e-14
    vertex -329.5370565831532 -101.77196595843921 -4.2299497238218464e-14
    vertex -329.5370565831532 -162.88781814905659 -4.2299497238218464e-14
  endloop
endfacet
facet normal 0.0 0.0 -1.0
  outer loop
    vertex -329.5370565831532 -162.88781814905659 -4.2299497238218464e-14
    vertex -329.5370565831532 -101.77196595843921 -4.2299497238218464e-14
    vertex -329.0970642064789 -101.8298920537478 -4.2299497238218464e-14
  endloop
endfacet
facet normal 0.0 0.0 -1.0
  outer loop
    vertex -329.5370565831532 -162.88781814905659 -4.2299497238218464e-14
    vertex -329.0970642064789 -101.8298920537478 -4.2299497238218464e-14
    vertex -329.0970642064789 -162.829892053748 -4.2299497238218464e-14
  endloop
endfacet
facet normal 0.0 0.0 -1.0
  outer loop
    vertex -329.0970642064789 -162.829892053748 -4.2299497238218464e-14
    vertex -329.0970642064789 -101.8298920537478 -4.2299497238218464e-14
    vertex -328.6570718298046 -101.77196595843921 -4.2299497238218464e-14
  endloop
endfacet
facet normal 0.0 0.0 -1.0
  outer loop
    vertex -329.0970642064789 -162.829892053748 -4.2299497238218464e-14
    vertex -328.6570718298046 -101.77196595843921 -4.2299497238218464e-14
    vertex -328.6570718298046 -162.88781814905659 -4.2299497238218464e-14
  endloop
endfacet
facet normal 0.0 0.0 -1.0
  outer loop
    vertex -328.6570718298046 -162.88781814905659 -4.2299497238218464e-14
    vertex -328.6570718298046 -101.77196595843921 -4.2299497238218464e-14
    vertex -328.2470642064789 -101.60213524018133 -4.2299497238218464e-14
  endloop
endfacet
facet normal 0.0 0.0 -1.0
  outer loop
    vertex -328.6570718298046 -162.88781814905659 -4.2299497238218464e-14
    vertex -328.2470642064789 -101.60213524018133 -4.2299497238218464e-14
    vertex -328.2470642064789 -163.05764886731444 -4.2299497238218464e-14
  endloop
endfacet
facet normal 0.0 0.0 -1.0
  outer loop
    vertex -328.2470642064789 -163.05764886731444 -4.2299497238218464e-14
    vertex -328.2470642064789 -101.60213524018133 -4.2299497238218464e-14
    vertex -327.89498267846176 -101.33197358176491 -4.2299497238218464e-14
  endloop
endfacet
facet normal 0.0 0.0 -1.0
  outer loop
    vertex -328.2470642064789 -163.05764886731444 -4.2299497238218464e-14
    vertex -327.89498267846176 -101.33197358176491 -4.2299497238218464e-14
    vertex -327.89498267846176 -163.32781052573085 -4.2299497238218464e-14
  endloop
endfacet
facet normal 0.0 0.0 -1.0
  outer loop
    vertex -327.89498267846176 -163.32781052573085 -4.2299497238218464e-14
    vertex -327.89498267846176 -101.33197358176491 -4.2299497238218464e-14
    vertex -327.62482102004526 -100.97989205374779 -4.2299497238218464e-14
  endloop
endfacet
facet normal 0.0 0.0 -1.0
  outer loop
    vertex -327.89498267846176 -163.32781052573085 -4.2299497238218464e-14
    vertex -327.62482102004526 -100.97989205374779 -4.2299497238218464e-14
    vertex -327.62482102004526 -163.679892053748 -4.2299497238218464e-14
  endloop
endfacet
facet normal 0.0 0.0 -1.0
  outer loop
    vertex -327.62482102004526 -163.679892053748 -4.2299497238218464e-14
    vertex -327.62482102004526 -100.97989205374779 -4.2299497238218464e-14
    vertex -327.4549903017874 -100.56988443042208 -4.2299497238218464e-14
  endloop
endfacet
facet normal 0.0 0.0 -1.0
  outer loop
    vertex -327.62482102004526 -163.679892053748 -4.2299497238218464e-14
    vertex -327.4549903017874 -100.56988443042208 -4.2299497238218464e-14
    vertex -327.4549903017874 -164.0898996770737 -4.2299497238218464e-14
  endloop
endfacet
facet normal 0.0 0.0 -1.0
  outer loop
    vertex -327.4549903017874 -164.0898996770737 -4.2299497238218464e-14
    vertex -327.4549903017874 -100.56988443042208 -4.2299497238218464e-14
    vertex -327.3970642064789 -100.1298920537478 -4.2299497238218464e-14
  endloop
endfacet
facet normal 0.0 0.0 -1.0
  outer loop
    vertex -327.4549903017874 -164.0898996770737 -4.2299497238218464e-14
    vertex -327.3970642064789 -100.1298920537478 -4.2299497238218464e-14
    vertex -327.3970642064789 -164.529892053748 -4.2299497238218464e-14
  endloop
endfacet
facet normal 0.793353340291197 -0.6087614290087705 0.0
  outer loop
    vertex -330.299145734496 -98.92781052573066 -4.2299497238218464e-14
    vertex -330.56930739291244 -99.2798920537478 4.999999999999957
    vertex -330.56930739291244 -99.2798920537478 -4.2299497238218464e-14
  endloop
endfacet
facet normal 0.793353340291197 -0.6087614290087705 0.0
  outer loop
    vertex -330.56930739291244 -99.2798920537478 4.999999999999957
    vertex -330.299145734496 -98.92781052573066 -4.2299497238218464e-14
    vertex -330.299145734496 -98.92781052573066 4.999999999999957
  endloop
endfacet
facet normal 0.38268343236511887 -0.9238795325112749 0.0
  outer loop
    vertex -329.5370565831532 -98.48781814905638 4.999999999999957
    vertex -329.94706420647884 -98.65764886731425 -4.2299497238218464e-14
    vertex -329.5370565831532 -98.48781814905638 -4.2299497238218464e-14
  endloop
endfacet
facet normal 0.38268343236511887 -0.9238795325112749 0.0
  outer loop
    vertex -329.94706420647884 -98.65764886731425 -4.2299497238218464e-14
    vertex -329.5370565831532 -98.48781814905638 4.999999999999957
    vertex -329.94706420647884 -98.65764886731425 4.999999999999957
  endloop
endfacet
facet normal -0.13052619222004638 -0.991444861373811 -0.0
  outer loop
    vertex -328.6570718298046 -98.48781814905638 4.999999999999957
    vertex -329.0970642064789 -98.42989205374779 -4.2299497238218464e-14
    vertex -328.6570718298046 -98.48781814905638 -4.2299497238218464e-14
  endloop
endfacet
facet normal -0.13052619222004638 -0.991444861373811 -0.0
  outer loop
    vertex -329.0970642064789 -98.42989205374779 -4.2299497238218464e-14
    vertex -328.6570718298046 -98.48781814905638 4.999999999999957
    vertex -329.0970642064789 -98.42989205374779 4.999999999999957
  endloop
endfacet
facet normal 0.6087614290086979 -0.7933533402912526 0.0
  outer loop
    vertex -329.94706420647884 -98.65764886731425 4.999999999999957
    vertex -330.299145734496 -98.92781052573066 -4.2299497238218464e-14
    vertex -329.94706420647884 -98.65764886731425 -4.2299497238218464e-14
  endloop
endfacet
facet normal 0.6087614290086979 -0.7933533402912526 0.0
  outer loop
    vertex -330.299145734496 -98.92781052573066 -4.2299497238218464e-14
    vertex -329.94706420647884 -98.65764886731425 4.999999999999957
    vertex -330.299145734496 -98.92781052573066 4.999999999999957
  endloop
endfacet
facet normal -0.38268343236511887 -0.9238795325112749 -0.0
  outer loop
    vertex -328.2470642064789 -98.65764886731425 4.999999999999957
    vertex -328.6570718298046 -98.48781814905638 -4.2299497238218464e-14
    vertex -328.2470642064789 -98.65764886731425 -4.2299497238218464e-14
  endloop
endfacet
facet normal -0.38268343236511887 -0.9238795325112749 -0.0
  outer loop
    vertex -328.6570718298046 -98.48781814905638 -4.2299497238218464e-14
    vertex -328.2470642064789 -98.65764886731425 4.999999999999957
    vertex -328.6570718298046 -98.48781814905638 4.999999999999957
  endloop
endfacet
facet normal -0.6087614290086979 0.7933533402912526 0.0
  outer loop
    vertex -328.2470642064789 -101.60213524018133 4.999999999999957
    vertex -327.89498267846176 -101.33197358176491 -4.2299497238218464e-14
    vertex -328.2470642064789 -101.60213524018133 -4.2299497238218464e-14
  endloop
endfacet
facet normal -0.6087614290086979 0.7933533402912526 0.0
  outer loop
    vertex -327.89498267846176 -101.33197358176491 -4.2299497238218464e-14
    vertex -328.2470642064789 -101.60213524018133 4.999999999999957
    vertex -327.89498267846176 -101.33197358176491 4.999999999999957
  endloop
endfacet
facet normal 0.13052619222004638 -0.991444861373811 0.0
  outer loop
    vertex -329.0970642064789 -98.42989205374779 4.999999999999957
    vertex -329.5370565831532 -98.48781814905638 -4.2299497238218464e-14
    vertex -329.0970642064789 -98.42989205374779 -4.2299497238218464e-14
  endloop
endfacet
facet normal 0.13052619222004638 -0.991444861373811 0.0
  outer loop
    vertex -329.5370565831532 -98.48781814905638 -4.2299497238218464e-14
    vertex -329.0970642064789 -98.42989205374779 4.999999999999957
    vertex -329.5370565831532 -98.48781814905638 4.999999999999957
  endloop
endfacet
facet normal -0.6087614290086979 -0.7933533402912526 -0.0
  outer loop
    vertex -327.89498267846176 -98.92781052573066 4.999999999999957
    vertex -328.2470642064789 -98.65764886731425 -4.2299497238218464e-14
    vertex -327.89498267846176 -98.92781052573066 -4.2299497238218464e-14
  endloop
endfacet
facet normal -0.6087614290086979 -0.7933533402912526 -0.0
  outer loop
    vertex -328.2470642064789 -98.65764886731425 -4.2299497238218464e-14
    vertex -327.89498267846176 -98.92781052573066 4.999999999999957
    vertex -328.2470642064789 -98.65764886731425 4.999999999999957
  endloop
endfacet
facet normal -0.793353340291197 -0.6087614290087705 -0.0
  outer loop
    vertex -327.89498267846176 -98.92781052573066 4.999999999999957
    vertex -327.62482102004526 -99.2798920537478 -4.2299497238218464e-14
    vertex -327.62482102004526 -99.2798920537478 4.999999999999957
  endloop
endfacet
facet normal -0.793353340291197 -0.6087614290087705 -0.0
  outer loop
    vertex -327.62482102004526 -99.2798920537478 -4.2299497238218464e-14
    vertex -327.89498267846176 -98.92781052573066 4.999999999999957
    vertex -327.89498267846176 -98.92781052573066 -4.2299497238218464e-14
  endloop
endfacet
facet normal 0.793353340291197 0.6087614290087705 0.0
  outer loop
    vertex -330.56930739291244 -100.97989205374779 -4.2299497238218464e-14
    vertex -330.299145734496 -101.33197358176491 4.999999999999957
    vertex -330.299145734496 -101.33197358176491 -4.2299497238218464e-14
  endloop
endfacet
facet normal 0.793353340291197 0.6087614290087705 0.0
  outer loop
    vertex -330.299145734496 -101.33197358176491 4.999999999999957
    vertex -330.56930739291244 -100.97989205374779 -4.2299497238218464e-14
    vertex -330.56930739291244 -100.97989205374779 4.999999999999957
  endloop
endfacet
facet normal -0.38268343236511887 0.9238795325112749 0.0
  outer loop
    vertex -328.6570718298046 -101.77196595843921 4.999999999999957
    vertex -328.2470642064789 -101.60213524018133 -4.2299497238218464e-14
    vertex -328.6570718298046 -101.77196595843921 -4.2299497238218464e-14
  endloop
endfacet
facet normal -0.38268343236511887 0.9238795325112749 0.0
  outer loop
    vertex -328.2470642064789 -101.60213524018133 -4.2299497238218464e-14
    vertex -328.6570718298046 -101.77196595843921 4.999999999999957
    vertex -328.2470642064789 -101.60213524018133 4.999999999999957
  endloop
endfacet
facet normal 0.13052619222004638 0.991444861373811 0.0
  outer loop
    vertex -329.5370565831532 -101.77196595843921 4.999999999999957
    vertex -329.0970642064789 -101.8298920537478 -4.2299497238218464e-14
    vertex -329.5370565831532 -101.77196595843921 -4.2299497238218464e-14
  endloop
endfacet
facet normal 0.13052619222004638 0.991444861373811 0.0
  outer loop
    vertex -329.0970642064789 -101.8298920537478 -4.2299497238218464e-14
    vertex -329.5370565831532 -101.77196595843921 4.999999999999957
    vertex -329.0970642064789 -101.8298920537478 4.999999999999957
  endloop
endfacet
facet normal 0.38268343236511887 0.9238795325112749 0.0
  outer loop
    vertex -329.94706420647884 -101.60213524018133 4.999999999999957
    vertex -329.5370565831532 -101.77196595843921 -4.2299497238218464e-14
    vertex -329.94706420647884 -101.60213524018133 -4.2299497238218464e-14
  endloop
endfacet
facet normal 0.38268343236511887 0.9238795325112749 0.0
  outer loop
    vertex -329.5370565831532 -101.77196595843921 -4.2299497238218464e-14
    vertex -329.94706420647884 -101.60213524018133 4.999999999999957
    vertex -329.5370565831532 -101.77196595843921 4.999999999999957
  endloop
endfacet
facet normal 0.9914448613738268 0.13052619221992806 0.0
  outer loop
    vertex -330.79706420647886 -100.1298920537478 -4.2299497238218464e-14
    vertex -330.7391381111703 -100.56988443042208 4.999999999999957
    vertex -330.7391381111703 -100.56988443042208 -4.2299497238218464e-14
  endloop
endfacet
facet normal 0.9914448613738268 0.13052619221992806 0.0
  outer loop
    vertex -330.7391381111703 -100.56988443042208 4.999999999999957
    vertex -330.79706420647886 -100.1298920537478 -4.2299497238218464e-14
    vertex -330.79706420647886 -100.1298920537478 4.999999999999957
  endloop
endfacet
facet normal 0.9914448613738268 -0.13052619221992806 0.0
  outer loop
    vertex -330.7391381111703 -99.68989967707351 -4.2299497238218464e-14
    vertex -330.79706420647886 -100.1298920537478 4.999999999999957
    vertex -330.79706420647886 -100.1298920537478 -4.2299497238218464e-14
  endloop
endfacet
facet normal 0.9914448613738268 -0.13052619221992806 0.0
  outer loop
    vertex -330.79706420647886 -100.1298920537478 4.999999999999957
    vertex -330.7391381111703 -99.68989967707351 -4.2299497238218464e-14
    vertex -330.7391381111703 -99.68989967707351 4.999999999999957
  endloop
endfacet
facet normal 0.6087614290086979 0.7933533402912526 0.0
  outer loop
    vertex -330.299145734496 -101.33197358176491 4.999999999999957
    vertex -329.94706420647884 -101.60213524018133 -4.2299497238218464e-14
    vertex -330.299145734496 -101.33197358176491 -4.2299497238218464e-14
  endloop
endfacet
facet normal 0.6087614290086979 0.7933533402912526 0.0
  outer loop
    vertex -329.94706420647884 -101.60213524018133 -4.2299497238218464e-14
    vertex -330.299145734496 -101.33197358176491 4.999999999999957
    vertex -329.94706420647884 -101.60213524018133 4.999999999999957
  endloop
endfacet
facet normal 0.923879532511295 -0.38268343236507024 0.0
  outer loop
    vertex -330.56930739291244 -99.2798920537478 -4.2299497238218464e-14
    vertex -330.7391381111703 -99.68989967707351 4.999999999999957
    vertex -330.7391381111703 -99.68989967707351 -4.2299497238218464e-14
  endloop
endfacet
facet normal 0.923879532511295 -0.38268343236507024 0.0
  outer loop
    vertex -330.7391381111703 -99.68989967707351 4.999999999999957
    vertex -330.56930739291244 -99.2798920537478 -4.2299497238218464e-14
    vertex -330.56930739291244 -99.2798920537478 4.999999999999957
  endloop
endfacet
facet normal -0.13052619222004638 0.991444861373811 0.0
  outer loop
    vertex -329.0970642064789 -101.8298920537478 4.999999999999957
    vertex -328.6570718298046 -101.77196595843921 -4.2299497238218464e-14
    vertex -329.0970642064789 -101.8298920537478 -4.2299497238218464e-14
  endloop
endfacet
facet normal -0.13052619222004638 0.991444861373811 0.0
  outer loop
    vertex -328.6570718298046 -101.77196595843921 -4.2299497238218464e-14
    vertex -329.0970642064789 -101.8298920537478 4.999999999999957
    vertex -328.6570718298046 -101.77196595843921 4.999999999999957
  endloop
endfacet
facet normal 0.923879532511295 0.38268343236507024 0.0
  outer loop
    vertex -330.7391381111703 -100.56988443042208 -4.2299497238218464e-14
    vertex -330.56930739291244 -100.97989205374779 4.999999999999957
    vertex -330.56930739291244 -100.97989205374779 -4.2299497238218464e-14
  endloop
endfacet
facet normal 0.923879532511295 0.38268343236507024 0.0
  outer loop
    vertex -330.56930739291244 -100.97989205374779 4.999999999999957
    vertex -330.7391381111703 -100.56988443042208 -4.2299497238218464e-14
    vertex -330.7391381111703 -100.56988443042208 4.999999999999957
  endloop
endfacet
facet normal -0.793353340291197 0.6087614290087705 0.0
  outer loop
    vertex -327.62482102004526 -100.97989205374779 4.999999999999957
    vertex -327.89498267846176 -101.33197358176491 -4.2299497238218464e-14
    vertex -327.89498267846176 -101.33197358176491 4.999999999999957
  endloop
endfacet
facet normal -0.793353340291197 0.6087614290087705 0.0
  outer loop
    vertex -327.89498267846176 -101.33197358176491 -4.2299497238218464e-14
    vertex -327.62482102004526 -100.97989205374779 4.999999999999957
    vertex -327.62482102004526 -100.97989205374779 -4.2299497238218464e-14
  endloop
endfacet
facet normal -0.923879532511295 0.38268343236507024 0.0
  outer loop
    vertex -327.4549903017874 -100.56988443042208 4.999999999999957
    vertex -327.62482102004526 -100.97989205374779 -4.2299497238218464e-14
    vertex -327.62482102004526 -100.97989205374779 4.999999999999957
  endloop
endfacet
facet normal -0.923879532511295 0.38268343236507024 0.0
  outer loop
    vertex -327.62482102004526 -100.97989205374779 -4.2299497238218464e-14
    vertex -327.4549903017874 -100.56988443042208 4.999999999999957
    vertex -327.4549903017874 -100.56988443042208 -4.2299497238218464e-14
  endloop
endfacet
facet normal -0.9914448613738268 0.13052619221992806 0.0
  outer loop
    vertex -327.3970642064789 -100.1298920537478 4.999999999999957
    vertex -327.4549903017874 -100.56988443042208 -4.2299497238218464e-14
    vertex -327.4549903017874 -100.56988443042208 4.999999999999957
  endloop
endfacet
facet normal -0.9914448613738268 0.13052619221992806 0.0
  outer loop
    vertex -327.4549903017874 -100.56988443042208 -4.2299497238218464e-14
    vertex -327.3970642064789 -100.1298920537478 4.999999999999957
    vertex -327.3970642064789 -100.1298920537478 -4.2299497238218464e-14
  endloop
endfacet
facet normal -0.9914448613738268 -0.13052619221992806 -0.0
  outer loop
    vertex -327.4549903017874 -99.68989967707351 4.999999999999957
    vertex -327.3970642064789 -100.1298920537478 -4.2299497238218464e-14
    vertex -327.3970642064789 -100.1298920537478 4.999999999999957
  endloop
endfacet
facet normal -0.9914448613738268 -0.13052619221992806 -0.0
  outer loop
    vertex -327.3970642064789 -100.1298920537478 -4.2299497238218464e-14
    vertex -327.4549903017874 -99.68989967707351 4.999999999999957
    vertex -327.4549903017874 -99.68989967707351 -4.2299497238218464e-14
  endloop
endfacet
facet normal -0.923879532511295 -0.38268343236507024 -0.0
  outer loop
    vertex -327.62482102004526 -99.2798920537478 4.999999999999957
    vertex -327.4549903017874 -99.68989967707351 -4.2299497238218464e-14
    vertex -327.4549903017874 -99.68989967707351 4.999999999999957
  endloop
endfacet
facet normal -0.923879532511295 -0.38268343236507024 -0.0
  outer loop
    vertex -327.4549903017874 -99.68989967707351 -4.2299497238218464e-14
    vertex -327.62482102004526 -99.2798920537478 4.999999999999957
    vertex -327.62482102004526 -99.2798920537478 -4.2299497238218464e-14
  endloop
endfacet
facet normal 0.0 -0.7071067811865481 -0.7071067811865469
  outer loop
    vertex -324.0970642064788 -194.529892053748 4.99999999999996
    vertex -334.0970642064788 -189.529892053748 -3.947953075567056e-14
    vertex -324.0970642064788 -189.529892053748 -3.947953075567056e-14
  endloop
endfacet
facet normal 0.0 -0.7071067811865481 -0.7071067811865469
  outer loop
    vertex -334.0970642064788 -189.529892053748 -3.947953075567056e-14
    vertex -324.0970642064788 -194.529892053748 4.99999999999996
    vertex -334.0970642064788 -194.529892053748 4.99999999999996
  endloop
endfacet
facet normal 1.0 0.0 0.0
  outer loop
    vertex -324.0970642064788 -70.12989205374781 -3.947953075567056e-14
    vertex -324.0970642064788 -182.529892053748 4.99999999999996
    vertex -324.0970642064788 -189.529892053748 -3.947953075567056e-14
  endloop
endfacet
facet normal 1.0 0.0 0.0
  outer loop
    vertex -324.0970642064788 -182.529892053748 4.99999999999996
    vertex -324.0970642064788 -70.12989205374781 -3.947953075567056e-14
    vertex -324.0970642064788 -77.1298920537478 4.99999999999996
  endloop
endfacet
facet normal 1.0 0.0 0.0
  outer loop
    vertex -324.0970642064788 -77.1298920537478 4.99999999999996
    vertex -324.0970642064788 -70.12989205374781 -3.947953075567056e-14
    vertex -324.0970642064788 -77.1298920537478 8.237499999999985
  endloop
endfacet
facet normal 1.0 0.0 0.0
  outer loop
    vertex -324.0970642064788 -77.1298920537478 8.237499999999985
    vertex -324.0970642064788 -70.12989205374781 -3.947953075567056e-14
    vertex -324.0970642064788 -65.1298920537478 8.237499999999985
  endloop
endfacet
facet normal 1.0 0.0 0.0
  outer loop
    vertex -324.0970642064788 -65.1298920537478 8.237499999999985
    vertex -324.0970642064788 -70.12989205374781 -3.947953075567056e-14
    vertex -324.0970642064788 -65.1298920537478 4.999999999999961
  endloop
endfacet
facet normal 1.0 0.0 0.0
  outer loop
    vertex -324.0970642064788 -189.529892053748 -3.947953075567056e-14
    vertex -324.0970642064788 -194.529892053748 8.23749999999998
    vertex -324.0970642064788 -194.529892053748 4.99999999999996
  endloop
endfacet
facet normal 1.0 0.0 0.0
  outer loop
    vertex -324.0970642064788 -194.529892053748 8.23749999999998
    vertex -324.0970642064788 -189.529892053748 -3.947953075567056e-14
    vertex -324.0970642064788 -182.529892053748 8.23749999999998
  endloop
endfacet
facet normal 1.0 0.0 0.0
  outer loop
    vertex -324.0970642064788 -182.529892053748 8.23749999999998
    vertex -324.0970642064788 -189.529892053748 -3.947953075567056e-14
    vertex -324.0970642064788 -182.529892053748 4.99999999999996
  endloop
endfacet
facet normal 1.5827513291311986e-17 0.7071067811865474 -0.7071067811865477
  outer loop
    vertex -324.0970642064788 -65.1298920537478 4.999999999999961
    vertex -334.0970642064788 -70.12989205374781 -3.947953075567056e-14
    vertex -334.0970642064788 -65.1298920537478 4.999999999999961
  endloop
endfacet
facet normal 1.5827513291311986e-17 0.7071067811865474 -0.7071067811865477
  outer loop
    vertex -334.0970642064788 -70.12989205374781 -3.947953075567056e-14
    vertex -324.0970642064788 -65.1298920537478 4.999999999999961
    vertex -324.0970642064788 -70.12989205374781 -3.947953075567056e-14
  endloop
endfacet
endsolid Enclosure
