solid Enclosure
facet normal 0.38268343236511887 -0.9238795325112749 0.0
  outer loop
    vertex -719.803803904322 -723.590873746734 4.9999999999999964
    vertex -720.2138115276477 -723.7607044649918 0.0
    vertex -719.803803904322 -723.590873746734 0.0
  endloop
endfacet
facet normal 0.38268343236511887 -0.9238795325112749 0.0
  outer loop
    vertex -720.2138115276477 -723.7607044649918 0.0
    vertex -719.803803904322 -723.590873746734 4.9999999999999964
    vertex -720.2138115276477 -723.7607044649918 4.9999999999999964
  endloop
endfacet
facet normal -0.9238795325112958 0.38268343236506797 0.0
  outer loop
    vertex -717.7217376229561 -725.6729400280997 5.000000000000002
    vertex -717.891568341214 -726.0829476514255 0.0
    vertex -717.891568341214 -726.0829476514255 5.000000000000002
  endloop
endfacet
facet normal -0.9238795325112958 0.38268343236506797 0.0
  outer loop
    vertex -717.891568341214 -726.0829476514255 0.0
    vertex -717.7217376229561 -725.6729400280997 5.000000000000002
    vertex -717.7217376229561 -725.6729400280997 0.0
  endloop
endfacet
facet normal -0.38268343236511343 0.923879532511277 0.0
  outer loop
    vertex -718.9238191509734 -726.8750215561168 5.000000000000002
    vertex -718.5138115276477 -726.7051908378589 0.0
    vertex -718.9238191509734 -726.8750215561168 0.0
  endloop
endfacet
facet normal -0.38268343236511343 0.923879532511277 0.0
  outer loop
    vertex -718.5138115276477 -726.7051908378589 0.0
    vertex -718.9238191509734 -726.8750215561168 5.000000000000002
    vertex -718.5138115276477 -726.7051908378589 5.000000000000002
  endloop
endfacet
facet normal 0.9238795325112958 -0.38268343236506797 0.0
  outer loop
    vertex -720.8360547140812 -724.3829476514254 0.0
    vertex -721.005885432339 -724.7929552747512 5.000000000000002
    vertex -721.005885432339 -724.7929552747512 0.0
  endloop
endfacet
facet normal 0.9238795325112958 -0.38268343236506797 0.0
  outer loop
    vertex -721.005885432339 -724.7929552747512 5.000000000000002
    vertex -720.8360547140812 -724.3829476514254 0.0
    vertex -720.8360547140812 -724.3829476514254 5.000000000000002
  endloop
endfacet
facet normal -0.1305261922200464 0.9914448613738113 0.0
  outer loop
    vertex -719.3638115276475 -726.9329476514254 5.000000000000002
    vertex -718.9238191509734 -726.8750215561168 0.0
    vertex -719.3638115276475 -726.9329476514254 0.0
  endloop
endfacet
facet normal -0.1305261922200464 0.9914448613738113 0.0
  outer loop
    vertex -718.9238191509734 -726.8750215561168 0.0
    vertex -719.3638115276475 -726.9329476514254 5.000000000000002
    vertex -718.9238191509734 -726.8750215561168 5.000000000000002
  endloop
endfacet
facet normal 0.793353340291197 -0.6087614290087705 0.0
  outer loop
    vertex -720.5658930556648 -724.0308661234083 0.0
    vertex -720.8360547140812 -724.3829476514254 5.000000000000002
    vertex -720.8360547140812 -724.3829476514254 0.0
  endloop
endfacet
facet normal 0.793353340291197 -0.6087614290087705 0.0
  outer loop
    vertex -720.8360547140812 -724.3829476514254 5.000000000000002
    vertex -720.5658930556648 -724.0308661234083 0.0
    vertex -720.5658930556648 -724.0308661234083 4.9999999999999964
  endloop
endfacet
facet normal 0.1305261922200464 0.9914448613738113 0.0
  outer loop
    vertex -719.803803904322 -726.8750215561168 5.000000000000002
    vertex -719.3638115276475 -726.9329476514254 0.0
    vertex -719.803803904322 -726.8750215561168 0.0
  endloop
endfacet
facet normal 0.1305261922200464 0.9914448613738113 0.0
  outer loop
    vertex -719.3638115276475 -726.9329476514254 0.0
    vertex -719.803803904322 -726.8750215561168 5.000000000000002
    vertex -719.3638115276475 -726.9329476514254 5.000000000000002
  endloop
endfacet
facet normal -0.9914448613738268 -0.13052619221992806 0.0
  outer loop
    vertex -717.7217376229561 -724.7929552747512 5.000000000000002
    vertex -717.6638115276476 -725.2329476514254 0.0
    vertex -717.6638115276476 -725.2329476514254 5.000000000000002
  endloop
endfacet
facet normal -0.9914448613738268 -0.13052619221992806 0.0
  outer loop
    vertex -717.6638115276476 -725.2329476514254 0.0
    vertex -717.7217376229561 -724.7929552747512 5.000000000000002
    vertex -717.7217376229561 -724.7929552747512 0.0
  endloop
endfacet
facet normal 0.6087614290086979 -0.7933533402912526 0.0
  outer loop
    vertex -720.2138115276477 -723.7607044649918 4.9999999999999964
    vertex -720.5658930556648 -724.0308661234083 0.0
    vertex -720.2138115276477 -723.7607044649918 0.0
  endloop
endfacet
facet normal 0.6087614290086979 -0.7933533402912526 0.0
  outer loop
    vertex -720.5658930556648 -724.0308661234083 0.0
    vertex -720.2138115276477 -723.7607044649918 4.9999999999999964
    vertex -720.5658930556648 -724.0308661234083 4.9999999999999964
  endloop
endfacet
facet normal -0.1305261922200464 -0.9914448613738113 0.0
  outer loop
    vertex -718.9238191509734 -723.590873746734 4.9999999999999964
    vertex -719.3638115276475 -723.5329476514254 0.0
    vertex -718.9238191509734 -723.590873746734 0.0
  endloop
endfacet
facet normal -0.1305261922200464 -0.9914448613738113 0.0
  outer loop
    vertex -719.3638115276475 -723.5329476514254 0.0
    vertex -718.9238191509734 -723.590873746734 4.9999999999999964
    vertex -719.3638115276475 -723.5329476514254 4.9999999999999964
  endloop
endfacet
facet normal 0.1305261922200464 -0.9914448613738113 0.0
  outer loop
    vertex -719.3638115276475 -723.5329476514254 4.9999999999999964
    vertex -719.803803904322 -723.590873746734 0.0
    vertex -719.3638115276475 -723.5329476514254 0.0
  endloop
endfacet
facet normal 0.1305261922200464 -0.9914448613738113 0.0
  outer loop
    vertex -719.803803904322 -723.590873746734 0.0
    vertex -719.3638115276475 -723.5329476514254 4.9999999999999964
    vertex -719.803803904322 -723.590873746734 4.9999999999999964
  endloop
endfacet
facet normal -0.38268343236511887 -0.9238795325112749 0.0
  outer loop
    vertex -718.5138115276477 -723.7607044649918 4.9999999999999964
    vertex -718.9238191509734 -723.590873746734 0.0
    vertex -718.5138115276477 -723.7607044649918 0.0
  endloop
endfacet
facet normal -0.38268343236511887 -0.9238795325112749 0.0
  outer loop
    vertex -718.9238191509734 -723.590873746734 0.0
    vertex -718.5138115276477 -723.7607044649918 4.9999999999999964
    vertex -718.9238191509734 -723.590873746734 4.9999999999999964
  endloop
endfacet
facet normal -0.7933533402911994 -0.6087614290087674 0.0
  outer loop
    vertex -718.1617299996306 -724.0308661234083 4.9999999999999964
    vertex -717.891568341214 -724.3829476514254 0.0
    vertex -717.891568341214 -724.3829476514254 5.000000000000002
  endloop
endfacet
facet normal -0.7933533402911994 -0.6087614290087674 0.0
  outer loop
    vertex -717.891568341214 -724.3829476514254 0.0
    vertex -718.1617299996306 -724.0308661234083 4.9999999999999964
    vertex -718.1617299996306 -724.0308661234083 0.0
  endloop
endfacet
facet normal -0.923879532511295 -0.38268343236507024 0.0
  outer loop
    vertex -717.891568341214 -724.3829476514254 5.000000000000002
    vertex -717.7217376229561 -724.7929552747512 0.0
    vertex -717.7217376229561 -724.7929552747512 5.000000000000002
  endloop
endfacet
facet normal -0.923879532511295 -0.38268343236507024 0.0
  outer loop
    vertex -717.7217376229561 -724.7929552747512 0.0
    vertex -717.891568341214 -724.3829476514254 5.000000000000002
    vertex -717.891568341214 -724.3829476514254 0.0
  endloop
endfacet
facet normal -0.6087614290086979 0.7933533402912526 0.0
  outer loop
    vertex -718.5138115276477 -726.7051908378589 5.000000000000002
    vertex -718.1617299996306 -726.4350291794425 0.0
    vertex -718.5138115276477 -726.7051908378589 0.0
  endloop
endfacet
facet normal -0.6087614290086979 0.7933533402912526 0.0
  outer loop
    vertex -718.1617299996306 -726.4350291794425 0.0
    vertex -718.5138115276477 -726.7051908378589 5.000000000000002
    vertex -718.1617299996306 -726.4350291794425 5.000000000000002
  endloop
endfacet
facet normal -0.9914448613738268 0.13052619221992806 0.0
  outer loop
    vertex -717.6638115276476 -725.2329476514254 5.000000000000002
    vertex -717.7217376229561 -725.6729400280997 0.0
    vertex -717.7217376229561 -725.6729400280997 5.000000000000002
  endloop
endfacet
facet normal -0.9914448613738268 0.13052619221992806 0.0
  outer loop
    vertex -717.7217376229561 -725.6729400280997 0.0
    vertex -717.6638115276476 -725.2329476514254 5.000000000000002
    vertex -717.6638115276476 -725.2329476514254 0.0
  endloop
endfacet
facet normal 0.9914448613738268 -0.13052619221992806 0.0
  outer loop
    vertex -721.005885432339 -724.7929552747512 0.0
    vertex -721.0638115276475 -725.2329476514254 5.000000000000002
    vertex -721.0638115276475 -725.2329476514254 0.0
  endloop
endfacet
facet normal 0.9914448613738268 -0.13052619221992806 0.0
  outer loop
    vertex -721.0638115276475 -725.2329476514254 5.000000000000002
    vertex -721.005885432339 -724.7929552747512 0.0
    vertex -721.005885432339 -724.7929552747512 5.000000000000002
  endloop
endfacet
facet normal -0.6087614290086979 -0.7933533402912526 0.0
  outer loop
    vertex -718.1617299996306 -724.0308661234083 4.9999999999999964
    vertex -718.5138115276477 -723.7607044649918 0.0
    vertex -718.1617299996306 -724.0308661234083 0.0
  endloop
endfacet
facet normal -0.6087614290086979 -0.7933533402912526 0.0
  outer loop
    vertex -718.5138115276477 -723.7607044649918 0.0
    vertex -718.1617299996306 -724.0308661234083 4.9999999999999964
    vertex -718.5138115276477 -723.7607044649918 4.9999999999999964
  endloop
endfacet
facet normal -0.7933533402911994 0.6087614290087674 0.0
  outer loop
    vertex -717.891568341214 -726.0829476514255 5.000000000000002
    vertex -718.1617299996306 -726.4350291794425 0.0
    vertex -718.1617299996306 -726.4350291794425 5.000000000000002
  endloop
endfacet
facet normal -0.7933533402911994 0.6087614290087674 0.0
  outer loop
    vertex -718.1617299996306 -726.4350291794425 0.0
    vertex -717.891568341214 -726.0829476514255 5.000000000000002
    vertex -717.891568341214 -726.0829476514255 0.0
  endloop
endfacet
facet normal 0.38268343236511887 0.9238795325112749 0.0
  outer loop
    vertex -720.2138115276477 -726.7051908378589 5.000000000000002
    vertex -719.803803904322 -726.8750215561168 0.0
    vertex -720.2138115276477 -726.7051908378589 0.0
  endloop
endfacet
facet normal 0.38268343236511887 0.9238795325112749 0.0
  outer loop
    vertex -719.803803904322 -726.8750215561168 0.0
    vertex -720.2138115276477 -726.7051908378589 5.000000000000002
    vertex -719.803803904322 -726.8750215561168 5.000000000000002
  endloop
endfacet
facet normal 0.6087614290086979 0.7933533402912526 0.0
  outer loop
    vertex -720.5658930556648 -726.4350291794425 5.000000000000002
    vertex -720.2138115276477 -726.7051908378589 0.0
    vertex -720.5658930556648 -726.4350291794425 0.0
  endloop
endfacet
facet normal 0.6087614290086979 0.7933533402912526 0.0
  outer loop
    vertex -720.2138115276477 -726.7051908378589 0.0
    vertex -720.5658930556648 -726.4350291794425 5.000000000000002
    vertex -720.2138115276477 -726.7051908378589 5.000000000000002
  endloop
endfacet
facet normal 0.923879532511295 0.38268343236507024 0.0
  outer loop
    vertex -721.005885432339 -725.6729400280997 0.0
    vertex -720.8360547140812 -726.0829476514255 5.000000000000002
    vertex -720.8360547140812 -726.0829476514255 0.0
  endloop
endfacet
facet normal 0.923879532511295 0.38268343236507024 0.0
  outer loop
    vertex -720.8360547140812 -726.0829476514255 5.000000000000002
    vertex -721.005885432339 -725.6729400280997 0.0
    vertex -721.005885432339 -725.6729400280997 5.000000000000002
  endloop
endfacet
facet normal 0.9914448613738268 0.13052619221992806 0.0
  outer loop
    vertex -721.0638115276475 -725.2329476514254 0.0
    vertex -721.005885432339 -725.6729400280997 5.000000000000002
    vertex -721.005885432339 -725.6729400280997 0.0
  endloop
endfacet
facet normal 0.9914448613738268 0.13052619221992806 0.0
  outer loop
    vertex -721.005885432339 -725.6729400280997 5.000000000000002
    vertex -721.0638115276475 -725.2329476514254 0.0
    vertex -721.0638115276475 -725.2329476514254 5.000000000000002
  endloop
endfacet
facet normal 0.7933533402911994 0.6087614290087674 0.0
  outer loop
    vertex -720.8360547140812 -726.0829476514255 0.0
    vertex -720.5658930556648 -726.4350291794425 5.000000000000002
    vertex -720.5658930556648 -726.4350291794425 0.0
  endloop
endfacet
facet normal 0.7933533402911994 0.6087614290087674 0.0
  outer loop
    vertex -720.5658930556648 -726.4350291794425 5.000000000000002
    vertex -720.8360547140812 -726.0829476514255 0.0
    vertex -720.8360547140812 -726.0829476514255 5.000000000000002
  endloop
endfacet
facet normal -5.639932965095753e-16 0.0 1.0
  outer loop
    vertex -714.3638115276476 -637.8329476514252 8.237500000000027
    vertex -724.3638115276477 -625.8329476514252 8.237500000000027
    vertex -724.3638115276477 -637.8329476514252 8.237500000000027
  endloop
endfacet
facet normal -5.639932965095753e-16 0.0 1.0
  outer loop
    vertex -724.3638115276477 -625.8329476514252 8.237500000000027
    vertex -714.3638115276476 -637.8329476514252 8.237500000000027
    vertex -714.3638115276476 -625.8329476514252 8.237500000000027
  endloop
endfacet
facet normal 0.0 1.0 0.0
  outer loop
    vertex -724.3638115276477 -625.8329476514252 8.237500000000027
    vertex -714.3638115276476 -625.8329476514252 5.000000000000002
    vertex -724.3638115276475 -625.8329476514252 5.000000000000002
  endloop
endfacet
facet normal 0.0 1.0 0.0
  outer loop
    vertex -714.3638115276476 -625.8329476514252 5.000000000000002
    vertex -724.3638115276477 -625.8329476514252 8.237500000000027
    vertex -714.3638115276476 -625.8329476514252 8.237500000000027
  endloop
endfacet
facet normal -1.0 -5.244990571863477e-31 -2.215950917332079e-14
  outer loop
    vertex -724.3638115276477 -741.9329476514255 8.237500000000022
    vertex -724.3638115276475 -753.9329476514255 5.000000000000008
    vertex -724.3638115276477 -753.9329476514255 8.237500000000027
  endloop
endfacet
facet normal -1.0 -5.244990571863477e-31 -2.215950917332079e-14
  outer loop
    vertex -724.3638115276475 -753.9329476514255 5.000000000000008
    vertex -724.3638115276477 -741.9329476514255 8.237500000000022
    vertex -724.3638115276475 -748.9329476514255 5.639932965095795e-15
  endloop
endfacet
facet normal -1.0 -5.244990571863477e-31 -2.215950917332079e-14
  outer loop
    vertex -724.3638115276475 -748.9329476514255 5.639932965095795e-15
    vertex -724.3638115276477 -741.9329476514255 8.237500000000022
    vertex -724.3638115276477 -741.9329476514255 5.000000000000002
  endloop
endfacet
facet normal -1.0 -5.244990571863477e-31 -2.215950917332079e-14
  outer loop
    vertex -724.3638115276477 -625.8329476514252 8.237500000000027
    vertex -724.3638115276477 -637.8329476514252 4.9999999999999964
    vertex -724.3638115276477 -637.8329476514252 8.237500000000027
  endloop
endfacet
facet normal -1.0 -5.244990571863477e-31 -2.215950917332079e-14
  outer loop
    vertex -724.3638115276477 -637.8329476514252 4.9999999999999964
    vertex -724.3638115276477 -625.8329476514252 8.237500000000027
    vertex -724.3638115276475 -630.8329476514252 -1.127986593019159e-14
  endloop
endfacet
facet normal -1.0 -5.244990571863477e-31 -2.215950917332079e-14
  outer loop
    vertex -724.3638115276475 -630.8329476514252 -1.127986593019159e-14
    vertex -724.3638115276477 -625.8329476514252 8.237500000000027
    vertex -724.3638115276475 -625.8329476514252 5.000000000000002
  endloop
endfacet
facet normal -1.0 -5.244990571863477e-31 -2.215950917332079e-14
  outer loop
    vertex -724.3638115276477 -741.9329476514255 5.000000000000002
    vertex -724.3638115276475 -630.8329476514252 -1.127986593019159e-14
    vertex -724.3638115276475 -748.9329476514255 5.639932965095795e-15
  endloop
endfacet
facet normal -1.0 -5.244990571863477e-31 -2.215950917332079e-14
  outer loop
    vertex -724.3638115276475 -630.8329476514252 -1.127986593019159e-14
    vertex -724.3638115276477 -741.9329476514255 5.000000000000002
    vertex -724.3638115276477 -637.8329476514252 4.9999999999999964
  endloop
endfacet
facet normal 4.783993253748365e-45 4.958996176659031e-16 1.0
  outer loop
    vertex -714.3638115276476 -753.9329476514255 8.237500000000027
    vertex -724.3638115276477 -741.9329476514255 8.237500000000022
    vertex -724.3638115276477 -753.9329476514255 8.237500000000027
  endloop
endfacet
facet normal 4.783993253748365e-45 4.958996176659031e-16 1.0
  outer loop
    vertex -724.3638115276477 -741.9329476514255 8.237500000000022
    vertex -714.3638115276476 -753.9329476514255 8.237500000000027
    vertex -714.3638115276476 -741.9329476514255 8.237500000000022
  endloop
endfacet
facet normal 0.0 -1.0 0.0
  outer loop
    vertex -714.3638115276476 -637.8329476514252 5.000000000000002
    vertex -724.3638115276477 -637.8329476514252 8.237500000000027
    vertex -724.3638115276477 -637.8329476514252 4.9999999999999964
  endloop
endfacet
facet normal 0.0 -1.0 0.0
  outer loop
    vertex -724.3638115276477 -637.8329476514252 8.237500000000027
    vertex -714.3638115276476 -637.8329476514252 5.000000000000002
    vertex -714.3638115276476 -637.8329476514252 8.237500000000027
  endloop
endfacet
facet normal 0.0 1.0 -1.2979750264729524e-15
  outer loop
    vertex -724.3638115276477 -741.9329476514255 8.237500000000022
    vertex -714.3638115276476 -741.9329476514255 5.000000000000002
    vertex -724.3638115276477 -741.9329476514255 5.000000000000002
  endloop
endfacet
facet normal 0.0 1.0 -1.2979750264729524e-15
  outer loop
    vertex -714.3638115276476 -741.9329476514255 5.000000000000002
    vertex -724.3638115276477 -741.9329476514255 8.237500000000022
    vertex -714.3638115276476 -741.9329476514255 8.237500000000022
  endloop
endfacet
facet normal 0.0 -1.0 -4.440892098500626e-16
  outer loop
    vertex -714.3638115276476 -753.9329476514255 8.237500000000027
    vertex -724.3638115276475 -753.9329476514255 5.000000000000008
    vertex -714.3638115276476 -753.9329476514255 5.000000000000008
  endloop
endfacet
facet normal 0.0 -1.0 -4.440892098500626e-16
  outer loop
    vertex -724.3638115276475 -753.9329476514255 5.000000000000008
    vertex -714.3638115276476 -753.9329476514255 8.237500000000027
    vertex -724.3638115276477 -753.9329476514255 8.237500000000027
  endloop
endfacet
facet normal -2.819966482547877e-16 1.642404858715282e-17 1.0
  outer loop
    vertex -724.3638115276477 -741.9329476514255 5.000000000000002
    vertex -721.0638115276475 -725.2329476514254 5.000000000000002
    vertex -724.3638115276477 -637.8329476514252 4.9999999999999964
  endloop
endfacet
facet normal -2.819966482547877e-16 1.642404858715282e-17 1.0
  outer loop
    vertex -721.0638115276475 -725.2329476514254 5.000000000000002
    vertex -724.3638115276477 -741.9329476514255 5.000000000000002
    vertex -721.005885432339 -725.6729400280997 5.000000000000002
  endloop
endfacet
facet normal -2.819966482547877e-16 1.642404858715282e-17 1.0
  outer loop
    vertex -721.005885432339 -725.6729400280997 5.000000000000002
    vertex -724.3638115276477 -741.9329476514255 5.000000000000002
    vertex -714.3638115276476 -741.9329476514255 5.000000000000002
  endloop
endfacet
facet normal -2.819966482547877e-16 1.642404858715282e-17 1.0
  outer loop
    vertex -721.005885432339 -725.6729400280997 5.000000000000002
    vertex -714.3638115276476 -741.9329476514255 5.000000000000002
    vertex -720.8360547140812 -726.0829476514255 5.000000000000002
  endloop
endfacet
facet normal -2.819966482547877e-16 1.642404858715282e-17 1.0
  outer loop
    vertex -720.8360547140812 -726.0829476514255 5.000000000000002
    vertex -714.3638115276476 -741.9329476514255 5.000000000000002
    vertex -720.5658930556648 -726.4350291794425 5.000000000000002
  endloop
endfacet
facet normal -2.819966482547877e-16 1.642404858715282e-17 1.0
  outer loop
    vertex -720.5658930556648 -726.4350291794425 5.000000000000002
    vertex -714.3638115276476 -741.9329476514255 5.000000000000002
    vertex -720.2138115276477 -726.7051908378589 5.000000000000002
  endloop
endfacet
facet normal -2.819966482547877e-16 1.642404858715282e-17 1.0
  outer loop
    vertex -720.2138115276477 -726.7051908378589 5.000000000000002
    vertex -714.3638115276476 -741.9329476514255 5.000000000000002
    vertex -719.803803904322 -726.8750215561168 5.000000000000002
  endloop
endfacet
facet normal -2.819966482547877e-16 1.642404858715282e-17 1.0
  outer loop
    vertex -719.803803904322 -726.8750215561168 5.000000000000002
    vertex -714.3638115276476 -741.9329476514255 5.000000000000002
    vertex -719.3638115276475 -726.9329476514254 5.000000000000002
  endloop
endfacet
facet normal -2.819966482547877e-16 1.642404858715282e-17 1.0
  outer loop
    vertex -719.3638115276475 -726.9329476514254 5.000000000000002
    vertex -714.3638115276476 -741.9329476514255 5.000000000000002
    vertex -718.9238191509734 -726.8750215561168 5.000000000000002
  endloop
endfacet
facet normal -2.819966482547877e-16 1.642404858715282e-17 1.0
  outer loop
    vertex -718.9238191509734 -726.8750215561168 5.000000000000002
    vertex -714.3638115276476 -741.9329476514255 5.000000000000002
    vertex -718.5138115276477 -726.7051908378589 5.000000000000002
  endloop
endfacet
facet normal -2.819966482547877e-16 1.642404858715282e-17 1.0
  outer loop
    vertex -718.5138115276477 -726.7051908378589 5.000000000000002
    vertex -714.3638115276476 -741.9329476514255 5.000000000000002
    vertex -718.1617299996306 -726.4350291794425 5.000000000000002
  endloop
endfacet
facet normal -2.819966482547877e-16 1.642404858715282e-17 1.0
  outer loop
    vertex -718.1617299996306 -726.4350291794425 5.000000000000002
    vertex -714.3638115276476 -741.9329476514255 5.000000000000002
    vertex -717.891568341214 -726.0829476514255 5.000000000000002
  endloop
endfacet
facet normal -2.819966482547877e-16 1.642404858715282e-17 1.0
  outer loop
    vertex -717.891568341214 -726.0829476514255 5.000000000000002
    vertex -714.3638115276476 -741.9329476514255 5.000000000000002
    vertex -717.7217376229561 -725.6729400280997 5.000000000000002
  endloop
endfacet
facet normal -2.819966482547877e-16 1.642404858715282e-17 1.0
  outer loop
    vertex -717.7217376229561 -725.6729400280997 5.000000000000002
    vertex -714.3638115276476 -741.9329476514255 5.000000000000002
    vertex -717.6638115276476 -725.2329476514254 5.000000000000002
  endloop
endfacet
facet normal -2.819966482547877e-16 1.642404858715282e-17 1.0
  outer loop
    vertex -717.6638115276476 -725.2329476514254 5.000000000000002
    vertex -714.3638115276476 -741.9329476514255 5.000000000000002
    vertex -717.6638115276476 -659.5829476514253 5.000000000000013
  endloop
endfacet
facet normal -2.819966482547877e-16 1.642404858715282e-17 1.0
  outer loop
    vertex -724.3638115276477 -637.8329476514252 4.9999999999999964
    vertex -721.005885432339 -659.1429552747512 5.000000000000008
    vertex -714.3638115276476 -637.8329476514252 5.000000000000002
  endloop
endfacet
facet normal -2.819966482547877e-16 1.642404858715282e-17 1.0
  outer loop
    vertex -721.005885432339 -659.1429552747512 5.000000000000008
    vertex -724.3638115276477 -637.8329476514252 4.9999999999999964
    vertex -721.0638115276475 -659.5829476514253 5.000000000000013
  endloop
endfacet
facet normal -2.819966482547877e-16 1.642404858715282e-17 1.0
  outer loop
    vertex -721.0638115276475 -659.5829476514253 5.000000000000013
    vertex -724.3638115276477 -637.8329476514252 4.9999999999999964
    vertex -721.0638115276475 -725.2329476514254 5.000000000000002
  endloop
endfacet
facet normal -2.819966482547877e-16 1.642404858715282e-17 1.0
  outer loop
    vertex -714.3638115276476 -637.8329476514252 5.000000000000002
    vertex -721.005885432339 -659.1429552747512 5.000000000000008
    vertex -720.8360547140812 -658.7329476514254 5.000000000000008
  endloop
endfacet
facet normal -2.819966482547877e-16 1.642404858715282e-17 1.0
  outer loop
    vertex -714.3638115276476 -637.8329476514252 5.000000000000002
    vertex -720.8360547140812 -658.7329476514254 5.000000000000008
    vertex -720.5658930556648 -658.3808661234083 5.000000000000008
  endloop
endfacet
facet normal -2.819966482547877e-16 1.642404858715282e-17 1.0
  outer loop
    vertex -714.3638115276476 -637.8329476514252 5.000000000000002
    vertex -720.5658930556648 -658.3808661234083 5.000000000000008
    vertex -720.2138115276477 -658.110704464992 5.000000000000008
  endloop
endfacet
facet normal -2.819966482547877e-16 1.642404858715282e-17 1.0
  outer loop
    vertex -714.3638115276476 -637.8329476514252 5.000000000000002
    vertex -720.2138115276477 -658.110704464992 5.000000000000008
    vertex -719.803803904322 -657.9408737467339 5.000000000000008
  endloop
endfacet
facet normal -2.819966482547877e-16 1.642404858715282e-17 1.0
  outer loop
    vertex -714.3638115276476 -637.8329476514252 5.000000000000002
    vertex -719.803803904322 -657.9408737467339 5.000000000000008
    vertex -719.3638115276475 -657.8829476514254 4.9999999999999964
  endloop
endfacet
facet normal -2.819966482547877e-16 1.642404858715282e-17 1.0
  outer loop
    vertex -714.3638115276476 -637.8329476514252 5.000000000000002
    vertex -719.3638115276475 -657.8829476514254 4.9999999999999964
    vertex -718.9238191509734 -657.9408737467339 5.000000000000008
  endloop
endfacet
facet normal -2.819966482547877e-16 1.642404858715282e-17 1.0
  outer loop
    vertex -714.3638115276476 -637.8329476514252 5.000000000000002
    vertex -718.9238191509734 -657.9408737467339 5.000000000000008
    vertex -718.5138115276477 -658.110704464992 5.000000000000008
  endloop
endfacet
facet normal -2.819966482547877e-16 1.642404858715282e-17 1.0
  outer loop
    vertex -714.3638115276476 -637.8329476514252 5.000000000000002
    vertex -718.5138115276477 -658.110704464992 5.000000000000008
    vertex -718.1617299996306 -658.3808661234083 5.000000000000008
  endloop
endfacet
facet normal -2.819966482547877e-16 1.642404858715282e-17 1.0
  outer loop
    vertex -714.3638115276476 -637.8329476514252 5.000000000000002
    vertex -718.1617299996306 -658.3808661234083 5.000000000000008
    vertex -717.891568341214 -658.7329476514254 5.000000000000008
  endloop
endfacet
facet normal -2.819966482547877e-16 1.642404858715282e-17 1.0
  outer loop
    vertex -714.3638115276476 -637.8329476514252 5.000000000000002
    vertex -717.891568341214 -658.7329476514254 5.000000000000008
    vertex -717.7217376229561 -659.1429552747512 5.000000000000008
  endloop
endfacet
facet normal -2.819966482547877e-16 1.642404858715282e-17 1.0
  outer loop
    vertex -714.3638115276476 -637.8329476514252 5.000000000000002
    vertex -717.7217376229561 -659.1429552747512 5.000000000000008
    vertex -717.6638115276476 -659.5829476514253 5.000000000000013
  endloop
endfacet
facet normal -2.819966482547877e-16 1.642404858715282e-17 1.0
  outer loop
    vertex -714.3638115276476 -637.8329476514252 5.000000000000002
    vertex -717.6638115276476 -659.5829476514253 5.000000000000013
    vertex -714.3638115276476 -741.9329476514255 5.000000000000002
  endloop
endfacet
facet normal -2.819966482547877e-16 1.642404858715282e-17 1.0
  outer loop
    vertex -721.005885432339 -724.7929552747512 5.000000000000002
    vertex -721.0638115276475 -659.5829476514253 5.000000000000013
    vertex -721.0638115276475 -725.2329476514254 5.000000000000002
  endloop
endfacet
facet normal -2.819966482547877e-16 1.642404858715282e-17 1.0
  outer loop
    vertex -721.0638115276475 -659.5829476514253 5.000000000000013
    vertex -721.005885432339 -724.7929552747512 5.000000000000002
    vertex -721.005885432339 -660.0229400280997 5.000000000000013
  endloop
endfacet
facet normal -2.819966482547877e-16 1.642404858715282e-17 1.0
  outer loop
    vertex -721.005885432339 -660.0229400280997 5.000000000000013
    vertex -721.005885432339 -724.7929552747512 5.000000000000002
    vertex -720.8360547140812 -724.3829476514254 5.000000000000002
  endloop
endfacet
facet normal -2.819966482547877e-16 1.642404858715282e-17 1.0
  outer loop
    vertex -721.005885432339 -660.0229400280997 5.000000000000013
    vertex -720.8360547140812 -724.3829476514254 5.000000000000002
    vertex -720.8360547140812 -660.4329476514254 5.000000000000013
  endloop
endfacet
facet normal -2.819966482547877e-16 1.642404858715282e-17 1.0
  outer loop
    vertex -720.8360547140812 -660.4329476514254 5.000000000000013
    vertex -720.8360547140812 -724.3829476514254 5.000000000000002
    vertex -720.5658930556648 -724.0308661234083 4.9999999999999964
  endloop
endfacet
facet normal -2.819966482547877e-16 1.642404858715282e-17 1.0
  outer loop
    vertex -720.8360547140812 -660.4329476514254 5.000000000000013
    vertex -720.5658930556648 -724.0308661234083 4.9999999999999964
    vertex -720.5658930556648 -660.7850291794425 5.000000000000013
  endloop
endfacet
facet normal -2.819966482547877e-16 1.642404858715282e-17 1.0
  outer loop
    vertex -720.5658930556648 -660.7850291794425 5.000000000000013
    vertex -720.5658930556648 -724.0308661234083 4.9999999999999964
    vertex -720.2138115276477 -723.7607044649918 4.9999999999999964
  endloop
endfacet
facet normal -2.819966482547877e-16 1.642404858715282e-17 1.0
  outer loop
    vertex -720.5658930556648 -660.7850291794425 5.000000000000013
    vertex -720.2138115276477 -723.7607044649918 4.9999999999999964
    vertex -720.2138115276477 -661.0551908378588 5.000000000000013
  endloop
endfacet
facet normal -2.819966482547877e-16 1.642404858715282e-17 1.0
  outer loop
    vertex -720.2138115276477 -661.0551908378588 5.000000000000013
    vertex -720.2138115276477 -723.7607044649918 4.9999999999999964
    vertex -719.803803904322 -723.590873746734 4.9999999999999964
  endloop
endfacet
facet normal -2.819966482547877e-16 1.642404858715282e-17 1.0
  outer loop
    vertex -720.2138115276477 -661.0551908378588 5.000000000000013
    vertex -719.803803904322 -723.590873746734 4.9999999999999964
    vertex -719.803803904322 -661.2250215561169 5.000000000000013
  endloop
endfacet
facet normal -2.819966482547877e-16 1.642404858715282e-17 1.0
  outer loop
    vertex -719.803803904322 -661.2250215561169 5.000000000000013
    vertex -719.803803904322 -723.590873746734 4.9999999999999964
    vertex -719.3638115276475 -723.5329476514254 4.9999999999999964
  endloop
endfacet
facet normal -2.819966482547877e-16 1.642404858715282e-17 1.0
  outer loop
    vertex -719.803803904322 -661.2250215561169 5.000000000000013
    vertex -719.3638115276475 -723.5329476514254 4.9999999999999964
    vertex -719.3638115276475 -661.2829476514254 5.000000000000013
  endloop
endfacet
facet normal -2.819966482547877e-16 1.642404858715282e-17 1.0
  outer loop
    vertex -719.3638115276475 -661.2829476514254 5.000000000000013
    vertex -719.3638115276475 -723.5329476514254 4.9999999999999964
    vertex -718.9238191509734 -723.590873746734 4.9999999999999964
  endloop
endfacet
facet normal -2.819966482547877e-16 1.642404858715282e-17 1.0
  outer loop
    vertex -719.3638115276475 -661.2829476514254 5.000000000000013
    vertex -718.9238191509734 -723.590873746734 4.9999999999999964
    vertex -718.9238191509734 -661.2250215561169 5.000000000000013
  endloop
endfacet
facet normal -2.819966482547877e-16 1.642404858715282e-17 1.0
  outer loop
    vertex -718.9238191509734 -661.2250215561169 5.000000000000013
    vertex -718.9238191509734 -723.590873746734 4.9999999999999964
    vertex -718.5138115276477 -723.7607044649918 4.9999999999999964
  endloop
endfacet
facet normal -2.819966482547877e-16 1.642404858715282e-17 1.0
  outer loop
    vertex -718.9238191509734 -661.2250215561169 5.000000000000013
    vertex -718.5138115276477 -723.7607044649918 4.9999999999999964
    vertex -718.5138115276477 -661.0551908378588 5.000000000000013
  endloop
endfacet
facet normal -2.819966482547877e-16 1.642404858715282e-17 1.0
  outer loop
    vertex -718.5138115276477 -661.0551908378588 5.000000000000013
    vertex -718.5138115276477 -723.7607044649918 4.9999999999999964
    vertex -718.1617299996306 -724.0308661234083 4.9999999999999964
  endloop
endfacet
facet normal -2.819966482547877e-16 1.642404858715282e-17 1.0
  outer loop
    vertex -718.5138115276477 -661.0551908378588 5.000000000000013
    vertex -718.1617299996306 -724.0308661234083 4.9999999999999964
    vertex -718.1617299996306 -660.7850291794425 5.000000000000013
  endloop
endfacet
facet normal -2.819966482547877e-16 1.642404858715282e-17 1.0
  outer loop
    vertex -718.1617299996306 -660.7850291794425 5.000000000000013
    vertex -718.1617299996306 -724.0308661234083 4.9999999999999964
    vertex -717.891568341214 -724.3829476514254 5.000000000000002
  endloop
endfacet
facet normal -2.819966482547877e-16 1.642404858715282e-17 1.0
  outer loop
    vertex -718.1617299996306 -660.7850291794425 5.000000000000013
    vertex -717.891568341214 -724.3829476514254 5.000000000000002
    vertex -717.891568341214 -660.4329476514254 5.000000000000013
  endloop
endfacet
facet normal -2.819966482547877e-16 1.642404858715282e-17 1.0
  outer loop
    vertex -717.891568341214 -660.4329476514254 5.000000000000013
    vertex -717.891568341214 -724.3829476514254 5.000000000000002
    vertex -717.7217376229561 -724.7929552747512 5.000000000000002
  endloop
endfacet
facet normal -2.819966482547877e-16 1.642404858715282e-17 1.0
  outer loop
    vertex -717.891568341214 -660.4329476514254 5.000000000000013
    vertex -717.7217376229561 -724.7929552747512 5.000000000000002
    vertex -717.7217376229561 -660.0229400280997 5.000000000000013
  endloop
endfacet
facet normal -2.819966482547877e-16 1.642404858715282e-17 1.0
  outer loop
    vertex -717.7217376229561 -660.0229400280997 5.000000000000013
    vertex -717.7217376229561 -724.7929552747512 5.000000000000002
    vertex -717.6638115276476 -725.2329476514254 5.000000000000002
  endloop
endfacet
facet normal -2.819966482547877e-16 1.642404858715282e-17 1.0
  outer loop
    vertex -717.7217376229561 -660.0229400280997 5.000000000000013
    vertex -717.6638115276476 -725.2329476514254 5.000000000000002
    vertex -717.6638115276476 -659.5829476514253 5.000000000000013
  endloop
endfacet
facet normal 0.0 -1.2897764519777306e-16 -1.0
  outer loop
    vertex -724.3638115276475 -630.8329476514252 -1.127986593019159e-14
    vertex -721.0638115276475 -659.5829476514253 5.639932965095795e-15
    vertex -724.3638115276475 -748.9329476514255 5.639932965095795e-15
  endloop
endfacet
facet normal 0.0 -1.2897764519777306e-16 -1.0
  outer loop
    vertex -721.0638115276475 -659.5829476514253 5.639932965095795e-15
    vertex -724.3638115276475 -630.8329476514252 -1.127986593019159e-14
    vertex -721.005885432339 -659.1429552747512 5.639932965095795e-15
  endloop
endfacet
facet normal 0.0 -1.2897764519777306e-16 -1.0
  outer loop
    vertex -721.005885432339 -659.1429552747512 5.639932965095795e-15
    vertex -724.3638115276475 -630.8329476514252 -1.127986593019159e-14
    vertex -714.3638115276476 -630.8329476514252 -1.127986593019159e-14
  endloop
endfacet
facet normal 0.0 -1.2897764519777306e-16 -1.0
  outer loop
    vertex -721.005885432339 -659.1429552747512 5.639932965095795e-15
    vertex -714.3638115276476 -630.8329476514252 -1.127986593019159e-14
    vertex -720.8360547140812 -658.7329476514254 0.0
  endloop
endfacet
facet normal 0.0 -1.2897764519777306e-16 -1.0
  outer loop
    vertex -720.8360547140812 -658.7329476514254 0.0
    vertex -714.3638115276476 -630.8329476514252 -1.127986593019159e-14
    vertex -720.5658930556648 -658.3808661234083 0.0
  endloop
endfacet
facet normal 0.0 -1.2897764519777306e-16 -1.0
  outer loop
    vertex -720.5658930556648 -658.3808661234083 0.0
    vertex -714.3638115276476 -630.8329476514252 -1.127986593019159e-14
    vertex -720.2138115276477 -658.110704464992 0.0
  endloop
endfacet
facet normal 0.0 -1.2897764519777306e-16 -1.0
  outer loop
    vertex -720.2138115276477 -658.110704464992 0.0
    vertex -714.3638115276476 -630.8329476514252 -1.127986593019159e-14
    vertex -719.803803904322 -657.9408737467339 0.0
  endloop
endfacet
facet normal 0.0 -1.2897764519777306e-16 -1.0
  outer loop
    vertex -719.803803904322 -657.9408737467339 0.0
    vertex -714.3638115276476 -630.8329476514252 -1.127986593019159e-14
    vertex -719.3638115276475 -657.8829476514254 0.0
  endloop
endfacet
facet normal 0.0 -1.2897764519777306e-16 -1.0
  outer loop
    vertex -719.3638115276475 -657.8829476514254 0.0
    vertex -714.3638115276476 -630.8329476514252 -1.127986593019159e-14
    vertex -718.9238191509734 -657.9408737467339 0.0
  endloop
endfacet
facet normal 0.0 -1.2897764519777306e-16 -1.0
  outer loop
    vertex -718.9238191509734 -657.9408737467339 0.0
    vertex -714.3638115276476 -630.8329476514252 -1.127986593019159e-14
    vertex -718.5138115276477 -658.110704464992 0.0
  endloop
endfacet
facet normal 0.0 -1.2897764519777306e-16 -1.0
  outer loop
    vertex -718.5138115276477 -658.110704464992 0.0
    vertex -714.3638115276476 -630.8329476514252 -1.127986593019159e-14
    vertex -718.1617299996306 -658.3808661234083 0.0
  endloop
endfacet
facet normal 0.0 -1.2897764519777306e-16 -1.0
  outer loop
    vertex -718.1617299996306 -658.3808661234083 0.0
    vertex -714.3638115276476 -630.8329476514252 -1.127986593019159e-14
    vertex -717.891568341214 -658.7329476514254 0.0
  endloop
endfacet
facet normal 0.0 -1.2897764519777306e-16 -1.0
  outer loop
    vertex -717.891568341214 -658.7329476514254 0.0
    vertex -714.3638115276476 -630.8329476514252 -1.127986593019159e-14
    vertex -717.7217376229561 -659.1429552747512 5.639932965095795e-15
  endloop
endfacet
facet normal 0.0 -1.2897764519777306e-16 -1.0
  outer loop
    vertex -717.7217376229561 -659.1429552747512 5.639932965095795e-15
    vertex -714.3638115276476 -630.8329476514252 -1.127986593019159e-14
    vertex -717.6638115276476 -659.5829476514253 5.639932965095795e-15
  endloop
endfacet
facet normal 0.0 -1.2897764519777306e-16 -1.0
  outer loop
    vertex -717.6638115276476 -659.5829476514253 5.639932965095795e-15
    vertex -714.3638115276476 -630.8329476514252 -1.127986593019159e-14
    vertex -717.6638115276476 -725.2329476514254 0.0
  endloop
endfacet
facet normal 0.0 -1.2897764519777306e-16 -1.0
  outer loop
    vertex -724.3638115276475 -748.9329476514255 5.639932965095795e-15
    vertex -721.005885432339 -725.6729400280997 0.0
    vertex -714.3638115276476 -748.9329476514255 5.639932965095795e-15
  endloop
endfacet
facet normal 0.0 -1.2897764519777306e-16 -1.0
  outer loop
    vertex -721.005885432339 -725.6729400280997 0.0
    vertex -724.3638115276475 -748.9329476514255 5.639932965095795e-15
    vertex -721.0638115276475 -725.2329476514254 0.0
  endloop
endfacet
facet normal 0.0 -1.2897764519777306e-16 -1.0
  outer loop
    vertex -721.0638115276475 -725.2329476514254 0.0
    vertex -724.3638115276475 -748.9329476514255 5.639932965095795e-15
    vertex -721.0638115276475 -659.5829476514253 5.639932965095795e-15
  endloop
endfacet
facet normal 0.0 -1.2897764519777306e-16 -1.0
  outer loop
    vertex -714.3638115276476 -748.9329476514255 5.639932965095795e-15
    vertex -721.005885432339 -725.6729400280997 0.0
    vertex -720.8360547140812 -726.0829476514255 0.0
  endloop
endfacet
facet normal 0.0 -1.2897764519777306e-16 -1.0
  outer loop
    vertex -714.3638115276476 -748.9329476514255 5.639932965095795e-15
    vertex -720.8360547140812 -726.0829476514255 0.0
    vertex -720.5658930556648 -726.4350291794425 0.0
  endloop
endfacet
facet normal 0.0 -1.2897764519777306e-16 -1.0
  outer loop
    vertex -714.3638115276476 -748.9329476514255 5.639932965095795e-15
    vertex -720.5658930556648 -726.4350291794425 0.0
    vertex -720.2138115276477 -726.7051908378589 0.0
  endloop
endfacet
facet normal 0.0 -1.2897764519777306e-16 -1.0
  outer loop
    vertex -714.3638115276476 -748.9329476514255 5.639932965095795e-15
    vertex -720.2138115276477 -726.7051908378589 0.0
    vertex -719.803803904322 -726.8750215561168 0.0
  endloop
endfacet
facet normal 0.0 -1.2897764519777306e-16 -1.0
  outer loop
    vertex -714.3638115276476 -748.9329476514255 5.639932965095795e-15
    vertex -719.803803904322 -726.8750215561168 0.0
    vertex -719.3638115276475 -726.9329476514254 0.0
  endloop
endfacet
facet normal 0.0 -1.2897764519777306e-16 -1.0
  outer loop
    vertex -714.3638115276476 -748.9329476514255 5.639932965095795e-15
    vertex -719.3638115276475 -726.9329476514254 0.0
    vertex -718.9238191509734 -726.8750215561168 0.0
  endloop
endfacet
facet normal 0.0 -1.2897764519777306e-16 -1.0
  outer loop
    vertex -714.3638115276476 -748.9329476514255 5.639932965095795e-15
    vertex -718.9238191509734 -726.8750215561168 0.0
    vertex -718.5138115276477 -726.7051908378589 0.0
  endloop
endfacet
facet normal 0.0 -1.2897764519777306e-16 -1.0
  outer loop
    vertex -714.3638115276476 -748.9329476514255 5.639932965095795e-15
    vertex -718.5138115276477 -726.7051908378589 0.0
    vertex -718.1617299996306 -726.4350291794425 0.0
  endloop
endfacet
facet normal 0.0 -1.2897764519777306e-16 -1.0
  outer loop
    vertex -714.3638115276476 -748.9329476514255 5.639932965095795e-15
    vertex -718.1617299996306 -726.4350291794425 0.0
    vertex -717.891568341214 -726.0829476514255 0.0
  endloop
endfacet
facet normal 0.0 -1.2897764519777306e-16 -1.0
  outer loop
    vertex -714.3638115276476 -748.9329476514255 5.639932965095795e-15
    vertex -717.891568341214 -726.0829476514255 0.0
    vertex -717.7217376229561 -725.6729400280997 0.0
  endloop
endfacet
facet normal 0.0 -1.2897764519777306e-16 -1.0
  outer loop
    vertex -714.3638115276476 -748.9329476514255 5.639932965095795e-15
    vertex -717.7217376229561 -725.6729400280997 0.0
    vertex -717.6638115276476 -725.2329476514254 0.0
  endloop
endfacet
facet normal 0.0 -1.2897764519777306e-16 -1.0
  outer loop
    vertex -714.3638115276476 -748.9329476514255 5.639932965095795e-15
    vertex -717.6638115276476 -725.2329476514254 0.0
    vertex -714.3638115276476 -630.8329476514252 -1.127986593019159e-14
  endloop
endfacet
facet normal 0.0 -1.2897764519777306e-16 -1.0
  outer loop
    vertex -721.005885432339 -660.0229400280997 1.127986593019159e-14
    vertex -721.0638115276475 -725.2329476514254 0.0
    vertex -721.0638115276475 -659.5829476514253 5.639932965095795e-15
  endloop
endfacet
facet normal 0.0 -1.2897764519777306e-16 -1.0
  outer loop
    vertex -721.0638115276475 -725.2329476514254 0.0
    vertex -721.005885432339 -660.0229400280997 1.127986593019159e-14
    vertex -721.005885432339 -724.7929552747512 0.0
  endloop
endfacet
facet normal 0.0 -1.2897764519777306e-16 -1.0
  outer loop
    vertex -721.005885432339 -724.7929552747512 0.0
    vertex -721.005885432339 -660.0229400280997 1.127986593019159e-14
    vertex -720.8360547140812 -660.4329476514254 1.127986593019159e-14
  endloop
endfacet
facet normal 0.0 -1.2897764519777306e-16 -1.0
  outer loop
    vertex -721.005885432339 -724.7929552747512 0.0
    vertex -720.8360547140812 -660.4329476514254 1.127986593019159e-14
    vertex -720.8360547140812 -724.3829476514254 0.0
  endloop
endfacet
facet normal 0.0 -1.2897764519777306e-16 -1.0
  outer loop
    vertex -720.8360547140812 -724.3829476514254 0.0
    vertex -720.8360547140812 -660.4329476514254 1.127986593019159e-14
    vertex -720.5658930556648 -660.7850291794425 1.127986593019159e-14
  endloop
endfacet
facet normal 0.0 -1.2897764519777306e-16 -1.0
  outer loop
    vertex -720.8360547140812 -724.3829476514254 0.0
    vertex -720.5658930556648 -660.7850291794425 1.127986593019159e-14
    vertex -720.5658930556648 -724.0308661234083 0.0
  endloop
endfacet
facet normal 0.0 -1.2897764519777306e-16 -1.0
  outer loop
    vertex -720.5658930556648 -724.0308661234083 0.0
    vertex -720.5658930556648 -660.7850291794425 1.127986593019159e-14
    vertex -720.2138115276477 -661.0551908378588 1.127986593019159e-14
  endloop
endfacet
facet normal 0.0 -1.2897764519777306e-16 -1.0
  outer loop
    vertex -720.5658930556648 -724.0308661234083 0.0
    vertex -720.2138115276477 -661.0551908378588 1.127986593019159e-14
    vertex -720.2138115276477 -723.7607044649918 0.0
  endloop
endfacet
facet normal 0.0 -1.2897764519777306e-16 -1.0
  outer loop
    vertex -720.2138115276477 -723.7607044649918 0.0
    vertex -720.2138115276477 -661.0551908378588 1.127986593019159e-14
    vertex -719.803803904322 -661.2250215561169 1.127986593019159e-14
  endloop
endfacet
facet normal 0.0 -1.2897764519777306e-16 -1.0
  outer loop
    vertex -720.2138115276477 -723.7607044649918 0.0
    vertex -719.803803904322 -661.2250215561169 1.127986593019159e-14
    vertex -719.803803904322 -723.590873746734 0.0
  endloop
endfacet
facet normal 0.0 -1.2897764519777306e-16 -1.0
  outer loop
    vertex -719.803803904322 -723.590873746734 0.0
    vertex -719.803803904322 -661.2250215561169 1.127986593019159e-14
    vertex -719.3638115276475 -661.2829476514254 1.127986593019159e-14
  endloop
endfacet
facet normal 0.0 -1.2897764519777306e-16 -1.0
  outer loop
    vertex -719.803803904322 -723.590873746734 0.0
    vertex -719.3638115276475 -661.2829476514254 1.127986593019159e-14
    vertex -719.3638115276475 -723.5329476514254 0.0
  endloop
endfacet
facet normal 0.0 -1.2897764519777306e-16 -1.0
  outer loop
    vertex -719.3638115276475 -723.5329476514254 0.0
    vertex -719.3638115276475 -661.2829476514254 1.127986593019159e-14
    vertex -718.9238191509734 -661.2250215561169 1.127986593019159e-14
  endloop
endfacet
facet normal 0.0 -1.2897764519777306e-16 -1.0
  outer loop
    vertex -719.3638115276475 -723.5329476514254 0.0
    vertex -718.9238191509734 -661.2250215561169 1.127986593019159e-14
    vertex -718.9238191509734 -723.590873746734 0.0
  endloop
endfacet
facet normal 0.0 -1.2897764519777306e-16 -1.0
  outer loop
    vertex -718.9238191509734 -723.590873746734 0.0
    vertex -718.9238191509734 -661.2250215561169 1.127986593019159e-14
    vertex -718.5138115276477 -661.0551908378588 1.127986593019159e-14
  endloop
endfacet
facet normal 0.0 -1.2897764519777306e-16 -1.0
  outer loop
    vertex -718.9238191509734 -723.590873746734 0.0
    vertex -718.5138115276477 -661.0551908378588 1.127986593019159e-14
    vertex -718.5138115276477 -723.7607044649918 0.0
  endloop
endfacet
facet normal 0.0 -1.2897764519777306e-16 -1.0
  outer loop
    vertex -718.5138115276477 -723.7607044649918 0.0
    vertex -718.5138115276477 -661.0551908378588 1.127986593019159e-14
    vertex -718.1617299996306 -660.7850291794425 1.127986593019159e-14
  endloop
endfacet
facet normal 0.0 -1.2897764519777306e-16 -1.0
  outer loop
    vertex -718.5138115276477 -723.7607044649918 0.0
    vertex -718.1617299996306 -660.7850291794425 1.127986593019159e-14
    vertex -718.1617299996306 -724.0308661234083 0.0
  endloop
endfacet
facet normal 0.0 -1.2897764519777306e-16 -1.0
  outer loop
    vertex -718.1617299996306 -724.0308661234083 0.0
    vertex -718.1617299996306 -660.7850291794425 1.127986593019159e-14
    vertex -717.891568341214 -660.4329476514254 1.127986593019159e-14
  endloop
endfacet
facet normal 0.0 -1.2897764519777306e-16 -1.0
  outer loop
    vertex -718.1617299996306 -724.0308661234083 0.0
    vertex -717.891568341214 -660.4329476514254 1.127986593019159e-14
    vertex -717.891568341214 -724.3829476514254 0.0
  endloop
endfacet
facet normal 0.0 -1.2897764519777306e-16 -1.0
  outer loop
    vertex -717.891568341214 -724.3829476514254 0.0
    vertex -717.891568341214 -660.4329476514254 1.127986593019159e-14
    vertex -717.7217376229561 -660.0229400280997 1.127986593019159e-14
  endloop
endfacet
facet normal 0.0 -1.2897764519777306e-16 -1.0
  outer loop
    vertex -717.891568341214 -724.3829476514254 0.0
    vertex -717.7217376229561 -660.0229400280997 1.127986593019159e-14
    vertex -717.7217376229561 -724.7929552747512 0.0
  endloop
endfacet
facet normal 0.0 -1.2897764519777306e-16 -1.0
  outer loop
    vertex -717.7217376229561 -724.7929552747512 0.0
    vertex -717.7217376229561 -660.0229400280997 1.127986593019159e-14
    vertex -717.6638115276476 -659.5829476514253 5.639932965095795e-15
  endloop
endfacet
facet normal 0.0 -1.2897764519777306e-16 -1.0
  outer loop
    vertex -717.7217376229561 -724.7929552747512 0.0
    vertex -717.6638115276476 -659.5829476514253 5.639932965095795e-15
    vertex -717.6638115276476 -725.2329476514254 0.0
  endloop
endfacet
facet normal 0.793353340291197 -0.6087614290087704 -2.7204765720551776e-16
  outer loop
    vertex -720.5658930556648 -658.3808661234083 0.0
    vertex -720.8360547140812 -658.7329476514254 5.000000000000008
    vertex -720.8360547140812 -658.7329476514254 0.0
  endloop
endfacet
facet normal 0.793353340291197 -0.6087614290087704 -2.7204765720551776e-16
  outer loop
    vertex -720.8360547140812 -658.7329476514254 5.000000000000008
    vertex -720.5658930556648 -658.3808661234083 0.0
    vertex -720.5658930556648 -658.3808661234083 5.000000000000008
  endloop
endfacet
facet normal 0.3826834323650255 -0.9238795325113136 -4.0921420803104487e-16
  outer loop
    vertex -719.803803904322 -657.9408737467339 5.000000000000008
    vertex -720.2138115276477 -658.110704464992 0.0
    vertex -719.803803904322 -657.9408737467339 0.0
  endloop
endfacet
facet normal 0.3826834323650255 -0.9238795325113136 -4.0921420803104487e-16
  outer loop
    vertex -720.2138115276477 -658.110704464992 0.0
    vertex -719.803803904322 -657.9408737467339 5.000000000000008
    vertex -720.2138115276477 -658.110704464992 5.000000000000008
  endloop
endfacet
facet normal -0.13052619222004777 -0.9914448613738109 -4.403375740855029e-16
  outer loop
    vertex -718.9238191509734 -657.9408737467339 5.000000000000008
    vertex -719.3638115276475 -657.8829476514254 0.0
    vertex -718.9238191509734 -657.9408737467339 0.0
  endloop
endfacet
facet normal -0.13052619222004777 -0.9914448613738109 -4.403375740855029e-16
  outer loop
    vertex -719.3638115276475 -657.8829476514254 0.0
    vertex -718.9238191509734 -657.9408737467339 5.000000000000008
    vertex -719.3638115276475 -657.8829476514254 4.9999999999999964
  endloop
endfacet
facet normal 0.6087614290088122 -0.793353340291165 -3.5231965802180727e-16
  outer loop
    vertex -720.2138115276477 -658.110704464992 5.000000000000008
    vertex -720.5658930556648 -658.3808661234083 0.0
    vertex -720.2138115276477 -658.110704464992 0.0
  endloop
endfacet
facet normal 0.6087614290088122 -0.793353340291165 -3.5231965802180727e-16
  outer loop
    vertex -720.5658930556648 -658.3808661234083 0.0
    vertex -720.2138115276477 -658.110704464992 5.000000000000008
    vertex -720.5658930556648 -658.3808661234083 5.000000000000008
  endloop
endfacet
facet normal -0.38268343236516916 -0.9238795325112541 -4.1028493158956807e-16
  outer loop
    vertex -718.5138115276477 -658.110704464992 5.000000000000008
    vertex -718.9238191509734 -657.9408737467339 0.0
    vertex -718.5138115276477 -658.110704464992 0.0
  endloop
endfacet
facet normal -0.38268343236516916 -0.9238795325112541 -4.1028493158956807e-16
  outer loop
    vertex -718.9238191509734 -657.9408737467339 0.0
    vertex -718.5138115276477 -658.110704464992 5.000000000000008
    vertex -718.9238191509734 -657.9408737467339 5.000000000000008
  endloop
endfacet
facet normal -0.6087614290085838 0.7933533402913402 3.506163828120921e-16
  outer loop
    vertex -718.5138115276477 -661.0551908378588 5.000000000000013
    vertex -718.1617299996306 -660.7850291794425 1.127986593019159e-14
    vertex -718.5138115276477 -661.0551908378588 1.127986593019159e-14
  endloop
endfacet
facet normal -0.6087614290085838 0.7933533402913402 3.506163828120921e-16
  outer loop
    vertex -718.1617299996306 -660.7850291794425 1.127986593019159e-14
    vertex -718.5138115276477 -661.0551908378588 5.000000000000013
    vertex -718.1617299996306 -660.7850291794425 5.000000000000013
  endloop
endfacet
facet normal 0.13052619221999512 -0.9914448613738179 -4.3997237021934967e-16
  outer loop
    vertex -719.3638115276475 -657.8829476514254 4.9999999999999964
    vertex -719.803803904322 -657.9408737467339 0.0
    vertex -719.3638115276475 -657.8829476514254 0.0
  endloop
endfacet
facet normal 0.13052619221999512 -0.9914448613738179 -4.3997237021934967e-16
  outer loop
    vertex -719.803803904322 -657.9408737467339 0.0
    vertex -719.3638115276475 -657.8829476514254 4.9999999999999964
    vertex -719.803803904322 -657.9408737467339 5.000000000000008
  endloop
endfacet
facet normal -0.6087614290086156 -0.7933533402913158 -3.52319658021899e-16
  outer loop
    vertex -718.1617299996306 -658.3808661234083 5.000000000000008
    vertex -718.5138115276477 -658.110704464992 0.0
    vertex -718.1617299996306 -658.3808661234083 0.0
  endloop
endfacet
facet normal -0.6087614290086156 -0.7933533402913158 -3.52319658021899e-16
  outer loop
    vertex -718.5138115276477 -658.110704464992 0.0
    vertex -718.1617299996306 -658.3808661234083 5.000000000000008
    vertex -718.5138115276477 -658.110704464992 5.000000000000008
  endloop
endfacet
facet normal -0.7933533402911971 -0.6087614290087705 -2.720476572055824e-16
  outer loop
    vertex -718.1617299996306 -658.3808661234083 5.000000000000008
    vertex -717.891568341214 -658.7329476514254 0.0
    vertex -717.891568341214 -658.7329476514254 5.000000000000008
  endloop
endfacet
facet normal -0.7933533402911971 -0.6087614290087705 -2.720476572055824e-16
  outer loop
    vertex -717.891568341214 -658.7329476514254 0.0
    vertex -718.1617299996306 -658.3808661234083 5.000000000000008
    vertex -718.1617299996306 -658.3808661234083 0.0
  endloop
endfacet
facet normal 0.7933533402911971 0.6087614290087705 2.6642135531537806e-16
  outer loop
    vertex -720.8360547140812 -660.4329476514254 1.127986593019159e-14
    vertex -720.5658930556648 -660.7850291794425 5.000000000000013
    vertex -720.5658930556648 -660.7850291794425 1.127986593019159e-14
  endloop
endfacet
facet normal 0.7933533402911971 0.6087614290087705 2.6642135531537806e-16
  outer loop
    vertex -720.5658930556648 -660.7850291794425 5.000000000000013
    vertex -720.8360547140812 -660.4329476514254 1.127986593019159e-14
    vertex -720.8360547140812 -660.4329476514254 5.000000000000013
  endloop
endfacet
facet normal -0.3826834323652125 0.9238795325112361 4.089924539212679e-16
  outer loop
    vertex -718.9238191509734 -661.2250215561169 5.000000000000013
    vertex -718.5138115276477 -661.0551908378588 1.127986593019159e-14
    vertex -718.9238191509734 -661.2250215561169 1.127986593019159e-14
  endloop
endfacet
facet normal -0.3826834323652125 0.9238795325112361 4.089924539212679e-16
  outer loop
    vertex -718.5138115276477 -661.0551908378588 1.127986593019159e-14
    vertex -718.9238191509734 -661.2250215561169 5.000000000000013
    vertex -718.5138115276477 -661.0551908378588 5.000000000000013
  endloop
endfacet
facet normal 0.13052619222004508 0.9914448613738114 4.402715110772872e-16
  outer loop
    vertex -719.803803904322 -661.2250215561169 5.000000000000013
    vertex -719.3638115276475 -661.2829476514254 1.127986593019159e-14
    vertex -719.803803904322 -661.2250215561169 1.127986593019159e-14
  endloop
endfacet
facet normal 0.13052619222004508 0.9914448613738114 4.402715110772872e-16
  outer loop
    vertex -719.3638115276475 -661.2829476514254 1.127986593019159e-14
    vertex -719.803803904322 -661.2250215561169 5.000000000000013
    vertex -719.3638115276475 -661.2829476514254 5.000000000000013
  endloop
endfacet
facet normal 0.38268343236506874 0.9238795325112956 4.0899245392126305e-16
  outer loop
    vertex -720.2138115276477 -661.0551908378588 5.000000000000013
    vertex -719.803803904322 -661.2250215561169 1.127986593019159e-14
    vertex -720.2138115276477 -661.0551908378588 1.127986593019159e-14
  endloop
endfacet
facet normal 0.38268343236506874 0.9238795325112956 4.0899245392126305e-16
  outer loop
    vertex -719.803803904322 -661.2250215561169 1.127986593019159e-14
    vertex -720.2138115276477 -661.0551908378588 5.000000000000013
    vertex -719.803803904322 -661.2250215561169 5.000000000000013
  endloop
endfacet
facet normal 0.9914448613738276 0.13052619221992148 5.796527356768232e-17
  outer loop
    vertex -721.0638115276475 -659.5829476514253 5.639932965095795e-15
    vertex -721.005885432339 -660.0229400280997 5.000000000000013
    vertex -721.005885432339 -660.0229400280997 1.127986593019159e-14
  endloop
endfacet
facet normal 0.9914448613738276 0.13052619221992148 5.796527356768232e-17
  outer loop
    vertex -721.005885432339 -660.0229400280997 5.000000000000013
    vertex -721.0638115276475 -659.5829476514253 5.639932965095795e-15
    vertex -721.0638115276475 -659.5829476514253 5.000000000000013
  endloop
endfacet
facet normal 0.9914448613738258 -0.13052619221993464 -5.796527356768816e-17
  outer loop
    vertex -721.005885432339 -659.1429552747512 5.639932965095795e-15
    vertex -721.0638115276475 -659.5829476514253 5.000000000000013
    vertex -721.0638115276475 -659.5829476514253 5.639932965095795e-15
  endloop
endfacet
facet normal 0.9914448613738258 -0.13052619221993464 -5.796527356768816e-17
  outer loop
    vertex -721.0638115276475 -659.5829476514253 5.000000000000013
    vertex -721.005885432339 -659.1429552747512 5.639932965095795e-15
    vertex -721.005885432339 -659.1429552747512 5.000000000000008
  endloop
endfacet
facet normal 0.60876142900878 0.7933533402911895 3.523196580218222e-16
  outer loop
    vertex -720.5658930556648 -660.7850291794425 5.000000000000013
    vertex -720.2138115276477 -661.0551908378588 1.127986593019159e-14
    vertex -720.5658930556648 -660.7850291794425 1.127986593019159e-14
  endloop
endfacet
facet normal 0.60876142900878 0.7933533402911895 3.523196580218222e-16
  outer loop
    vertex -720.2138115276477 -661.0551908378588 1.127986593019159e-14
    vertex -720.5658930556648 -660.7850291794425 5.000000000000013
    vertex -720.2138115276477 -661.0551908378588 5.000000000000013
  endloop
endfacet
facet normal 0.9238795325113704 -0.38268343236488767 -1.6898247268230382e-16
  outer loop
    vertex -720.8360547140812 -658.7329476514254 0.0
    vertex -721.005885432339 -659.1429552747512 5.000000000000008
    vertex -721.005885432339 -659.1429552747512 5.639932965095795e-15
  endloop
endfacet
facet normal 0.9238795325113704 -0.38268343236488767 -1.6898247268230382e-16
  outer loop
    vertex -721.005885432339 -659.1429552747512 5.000000000000008
    vertex -720.8360547140812 -658.7329476514254 0.0
    vertex -720.8360547140812 -658.7329476514254 5.000000000000008
  endloop
endfacet
facet normal -0.13052619222009773 0.9914448613738044 4.406367149434352e-16
  outer loop
    vertex -719.3638115276475 -661.2829476514254 5.000000000000013
    vertex -718.9238191509734 -661.2250215561169 1.127986593019159e-14
    vertex -719.3638115276475 -661.2829476514254 1.127986593019159e-14
  endloop
endfacet
facet normal -0.13052619222009773 0.9914448613738044 4.406367149434352e-16
  outer loop
    vertex -718.9238191509734 -661.2250215561169 1.127986593019159e-14
    vertex -719.3638115276475 -661.2829476514254 5.000000000000013
    vertex -718.9238191509734 -661.2250215561169 5.000000000000013
  endloop
endfacet
facet normal 0.9238795325113631 0.38268343236490554 1.701673372113109e-16
  outer loop
    vertex -721.005885432339 -660.0229400280997 1.127986593019159e-14
    vertex -720.8360547140812 -660.4329476514254 5.000000000000013
    vertex -720.8360547140812 -660.4329476514254 1.127986593019159e-14
  endloop
endfacet
facet normal 0.9238795325113631 0.38268343236490554 1.701673372113109e-16
  outer loop
    vertex -720.8360547140812 -660.4329476514254 5.000000000000013
    vertex -721.005885432339 -660.0229400280997 1.127986593019159e-14
    vertex -721.005885432339 -660.0229400280997 5.000000000000013
  endloop
endfacet
facet normal -0.793353340291197 0.6087614290087705 2.708608582563151e-16
  outer loop
    vertex -717.891568341214 -660.4329476514254 5.000000000000013
    vertex -718.1617299996306 -660.7850291794425 1.127986593019159e-14
    vertex -718.1617299996306 -660.7850291794425 5.000000000000013
  endloop
endfacet
facet normal -0.793353340291197 0.6087614290087705 2.708608582563151e-16
  outer loop
    vertex -718.1617299996306 -660.7850291794425 1.127986593019159e-14
    vertex -717.891568341214 -660.4329476514254 5.000000000000013
    vertex -717.891568341214 -660.4329476514254 1.127986593019159e-14
  endloop
endfacet
facet normal -0.9238795325112192 0.38268343236525265 1.6887485954325632e-16
  outer loop
    vertex -717.7217376229561 -660.0229400280997 5.000000000000013
    vertex -717.891568341214 -660.4329476514254 1.127986593019159e-14
    vertex -717.891568341214 -660.4329476514254 5.000000000000013
  endloop
endfacet
facet normal -0.9238795325112192 0.38268343236525265 1.6887485954325632e-16
  outer loop
    vertex -717.891568341214 -660.4329476514254 1.127986593019159e-14
    vertex -717.7217376229561 -660.0229400280997 5.000000000000013
    vertex -717.7217376229561 -660.0229400280997 1.127986593019159e-14
  endloop
endfacet
facet normal -0.9914448613738276 0.13052619221992148 5.796527356768232e-17
  outer loop
    vertex -717.6638115276476 -659.5829476514253 5.000000000000013
    vertex -717.7217376229561 -660.0229400280997 1.127986593019159e-14
    vertex -717.7217376229561 -660.0229400280997 5.000000000000013
  endloop
endfacet
facet normal -0.9914448613738276 0.13052619221992148 5.796527356768232e-17
  outer loop
    vertex -717.7217376229561 -660.0229400280997 1.127986593019159e-14
    vertex -717.6638115276476 -659.5829476514253 5.000000000000013
    vertex -717.6638115276476 -659.5829476514253 5.639932965095795e-15
  endloop
endfacet
facet normal -0.9914448613738258 -0.13052619221993464 -5.796527356768816e-17
  outer loop
    vertex -717.7217376229561 -659.1429552747512 5.000000000000008
    vertex -717.6638115276476 -659.5829476514253 5.639932965095795e-15
    vertex -717.6638115276476 -659.5829476514253 5.000000000000013
  endloop
endfacet
facet normal -0.9914448613738258 -0.13052619221993464 -5.796527356768816e-17
  outer loop
    vertex -717.6638115276476 -659.5829476514253 5.639932965095795e-15
    vertex -717.7217376229561 -659.1429552747512 5.000000000000008
    vertex -717.7217376229561 -659.1429552747512 5.639932965095795e-15
  endloop
endfacet
facet normal -0.9238795325112269 -0.38268343236523483 -1.702749503506651e-16
  outer loop
    vertex -717.891568341214 -658.7329476514254 5.000000000000008
    vertex -717.7217376229561 -659.1429552747512 5.639932965095795e-15
    vertex -717.7217376229561 -659.1429552747512 5.000000000000008
  endloop
endfacet
facet normal -0.9238795325112269 -0.38268343236523483 -1.702749503506651e-16
  outer loop
    vertex -717.7217376229561 -659.1429552747512 5.639932965095795e-15
    vertex -717.891568341214 -658.7329476514254 5.000000000000008
    vertex -717.891568341214 -658.7329476514254 0.0
  endloop
endfacet
facet normal 0.0 -0.7071067811865482 -0.7071067811865469
  outer loop
    vertex -714.3638115276476 -753.9329476514255 5.000000000000008
    vertex -724.3638115276475 -748.9329476514255 5.639932965095795e-15
    vertex -714.3638115276476 -748.9329476514255 5.639932965095795e-15
  endloop
endfacet
facet normal 0.0 -0.7071067811865482 -0.7071067811865469
  outer loop
    vertex -724.3638115276475 -748.9329476514255 5.639932965095795e-15
    vertex -714.3638115276476 -753.9329476514255 5.000000000000008
    vertex -724.3638115276475 -753.9329476514255 5.000000000000008
  endloop
endfacet
facet normal 1.0 0.0 0.0
  outer loop
    vertex -714.3638115276476 -630.8329476514252 -1.127986593019159e-14
    vertex -714.3638115276476 -741.9329476514255 5.000000000000002
    vertex -714.3638115276476 -748.9329476514255 5.639932965095795e-15
  endloop
endfacet
facet normal 1.0 0.0 0.0
  outer loop
    vertex -714.3638115276476 -741.9329476514255 5.000000000000002
    vertex -714.3638115276476 -630.8329476514252 -1.127986593019159e-14
    vertex -714.3638115276476 -637.8329476514252 5.000000000000002
  endloop
endfacet
facet normal 1.0 0.0 0.0
  outer loop
    vertex -714.3638115276476 -637.8329476514252 5.000000000000002
    vertex -714.3638115276476 -630.8329476514252 -1.127986593019159e-14
    vertex -714.3638115276476 -637.8329476514252 8.237500000000027
  endloop
endfacet
facet normal 1.0 0.0 0.0
  outer loop
    vertex -714.3638115276476 -637.8329476514252 8.237500000000027
    vertex -714.3638115276476 -630.8329476514252 -1.127986593019159e-14
    vertex -714.3638115276476 -625.8329476514252 8.237500000000027
  endloop
endfacet
facet normal 1.0 0.0 0.0
  outer loop
    vertex -714.3638115276476 -625.8329476514252 8.237500000000027
    vertex -714.3638115276476 -630.8329476514252 -1.127986593019159e-14
    vertex -714.3638115276476 -625.8329476514252 5.000000000000002
  endloop
endfacet
facet normal 1.0 0.0 0.0
  outer loop
    vertex -714.3638115276476 -748.9329476514255 5.639932965095795e-15
    vertex -714.3638115276476 -753.9329476514255 8.237500000000027
    vertex -714.3638115276476 -753.9329476514255 5.000000000000008
  endloop
endfacet
facet normal 1.0 0.0 0.0
  outer loop
    vertex -714.3638115276476 -753.9329476514255 8.237500000000027
    vertex -714.3638115276476 -748.9329476514255 5.639932965095795e-15
    vertex -714.3638115276476 -741.9329476514255 8.237500000000022
  endloop
endfacet
facet normal 1.0 0.0 0.0
  outer loop
    vertex -714.3638115276476 -741.9329476514255 8.237500000000022
    vertex -714.3638115276476 -748.9329476514255 5.639932965095795e-15
    vertex -714.3638115276476 -741.9329476514255 5.000000000000002
  endloop
endfacet
facet normal 1.5827513291311986e-17 0.7071067811865474 -0.7071067811865477
  outer loop
    vertex -714.3638115276476 -625.8329476514252 5.000000000000002
    vertex -724.3638115276475 -630.8329476514252 -1.127986593019159e-14
    vertex -724.3638115276475 -625.8329476514252 5.000000000000002
  endloop
endfacet
facet normal 1.5827513291311986e-17 0.7071067811865474 -0.7071067811865477
  outer loop
    vertex -724.3638115276475 -630.8329476514252 -1.127986593019159e-14
    vertex -714.3638115276476 -625.8329476514252 5.000000000000002
    vertex -714.3638115276476 -630.8329476514252 -1.127986593019159e-14
  endloop
endfacet
endsolid Enclosure
