solid Enclosure
facet normal 0.38268343236511887 0.9238795325112749 -4.102849315895773e-16
  outer loop
    vertex -868.0706898699862 -53.236460661155505 39.25000000000027
    vertex -868.4806974933119 -53.06662994289765 44.250000000000256
    vertex -868.0706898699862 -53.236460661155505 44.250000000000256
  endloop
endfacet
facet normal 0.38268343236511887 0.9238795325112749 -4.102849315895773e-16
  outer loop
    vertex -868.4806974933119 -53.06662994289765 44.250000000000256
    vertex -868.0706898699862 -53.236460661155505 39.25000000000027
    vertex -868.4806974933119 -53.06662994289765 39.25000000000027
  endloop
endfacet
facet normal -0.9238795325112958 -0.38268343236506797 1.699455831017129e-16
  outer loop
    vertex -865.9886235886204 -51.15439437978979 39.250000000000256
    vertex -866.1584543068783 -50.744386756464095 44.250000000000256
    vertex -866.1584543068783 -50.744386756464095 39.250000000000256
  endloop
endfacet
facet normal -0.9238795325112958 -0.38268343236506797 1.699455831017129e-16
  outer loop
    vertex -866.1584543068783 -50.744386756464095 44.250000000000256
    vertex -865.9886235886204 -51.15439437978979 39.250000000000256
    vertex -865.9886235886204 -51.15439437978979 44.250000000000256
  endloop
endfacet
facet normal -0.38268343236511343 -0.923879532511277 4.1028493158957822e-16
  outer loop
    vertex -867.1907051166376 -49.95231285177268 39.250000000000256
    vertex -866.780697493312 -50.12214357003054 44.250000000000256
    vertex -867.1907051166376 -49.95231285177268 44.250000000000256
  endloop
endfacet
facet normal -0.38268343236511343 -0.923879532511277 4.1028493158957822e-16
  outer loop
    vertex -866.780697493312 -50.12214357003054 44.250000000000256
    vertex -867.1907051166376 -49.95231285177268 39.250000000000256
    vertex -866.780697493312 -50.12214357003054 39.250000000000256
  endloop
endfacet
facet normal 0.9238795325112958 0.38268343236506797 -1.699455831017129e-16
  outer loop
    vertex -869.1029406797454 -52.44438675646409 44.250000000000256
    vertex -869.2727713980032 -52.034379133138366 39.250000000000256
    vertex -869.2727713980032 -52.034379133138366 44.250000000000256
  endloop
endfacet
facet normal 0.9238795325112958 0.38268343236506797 -1.699455831017129e-16
  outer loop
    vertex -869.2727713980032 -52.034379133138366 39.250000000000256
    vertex -869.1029406797454 -52.44438675646409 44.250000000000256
    vertex -869.1029406797454 -52.44438675646409 39.250000000000256
  endloop
endfacet
facet normal -0.13052619222004638 -0.991444861373811 4.402899650974006e-16
  outer loop
    vertex -867.6306974933118 -49.89438675646409 39.250000000000256
    vertex -867.1907051166376 -49.95231285177268 44.250000000000256
    vertex -867.6306974933118 -49.89438675646409 44.250000000000256
  endloop
endfacet
facet normal -0.13052619222004638 -0.991444861373811 4.402899650974006e-16
  outer loop
    vertex -867.1907051166376 -49.95231285177268 44.250000000000256
    vertex -867.6306974933118 -49.89438675646409 39.250000000000256
    vertex -867.1907051166376 -49.95231285177268 39.250000000000256
  endloop
endfacet
facet normal 0.793353340291197 0.6087614290087705 -2.703443819956999e-16
  outer loop
    vertex -868.832779021329 -52.79646828448122 44.250000000000256
    vertex -869.1029406797454 -52.44438675646409 39.250000000000256
    vertex -869.1029406797454 -52.44438675646409 44.250000000000256
  endloop
endfacet
facet normal 0.793353340291197 0.6087614290087705 -2.703443819956999e-16
  outer loop
    vertex -869.1029406797454 -52.44438675646409 39.250000000000256
    vertex -868.832779021329 -52.79646828448122 44.250000000000256
    vertex -868.832779021329 -52.79646828448122 39.25000000000027
  endloop
endfacet
facet normal 0.13052619222004638 -0.991444861373811 4.402899650974006e-16
  outer loop
    vertex -868.0706898699862 -49.95231285177268 39.250000000000256
    vertex -867.6306974933118 -49.89438675646409 44.250000000000256
    vertex -868.0706898699862 -49.95231285177268 44.250000000000256
  endloop
endfacet
facet normal 0.13052619222004638 -0.991444861373811 4.402899650974006e-16
  outer loop
    vertex -867.6306974933118 -49.89438675646409 44.250000000000256
    vertex -868.0706898699862 -49.95231285177268 39.250000000000256
    vertex -867.6306974933118 -49.89438675646409 39.250000000000256
  endloop
endfacet
facet normal -0.9914448613738268 0.13052619221992806 -5.796527356768524e-17
  outer loop
    vertex -865.9886235886204 -52.034379133138366 39.250000000000256
    vertex -865.9306974933119 -51.59438675646408 44.250000000000256
    vertex -865.9306974933119 -51.59438675646408 39.250000000000256
  endloop
endfacet
facet normal -0.9914448613738268 0.13052619221992806 -5.796527356768524e-17
  outer loop
    vertex -865.9306974933119 -51.59438675646408 44.250000000000256
    vertex -865.9886235886204 -52.034379133138366 39.250000000000256
    vertex -865.9886235886204 -52.034379133138366 44.250000000000256
  endloop
endfacet
facet normal 0.6087614290086979 0.7933533402912526 -3.523196580218502e-16
  outer loop
    vertex -868.4806974933119 -53.06662994289765 39.25000000000027
    vertex -868.832779021329 -52.79646828448122 44.250000000000256
    vertex -868.4806974933119 -53.06662994289765 44.250000000000256
  endloop
endfacet
facet normal 0.6087614290086979 0.7933533402912526 -3.523196580218502e-16
  outer loop
    vertex -868.832779021329 -52.79646828448122 44.250000000000256
    vertex -868.4806974933119 -53.06662994289765 39.25000000000027
    vertex -868.832779021329 -52.79646828448122 39.25000000000027
  endloop
endfacet
facet normal -0.13052619222004638 0.991444861373811 -4.402899650974006e-16
  outer loop
    vertex -867.1907051166376 -53.236460661155505 39.25000000000027
    vertex -867.6306974933118 -53.29438675646408 44.250000000000256
    vertex -867.1907051166376 -53.236460661155505 44.250000000000256
  endloop
endfacet
facet normal -0.13052619222004638 0.991444861373811 -4.402899650974006e-16
  outer loop
    vertex -867.6306974933118 -53.29438675646408 44.250000000000256
    vertex -867.1907051166376 -53.236460661155505 39.25000000000027
    vertex -867.6306974933118 -53.29438675646408 39.25000000000027
  endloop
endfacet
facet normal 0.13052619222004638 0.991444861373811 -4.402899650974006e-16
  outer loop
    vertex -867.6306974933118 -53.29438675646408 39.25000000000027
    vertex -868.0706898699862 -53.236460661155505 44.250000000000256
    vertex -867.6306974933118 -53.29438675646408 44.250000000000256
  endloop
endfacet
facet normal 0.13052619222004638 0.991444861373811 -4.402899650974006e-16
  outer loop
    vertex -868.0706898699862 -53.236460661155505 44.250000000000256
    vertex -867.6306974933118 -53.29438675646408 39.25000000000027
    vertex -868.0706898699862 -53.236460661155505 39.25000000000027
  endloop
endfacet
facet normal -0.38268343236511887 0.9238795325112749 -4.102849315895773e-16
  outer loop
    vertex -866.780697493312 -53.06662994289765 39.25000000000027
    vertex -867.1907051166376 -53.236460661155505 44.250000000000256
    vertex -866.780697493312 -53.06662994289765 44.250000000000256
  endloop
endfacet
facet normal -0.38268343236511887 0.9238795325112749 -4.102849315895773e-16
  outer loop
    vertex -867.1907051166376 -53.236460661155505 44.250000000000256
    vertex -866.780697493312 -53.06662994289765 39.25000000000027
    vertex -867.1907051166376 -53.236460661155505 39.25000000000027
  endloop
endfacet
facet normal -0.7933533402911994 0.6087614290087674 -2.703443819956985e-16
  outer loop
    vertex -866.4286159652947 -52.79646828448122 39.25000000000027
    vertex -866.1584543068783 -52.44438675646409 44.250000000000256
    vertex -866.1584543068783 -52.44438675646409 39.250000000000256
  endloop
endfacet
facet normal -0.7933533402911994 0.6087614290087674 -2.703443819956985e-16
  outer loop
    vertex -866.1584543068783 -52.44438675646409 44.250000000000256
    vertex -866.4286159652947 -52.79646828448122 39.25000000000027
    vertex -866.4286159652947 -52.79646828448122 44.250000000000256
  endloop
endfacet
facet normal -0.923879532511295 0.38268343236507024 -1.6994558310171392e-16
  outer loop
    vertex -866.1584543068783 -52.44438675646409 39.250000000000256
    vertex -865.9886235886204 -52.034379133138366 44.250000000000256
    vertex -865.9886235886204 -52.034379133138366 39.250000000000256
  endloop
endfacet
facet normal -0.923879532511295 0.38268343236507024 -1.6994558310171392e-16
  outer loop
    vertex -865.9886235886204 -52.034379133138366 44.250000000000256
    vertex -866.1584543068783 -52.44438675646409 39.250000000000256
    vertex -866.1584543068783 -52.44438675646409 44.250000000000256
  endloop
endfacet
facet normal -0.6087614290086979 -0.7933533402912526 3.523196580218502e-16
  outer loop
    vertex -866.780697493312 -50.12214357003054 39.250000000000256
    vertex -866.4286159652947 -50.392305228446965 44.250000000000256
    vertex -866.780697493312 -50.12214357003054 44.250000000000256
  endloop
endfacet
facet normal -0.6087614290086979 -0.7933533402912526 3.523196580218502e-16
  outer loop
    vertex -866.4286159652947 -50.392305228446965 44.250000000000256
    vertex -866.780697493312 -50.12214357003054 39.250000000000256
    vertex -866.4286159652947 -50.392305228446965 39.250000000000256
  endloop
endfacet
facet normal -0.9914448613738268 -0.13052619221992806 5.796527356768524e-17
  outer loop
    vertex -865.9306974933119 -51.59438675646408 39.250000000000256
    vertex -865.9886235886204 -51.15439437978979 44.250000000000256
    vertex -865.9886235886204 -51.15439437978979 39.250000000000256
  endloop
endfacet
facet normal -0.9914448613738268 -0.13052619221992806 5.796527356768524e-17
  outer loop
    vertex -865.9886235886204 -51.15439437978979 44.250000000000256
    vertex -865.9306974933119 -51.59438675646408 39.250000000000256
    vertex -865.9306974933119 -51.59438675646408 44.250000000000256
  endloop
endfacet
facet normal 0.9914448613738268 0.13052619221992806 -5.796527356768524e-17
  outer loop
    vertex -869.2727713980032 -52.034379133138366 44.250000000000256
    vertex -869.3306974933117 -51.59438675646408 39.250000000000256
    vertex -869.3306974933117 -51.59438675646408 44.250000000000256
  endloop
endfacet
facet normal 0.9914448613738268 0.13052619221992806 -5.796527356768524e-17
  outer loop
    vertex -869.3306974933117 -51.59438675646408 39.250000000000256
    vertex -869.2727713980032 -52.034379133138366 44.250000000000256
    vertex -869.2727713980032 -52.034379133138366 39.250000000000256
  endloop
endfacet
facet normal -0.6087614290086979 0.7933533402912526 -3.523196580218502e-16
  outer loop
    vertex -866.4286159652947 -52.79646828448122 39.25000000000027
    vertex -866.780697493312 -53.06662994289765 44.250000000000256
    vertex -866.4286159652947 -52.79646828448122 44.250000000000256
  endloop
endfacet
facet normal -0.6087614290086979 0.7933533402912526 -3.523196580218502e-16
  outer loop
    vertex -866.780697493312 -53.06662994289765 44.250000000000256
    vertex -866.4286159652947 -52.79646828448122 39.25000000000027
    vertex -866.780697493312 -53.06662994289765 39.25000000000027
  endloop
endfacet
facet normal -0.7933533402911994 -0.6087614290087674 2.703443819956985e-16
  outer loop
    vertex -866.1584543068783 -50.744386756464095 39.250000000000256
    vertex -866.4286159652947 -50.392305228446965 44.250000000000256
    vertex -866.4286159652947 -50.392305228446965 39.250000000000256
  endloop
endfacet
facet normal -0.7933533402911994 -0.6087614290087674 2.703443819956985e-16
  outer loop
    vertex -866.4286159652947 -50.392305228446965 44.250000000000256
    vertex -866.1584543068783 -50.744386756464095 39.250000000000256
    vertex -866.1584543068783 -50.744386756464095 44.250000000000256
  endloop
endfacet
facet normal 0.38268343236511887 -0.9238795325112749 4.102849315895773e-16
  outer loop
    vertex -868.4806974933119 -50.12214357003054 39.250000000000256
    vertex -868.0706898699862 -49.95231285177268 44.250000000000256
    vertex -868.4806974933119 -50.12214357003054 44.250000000000256
  endloop
endfacet
facet normal 0.38268343236511887 -0.9238795325112749 4.102849315895773e-16
  outer loop
    vertex -868.0706898699862 -49.95231285177268 44.250000000000256
    vertex -868.4806974933119 -50.12214357003054 39.250000000000256
    vertex -868.0706898699862 -49.95231285177268 39.250000000000256
  endloop
endfacet
facet normal 0.6087614290086979 -0.7933533402912526 3.523196580218502e-16
  outer loop
    vertex -868.832779021329 -50.392305228446965 39.250000000000256
    vertex -868.4806974933119 -50.12214357003054 44.250000000000256
    vertex -868.832779021329 -50.392305228446965 44.250000000000256
  endloop
endfacet
facet normal 0.6087614290086979 -0.7933533402912526 3.523196580218502e-16
  outer loop
    vertex -868.4806974933119 -50.12214357003054 44.250000000000256
    vertex -868.832779021329 -50.392305228446965 39.250000000000256
    vertex -868.4806974933119 -50.12214357003054 39.250000000000256
  endloop
endfacet
facet normal 0.923879532511295 -0.38268343236507024 1.6994558310171392e-16
  outer loop
    vertex -869.2727713980032 -51.15439437978979 44.250000000000256
    vertex -869.1029406797454 -50.744386756464095 39.250000000000256
    vertex -869.1029406797454 -50.744386756464095 44.250000000000256
  endloop
endfacet
facet normal 0.923879532511295 -0.38268343236507024 1.6994558310171392e-16
  outer loop
    vertex -869.1029406797454 -50.744386756464095 39.250000000000256
    vertex -869.2727713980032 -51.15439437978979 44.250000000000256
    vertex -869.2727713980032 -51.15439437978979 39.250000000000256
  endloop
endfacet
facet normal 0.9914448613738268 -0.13052619221992806 5.796527356768524e-17
  outer loop
    vertex -869.3306974933117 -51.59438675646408 44.250000000000256
    vertex -869.2727713980032 -51.15439437978979 39.250000000000256
    vertex -869.2727713980032 -51.15439437978979 44.250000000000256
  endloop
endfacet
facet normal 0.9914448613738268 -0.13052619221992806 5.796527356768524e-17
  outer loop
    vertex -869.2727713980032 -51.15439437978979 39.250000000000256
    vertex -869.3306974933117 -51.59438675646408 44.250000000000256
    vertex -869.3306974933117 -51.59438675646408 39.250000000000256
  endloop
endfacet
facet normal 0.7933533402911994 -0.6087614290087674 2.703443819956985e-16
  outer loop
    vertex -869.1029406797454 -50.744386756464095 44.250000000000256
    vertex -868.832779021329 -50.392305228446965 39.250000000000256
    vertex -868.832779021329 -50.392305228446965 44.250000000000256
  endloop
endfacet
facet normal 0.7933533402911994 -0.6087614290087674 2.703443819956985e-16
  outer loop
    vertex -868.832779021329 -50.392305228446965 39.250000000000256
    vertex -869.1029406797454 -50.744386756464095 44.250000000000256
    vertex -869.1029406797454 -50.744386756464095 39.250000000000256
  endloop
endfacet
facet normal -5.639932965095753e-16 -4.440892098500626e-16 -1.0
  outer loop
    vertex -862.6306974933118 -138.99438675646428 36.01250000000027
    vertex -872.6306974933119 -150.99438675646428 36.01250000000027
    vertex -872.6306974933119 -138.99438675646428 36.01250000000027
  endloop
endfacet
facet normal -5.639932965095753e-16 -4.440892098500626e-16 -1.0
  outer loop
    vertex -872.6306974933119 -150.99438675646428 36.01250000000027
    vertex -862.6306974933118 -138.99438675646428 36.01250000000027
    vertex -862.6306974933118 -150.99438675646428 36.01250000000027
  endloop
endfacet
facet normal 0.0 -1.0 4.440892098500626e-16
  outer loop
    vertex -872.6306974933119 -150.99438675646428 36.01250000000027
    vertex -862.6306974933118 -150.99438675646428 39.2500000000003
    vertex -872.6306974933117 -150.99438675646428 39.2500000000003
  endloop
endfacet
facet normal 0.0 -1.0 4.440892098500626e-16
  outer loop
    vertex -862.6306974933118 -150.99438675646428 39.2500000000003
    vertex -872.6306974933119 -150.99438675646428 36.01250000000027
    vertex -862.6306974933118 -150.99438675646428 36.01250000000027
  endloop
endfacet
facet normal -1.0 1.0365297976631592e-29 2.215950917332079e-14
  outer loop
    vertex -872.6306974933119 -34.89438675646402 36.01250000000023
    vertex -872.6306974933117 -22.89438675646402 39.25000000000024
    vertex -872.6306974933119 -22.89438675646402 36.012500000000216
  endloop
endfacet
facet normal -1.0 1.0365297976631592e-29 2.215950917332079e-14
  outer loop
    vertex -872.6306974933117 -22.89438675646402 39.25000000000024
    vertex -872.6306974933119 -34.89438675646402 36.01250000000023
    vertex -872.6306974933117 -27.894386756464 44.25000000000024
  endloop
endfacet
facet normal -1.0 1.0365297976631592e-29 2.215950917332079e-14
  outer loop
    vertex -872.6306974933117 -27.894386756464 44.25000000000024
    vertex -872.6306974933119 -34.89438675646402 36.01250000000023
    vertex -872.6306974933119 -34.894386756464016 39.25000000000025
  endloop
endfacet
facet normal -1.0 1.0365297976631592e-29 2.215950917332079e-14
  outer loop
    vertex -872.6306974933119 -150.99438675646428 36.01250000000027
    vertex -872.6306974933119 -138.99438675646428 39.2500000000003
    vertex -872.6306974933119 -138.99438675646428 36.01250000000027
  endloop
endfacet
facet normal -1.0 1.0365297976631592e-29 2.215950917332079e-14
  outer loop
    vertex -872.6306974933119 -138.99438675646428 39.2500000000003
    vertex -872.6306974933119 -150.99438675646428 36.01250000000027
    vertex -872.6306974933117 -145.99438675646428 44.25000000000031
  endloop
endfacet
facet normal -1.0 1.0365297976631592e-29 2.215950917332079e-14
  outer loop
    vertex -872.6306974933117 -145.99438675646428 44.25000000000031
    vertex -872.6306974933119 -150.99438675646428 36.01250000000027
    vertex -872.6306974933117 -150.99438675646428 39.2500000000003
  endloop
endfacet
facet normal -1.0 1.0365297976631592e-29 2.215950917332079e-14
  outer loop
    vertex -872.6306974933119 -34.894386756464016 39.25000000000025
    vertex -872.6306974933117 -145.99438675646428 44.25000000000031
    vertex -872.6306974933117 -27.894386756464 44.25000000000024
  endloop
endfacet
facet normal -1.0 1.0365297976631592e-29 2.215950917332079e-14
  outer loop
    vertex -872.6306974933117 -145.99438675646428 44.25000000000031
    vertex -872.6306974933119 -34.894386756464016 39.25000000000025
    vertex -872.6306974933119 -138.99438675646428 39.2500000000003
  endloop
endfacet
facet normal 4.783993253748365e-45 -9.399888275159657e-16 -1.0
  outer loop
    vertex -862.6306974933118 -22.89438675646402 36.012500000000216
    vertex -872.6306974933119 -34.89438675646402 36.01250000000023
    vertex -872.6306974933119 -22.89438675646402 36.012500000000216
  endloop
endfacet
facet normal 4.783993253748365e-45 -9.399888275159657e-16 -1.0
  outer loop
    vertex -872.6306974933119 -34.89438675646402 36.01250000000023
    vertex -862.6306974933118 -22.89438675646402 36.012500000000216
    vertex -862.6306974933118 -34.89438675646402 36.01250000000023
  endloop
endfacet
facet normal 0.0 1.0 -4.440892098500626e-16
  outer loop
    vertex -862.6306974933118 -138.99438675646428 39.25000000000029
    vertex -872.6306974933119 -138.99438675646428 36.01250000000027
    vertex -872.6306974933119 -138.99438675646428 39.2500000000003
  endloop
endfacet
facet normal 0.0 1.0 -4.440892098500626e-16
  outer loop
    vertex -872.6306974933119 -138.99438675646428 36.01250000000027
    vertex -862.6306974933118 -138.99438675646428 39.25000000000029
    vertex -862.6306974933118 -138.99438675646428 36.01250000000027
  endloop
endfacet
facet normal 0.0 -1.0 1.742064236323015e-15
  outer loop
    vertex -872.6306974933119 -34.89438675646402 36.01250000000023
    vertex -862.6306974933118 -34.894386756464016 39.25000000000025
    vertex -872.6306974933119 -34.894386756464016 39.25000000000025
  endloop
endfacet
facet normal 0.0 -1.0 1.742064236323015e-15
  outer loop
    vertex -862.6306974933118 -34.894386756464016 39.25000000000025
    vertex -872.6306974933119 -34.89438675646402 36.01250000000023
    vertex -862.6306974933118 -34.89438675646402 36.01250000000023
  endloop
endfacet
facet normal 0.0 1.0 0.0
  outer loop
    vertex -862.6306974933118 -22.89438675646402 36.012500000000216
    vertex -872.6306974933117 -22.89438675646402 39.25000000000024
    vertex -862.6306974933118 -22.89438675646402 39.25000000000024
  endloop
endfacet
facet normal 0.0 1.0 0.0
  outer loop
    vertex -872.6306974933117 -22.89438675646402 39.25000000000024
    vertex -862.6306974933118 -22.89438675646402 36.012500000000216
    vertex -872.6306974933119 -22.89438675646402 36.012500000000216
  endloop
endfacet
facet normal -2.819966482547877e-16 -4.605132584372154e-16 -1.0
  outer loop
    vertex -872.6306974933119 -34.894386756464016 39.25000000000025
    vertex -869.3306974933117 -51.59438675646408 39.250000000000256
    vertex -872.6306974933119 -138.99438675646428 39.2500000000003
  endloop
endfacet
facet normal -2.819966482547877e-16 -4.605132584372154e-16 -1.0
  outer loop
    vertex -869.3306974933117 -51.59438675646408 39.250000000000256
    vertex -872.6306974933119 -34.894386756464016 39.25000000000025
    vertex -869.2727713980032 -51.15439437978979 39.250000000000256
  endloop
endfacet
facet normal -2.819966482547877e-16 -4.605132584372154e-16 -1.0
  outer loop
    vertex -869.2727713980032 -51.15439437978979 39.250000000000256
    vertex -872.6306974933119 -34.894386756464016 39.25000000000025
    vertex -862.6306974933118 -34.894386756464016 39.25000000000025
  endloop
endfacet
facet normal -2.819966482547877e-16 -4.605132584372154e-16 -1.0
  outer loop
    vertex -869.2727713980032 -51.15439437978979 39.250000000000256
    vertex -862.6306974933118 -34.894386756464016 39.25000000000025
    vertex -869.1029406797454 -50.744386756464095 39.250000000000256
  endloop
endfacet
facet normal -2.819966482547877e-16 -4.605132584372154e-16 -1.0
  outer loop
    vertex -869.1029406797454 -50.744386756464095 39.250000000000256
    vertex -862.6306974933118 -34.894386756464016 39.25000000000025
    vertex -868.832779021329 -50.392305228446965 39.250000000000256
  endloop
endfacet
facet normal -2.819966482547877e-16 -4.605132584372154e-16 -1.0
  outer loop
    vertex -868.832779021329 -50.392305228446965 39.250000000000256
    vertex -862.6306974933118 -34.894386756464016 39.25000000000025
    vertex -868.4806974933119 -50.12214357003054 39.250000000000256
  endloop
endfacet
facet normal -2.819966482547877e-16 -4.605132584372154e-16 -1.0
  outer loop
    vertex -868.4806974933119 -50.12214357003054 39.250000000000256
    vertex -862.6306974933118 -34.894386756464016 39.25000000000025
    vertex -868.0706898699862 -49.95231285177268 39.250000000000256
  endloop
endfacet
facet normal -2.819966482547877e-16 -4.605132584372154e-16 -1.0
  outer loop
    vertex -868.0706898699862 -49.95231285177268 39.250000000000256
    vertex -862.6306974933118 -34.894386756464016 39.25000000000025
    vertex -867.6306974933118 -49.89438675646409 39.250000000000256
  endloop
endfacet
facet normal -2.819966482547877e-16 -4.605132584372154e-16 -1.0
  outer loop
    vertex -867.6306974933118 -49.89438675646409 39.250000000000256
    vertex -862.6306974933118 -34.894386756464016 39.25000000000025
    vertex -867.1907051166376 -49.95231285177268 39.250000000000256
  endloop
endfacet
facet normal -2.819966482547877e-16 -4.605132584372154e-16 -1.0
  outer loop
    vertex -867.1907051166376 -49.95231285177268 39.250000000000256
    vertex -862.6306974933118 -34.894386756464016 39.25000000000025
    vertex -866.780697493312 -50.12214357003054 39.250000000000256
  endloop
endfacet
facet normal -2.819966482547877e-16 -4.605132584372154e-16 -1.0
  outer loop
    vertex -866.780697493312 -50.12214357003054 39.250000000000256
    vertex -862.6306974933118 -34.894386756464016 39.25000000000025
    vertex -866.4286159652947 -50.392305228446965 39.250000000000256
  endloop
endfacet
facet normal -2.819966482547877e-16 -4.605132584372154e-16 -1.0
  outer loop
    vertex -866.4286159652947 -50.392305228446965 39.250000000000256
    vertex -862.6306974933118 -34.894386756464016 39.25000000000025
    vertex -866.1584543068783 -50.744386756464095 39.250000000000256
  endloop
endfacet
facet normal -2.819966482547877e-16 -4.605132584372154e-16 -1.0
  outer loop
    vertex -866.1584543068783 -50.744386756464095 39.250000000000256
    vertex -862.6306974933118 -34.894386756464016 39.25000000000025
    vertex -865.9886235886204 -51.15439437978979 39.250000000000256
  endloop
endfacet
facet normal -2.819966482547877e-16 -4.605132584372154e-16 -1.0
  outer loop
    vertex -865.9886235886204 -51.15439437978979 39.250000000000256
    vertex -862.6306974933118 -34.894386756464016 39.25000000000025
    vertex -865.9306974933119 -51.59438675646408 39.250000000000256
  endloop
endfacet
facet normal -2.819966482547877e-16 -4.605132584372154e-16 -1.0
  outer loop
    vertex -865.9306974933119 -51.59438675646408 39.250000000000256
    vertex -862.6306974933118 -34.894386756464016 39.25000000000025
    vertex -865.9306974933119 -117.24438675646408 39.25000000000028
  endloop
endfacet
facet normal -2.819966482547877e-16 -4.605132584372154e-16 -1.0
  outer loop
    vertex -872.6306974933119 -138.99438675646428 39.2500000000003
    vertex -869.2727713980032 -117.68437913313835 39.250000000000284
    vertex -862.6306974933118 -138.99438675646428 39.25000000000029
  endloop
endfacet
facet normal -2.819966482547877e-16 -4.605132584372154e-16 -1.0
  outer loop
    vertex -869.2727713980032 -117.68437913313835 39.250000000000284
    vertex -872.6306974933119 -138.99438675646428 39.2500000000003
    vertex -869.3306974933117 -117.24438675646408 39.25000000000028
  endloop
endfacet
facet normal -2.819966482547877e-16 -4.605132584372154e-16 -1.0
  outer loop
    vertex -869.3306974933117 -117.24438675646408 39.25000000000028
    vertex -872.6306974933119 -138.99438675646428 39.2500000000003
    vertex -869.3306974933117 -51.59438675646408 39.250000000000256
  endloop
endfacet
facet normal -2.819966482547877e-16 -4.605132584372154e-16 -1.0
  outer loop
    vertex -862.6306974933118 -138.99438675646428 39.25000000000029
    vertex -869.2727713980032 -117.68437913313835 39.250000000000284
    vertex -869.1029406797454 -118.09438675646408 39.250000000000284
  endloop
endfacet
facet normal -2.819966482547877e-16 -4.605132584372154e-16 -1.0
  outer loop
    vertex -862.6306974933118 -138.99438675646428 39.25000000000029
    vertex -869.1029406797454 -118.09438675646408 39.250000000000284
    vertex -868.832779021329 -118.4464682844812 39.250000000000284
  endloop
endfacet
facet normal -2.819966482547877e-16 -4.605132584372154e-16 -1.0
  outer loop
    vertex -862.6306974933118 -138.99438675646428 39.25000000000029
    vertex -868.832779021329 -118.4464682844812 39.250000000000284
    vertex -868.4806974933119 -118.71662994289763 39.250000000000284
  endloop
endfacet
facet normal -2.819966482547877e-16 -4.605132584372154e-16 -1.0
  outer loop
    vertex -862.6306974933118 -138.99438675646428 39.25000000000029
    vertex -868.4806974933119 -118.71662994289763 39.250000000000284
    vertex -868.0706898699862 -118.88646066115548 39.250000000000284
  endloop
endfacet
facet normal -2.819966482547877e-16 -4.605132584372154e-16 -1.0
  outer loop
    vertex -862.6306974933118 -138.99438675646428 39.25000000000029
    vertex -868.0706898699862 -118.88646066115548 39.250000000000284
    vertex -867.6306974933118 -118.94438675646406 39.25000000000029
  endloop
endfacet
facet normal -2.819966482547877e-16 -4.605132584372154e-16 -1.0
  outer loop
    vertex -862.6306974933118 -138.99438675646428 39.25000000000029
    vertex -867.6306974933118 -118.94438675646406 39.25000000000029
    vertex -867.1907051166376 -118.88646066115548 39.250000000000284
  endloop
endfacet
facet normal -2.819966482547877e-16 -4.605132584372154e-16 -1.0
  outer loop
    vertex -862.6306974933118 -138.99438675646428 39.25000000000029
    vertex -867.1907051166376 -118.88646066115548 39.250000000000284
    vertex -866.780697493312 -118.71662994289763 39.250000000000284
  endloop
endfacet
facet normal -2.819966482547877e-16 -4.605132584372154e-16 -1.0
  outer loop
    vertex -862.6306974933118 -138.99438675646428 39.25000000000029
    vertex -866.780697493312 -118.71662994289763 39.250000000000284
    vertex -866.4286159652947 -118.4464682844812 39.250000000000284
  endloop
endfacet
facet normal -2.819966482547877e-16 -4.605132584372154e-16 -1.0
  outer loop
    vertex -862.6306974933118 -138.99438675646428 39.25000000000029
    vertex -866.4286159652947 -118.4464682844812 39.250000000000284
    vertex -866.1584543068783 -118.09438675646408 39.250000000000284
  endloop
endfacet
facet normal -2.819966482547877e-16 -4.605132584372154e-16 -1.0
  outer loop
    vertex -862.6306974933118 -138.99438675646428 39.25000000000029
    vertex -866.1584543068783 -118.09438675646408 39.250000000000284
    vertex -865.9886235886204 -117.68437913313835 39.250000000000284
  endloop
endfacet
facet normal -2.819966482547877e-16 -4.605132584372154e-16 -1.0
  outer loop
    vertex -862.6306974933118 -138.99438675646428 39.25000000000029
    vertex -865.9886235886204 -117.68437913313835 39.250000000000284
    vertex -865.9306974933119 -117.24438675646408 39.25000000000028
  endloop
endfacet
facet normal -2.819966482547877e-16 -4.605132584372154e-16 -1.0
  outer loop
    vertex -862.6306974933118 -138.99438675646428 39.25000000000029
    vertex -865.9306974933119 -117.24438675646408 39.25000000000028
    vertex -862.6306974933118 -34.894386756464016 39.25000000000025
  endloop
endfacet
facet normal -2.819966482547877e-16 -4.605132584372154e-16 -1.0
  outer loop
    vertex -869.2727713980032 -52.034379133138366 39.250000000000256
    vertex -869.3306974933117 -117.24438675646408 39.25000000000028
    vertex -869.3306974933117 -51.59438675646408 39.250000000000256
  endloop
endfacet
facet normal -2.819966482547877e-16 -4.605132584372154e-16 -1.0
  outer loop
    vertex -869.3306974933117 -117.24438675646408 39.25000000000028
    vertex -869.2727713980032 -52.034379133138366 39.250000000000256
    vertex -869.2727713980032 -116.80439437978978 39.25000000000028
  endloop
endfacet
facet normal -2.819966482547877e-16 -4.605132584372154e-16 -1.0
  outer loop
    vertex -869.2727713980032 -116.80439437978978 39.25000000000028
    vertex -869.2727713980032 -52.034379133138366 39.250000000000256
    vertex -869.1029406797454 -52.44438675646409 39.250000000000256
  endloop
endfacet
facet normal -2.819966482547877e-16 -4.605132584372154e-16 -1.0
  outer loop
    vertex -869.2727713980032 -116.80439437978978 39.25000000000028
    vertex -869.1029406797454 -52.44438675646409 39.250000000000256
    vertex -869.1029406797454 -116.39438675646407 39.25000000000028
  endloop
endfacet
facet normal -2.819966482547877e-16 -4.605132584372154e-16 -1.0
  outer loop
    vertex -869.1029406797454 -116.39438675646407 39.25000000000028
    vertex -869.1029406797454 -52.44438675646409 39.250000000000256
    vertex -868.832779021329 -52.79646828448122 39.25000000000027
  endloop
endfacet
facet normal -2.819966482547877e-16 -4.605132584372154e-16 -1.0
  outer loop
    vertex -869.1029406797454 -116.39438675646407 39.25000000000028
    vertex -868.832779021329 -52.79646828448122 39.25000000000027
    vertex -868.832779021329 -116.04230522844695 39.25000000000027
  endloop
endfacet
facet normal -2.819966482547877e-16 -4.605132584372154e-16 -1.0
  outer loop
    vertex -868.832779021329 -116.04230522844695 39.25000000000027
    vertex -868.832779021329 -52.79646828448122 39.25000000000027
    vertex -868.4806974933119 -53.06662994289765 39.25000000000027
  endloop
endfacet
facet normal -2.819966482547877e-16 -4.605132584372154e-16 -1.0
  outer loop
    vertex -868.832779021329 -116.04230522844695 39.25000000000027
    vertex -868.4806974933119 -53.06662994289765 39.25000000000027
    vertex -868.4806974933119 -115.77214357003055 39.25000000000027
  endloop
endfacet
facet normal -2.819966482547877e-16 -4.605132584372154e-16 -1.0
  outer loop
    vertex -868.4806974933119 -115.77214357003055 39.25000000000027
    vertex -868.4806974933119 -53.06662994289765 39.25000000000027
    vertex -868.0706898699862 -53.236460661155505 39.25000000000027
  endloop
endfacet
facet normal -2.819966482547877e-16 -4.605132584372154e-16 -1.0
  outer loop
    vertex -868.4806974933119 -115.77214357003055 39.25000000000027
    vertex -868.0706898699862 -53.236460661155505 39.25000000000027
    vertex -868.0706898699862 -115.60231285177267 39.25000000000027
  endloop
endfacet
facet normal -2.819966482547877e-16 -4.605132584372154e-16 -1.0
  outer loop
    vertex -868.0706898699862 -115.60231285177267 39.25000000000027
    vertex -868.0706898699862 -53.236460661155505 39.25000000000027
    vertex -867.6306974933118 -53.29438675646408 39.25000000000027
  endloop
endfacet
facet normal -2.819966482547877e-16 -4.605132584372154e-16 -1.0
  outer loop
    vertex -868.0706898699862 -115.60231285177267 39.25000000000027
    vertex -867.6306974933118 -53.29438675646408 39.25000000000027
    vertex -867.6306974933118 -115.54438675646406 39.25000000000027
  endloop
endfacet
facet normal -2.819966482547877e-16 -4.605132584372154e-16 -1.0
  outer loop
    vertex -867.6306974933118 -115.54438675646406 39.25000000000027
    vertex -867.6306974933118 -53.29438675646408 39.25000000000027
    vertex -867.1907051166376 -53.236460661155505 39.25000000000027
  endloop
endfacet
facet normal -2.819966482547877e-16 -4.605132584372154e-16 -1.0
  outer loop
    vertex -867.6306974933118 -115.54438675646406 39.25000000000027
    vertex -867.1907051166376 -53.236460661155505 39.25000000000027
    vertex -867.1907051166376 -115.60231285177267 39.25000000000027
  endloop
endfacet
facet normal -2.819966482547877e-16 -4.605132584372154e-16 -1.0
  outer loop
    vertex -867.1907051166376 -115.60231285177267 39.25000000000027
    vertex -867.1907051166376 -53.236460661155505 39.25000000000027
    vertex -866.780697493312 -53.06662994289765 39.25000000000027
  endloop
endfacet
facet normal -2.819966482547877e-16 -4.605132584372154e-16 -1.0
  outer loop
    vertex -867.1907051166376 -115.60231285177267 39.25000000000027
    vertex -866.780697493312 -53.06662994289765 39.25000000000027
    vertex -866.780697493312 -115.77214357003055 39.25000000000027
  endloop
endfacet
facet normal -2.819966482547877e-16 -4.605132584372154e-16 -1.0
  outer loop
    vertex -866.780697493312 -115.77214357003055 39.25000000000027
    vertex -866.780697493312 -53.06662994289765 39.25000000000027
    vertex -866.4286159652947 -52.79646828448122 39.25000000000027
  endloop
endfacet
facet normal -2.819966482547877e-16 -4.605132584372154e-16 -1.0
  outer loop
    vertex -866.780697493312 -115.77214357003055 39.25000000000027
    vertex -866.4286159652947 -52.79646828448122 39.25000000000027
    vertex -866.4286159652947 -116.04230522844695 39.25000000000027
  endloop
endfacet
facet normal -2.819966482547877e-16 -4.605132584372154e-16 -1.0
  outer loop
    vertex -866.4286159652947 -116.04230522844695 39.25000000000027
    vertex -866.4286159652947 -52.79646828448122 39.25000000000027
    vertex -866.1584543068783 -52.44438675646409 39.250000000000256
  endloop
endfacet
facet normal -2.819966482547877e-16 -4.605132584372154e-16 -1.0
  outer loop
    vertex -866.4286159652947 -116.04230522844695 39.25000000000027
    vertex -866.1584543068783 -52.44438675646409 39.250000000000256
    vertex -866.1584543068783 -116.39438675646407 39.25000000000028
  endloop
endfacet
facet normal -2.819966482547877e-16 -4.605132584372154e-16 -1.0
  outer loop
    vertex -866.1584543068783 -116.39438675646407 39.25000000000028
    vertex -866.1584543068783 -52.44438675646409 39.250000000000256
    vertex -865.9886235886204 -52.034379133138366 39.250000000000256
  endloop
endfacet
facet normal -2.819966482547877e-16 -4.605132584372154e-16 -1.0
  outer loop
    vertex -866.1584543068783 -116.39438675646407 39.25000000000028
    vertex -865.9886235886204 -52.034379133138366 39.250000000000256
    vertex -865.9886235886204 -116.80439437978978 39.25000000000028
  endloop
endfacet
facet normal -2.819966482547877e-16 -4.605132584372154e-16 -1.0
  outer loop
    vertex -865.9886235886204 -116.80439437978978 39.25000000000028
    vertex -865.9886235886204 -52.034379133138366 39.250000000000256
    vertex -865.9306974933119 -51.59438675646408 39.250000000000256
  endloop
endfacet
facet normal -2.819966482547877e-16 -4.605132584372154e-16 -1.0
  outer loop
    vertex -865.9886235886204 -116.80439437978978 39.25000000000028
    vertex -865.9306974933119 -51.59438675646408 39.250000000000256
    vertex -865.9306974933119 -117.24438675646408 39.25000000000028
  endloop
endfacet
facet normal 0.0 5.730668550478357e-16 1.0
  outer loop
    vertex -872.6306974933117 -145.99438675646428 44.25000000000031
    vertex -869.3306974933117 -117.24438675646408 44.250000000000284
    vertex -872.6306974933117 -27.894386756464 44.25000000000024
  endloop
endfacet
facet normal 0.0 5.730668550478357e-16 1.0
  outer loop
    vertex -869.3306974933117 -117.24438675646408 44.250000000000284
    vertex -872.6306974933117 -145.99438675646428 44.25000000000031
    vertex -869.2727713980032 -117.68437913313835 44.250000000000284
  endloop
endfacet
facet normal 0.0 5.730668550478357e-16 1.0
  outer loop
    vertex -869.2727713980032 -117.68437913313835 44.250000000000284
    vertex -872.6306974933117 -145.99438675646428 44.25000000000031
    vertex -862.6306974933118 -145.99438675646428 44.25000000000031
  endloop
endfacet
facet normal 0.0 5.730668550478357e-16 1.0
  outer loop
    vertex -869.2727713980032 -117.68437913313835 44.250000000000284
    vertex -862.6306974933118 -145.99438675646428 44.25000000000031
    vertex -869.1029406797454 -118.09438675646408 44.25000000000029
  endloop
endfacet
facet normal 0.0 5.730668550478357e-16 1.0
  outer loop
    vertex -869.1029406797454 -118.09438675646408 44.25000000000029
    vertex -862.6306974933118 -145.99438675646428 44.25000000000031
    vertex -868.832779021329 -118.4464682844812 44.25000000000029
  endloop
endfacet
facet normal 0.0 5.730668550478357e-16 1.0
  outer loop
    vertex -868.832779021329 -118.4464682844812 44.25000000000029
    vertex -862.6306974933118 -145.99438675646428 44.25000000000031
    vertex -868.4806974933119 -118.71662994289763 44.25000000000029
  endloop
endfacet
facet normal 0.0 5.730668550478357e-16 1.0
  outer loop
    vertex -868.4806974933119 -118.71662994289763 44.25000000000029
    vertex -862.6306974933118 -145.99438675646428 44.25000000000031
    vertex -868.0706898699862 -118.88646066115548 44.25000000000029
  endloop
endfacet
facet normal 0.0 5.730668550478357e-16 1.0
  outer loop
    vertex -868.0706898699862 -118.88646066115548 44.25000000000029
    vertex -862.6306974933118 -145.99438675646428 44.25000000000031
    vertex -867.6306974933118 -118.94438675646406 44.25000000000029
  endloop
endfacet
facet normal 0.0 5.730668550478357e-16 1.0
  outer loop
    vertex -867.6306974933118 -118.94438675646406 44.25000000000029
    vertex -862.6306974933118 -145.99438675646428 44.25000000000031
    vertex -867.1907051166376 -118.88646066115548 44.25000000000029
  endloop
endfacet
facet normal 0.0 5.730668550478357e-16 1.0
  outer loop
    vertex -867.1907051166376 -118.88646066115548 44.25000000000029
    vertex -862.6306974933118 -145.99438675646428 44.25000000000031
    vertex -866.780697493312 -118.71662994289763 44.25000000000029
  endloop
endfacet
facet normal 0.0 5.730668550478357e-16 1.0
  outer loop
    vertex -866.780697493312 -118.71662994289763 44.25000000000029
    vertex -862.6306974933118 -145.99438675646428 44.25000000000031
    vertex -866.4286159652947 -118.4464682844812 44.25000000000029
  endloop
endfacet
facet normal 0.0 5.730668550478357e-16 1.0
  outer loop
    vertex -866.4286159652947 -118.4464682844812 44.25000000000029
    vertex -862.6306974933118 -145.99438675646428 44.25000000000031
    vertex -866.1584543068783 -118.09438675646408 44.25000000000029
  endloop
endfacet
facet normal 0.0 5.730668550478357e-16 1.0
  outer loop
    vertex -866.1584543068783 -118.09438675646408 44.25000000000029
    vertex -862.6306974933118 -145.99438675646428 44.25000000000031
    vertex -865.9886235886204 -117.68437913313835 44.250000000000284
  endloop
endfacet
facet normal 0.0 5.730668550478357e-16 1.0
  outer loop
    vertex -865.9886235886204 -117.68437913313835 44.250000000000284
    vertex -862.6306974933118 -145.99438675646428 44.25000000000031
    vertex -865.9306974933119 -117.24438675646408 44.250000000000284
  endloop
endfacet
facet normal 0.0 5.730668550478357e-16 1.0
  outer loop
    vertex -865.9306974933119 -117.24438675646408 44.250000000000284
    vertex -862.6306974933118 -145.99438675646428 44.25000000000031
    vertex -865.9306974933119 -51.59438675646408 44.250000000000256
  endloop
endfacet
facet normal 0.0 5.730668550478357e-16 1.0
  outer loop
    vertex -872.6306974933117 -27.894386756464 44.25000000000024
    vertex -869.2727713980032 -51.15439437978979 44.250000000000256
    vertex -862.6306974933118 -27.894386756464 44.25000000000024
  endloop
endfacet
facet normal 0.0 5.730668550478357e-16 1.0
  outer loop
    vertex -869.2727713980032 -51.15439437978979 44.250000000000256
    vertex -872.6306974933117 -27.894386756464 44.25000000000024
    vertex -869.3306974933117 -51.59438675646408 44.250000000000256
  endloop
endfacet
facet normal 0.0 5.730668550478357e-16 1.0
  outer loop
    vertex -869.3306974933117 -51.59438675646408 44.250000000000256
    vertex -872.6306974933117 -27.894386756464 44.25000000000024
    vertex -869.3306974933117 -117.24438675646408 44.250000000000284
  endloop
endfacet
facet normal 0.0 5.730668550478357e-16 1.0
  outer loop
    vertex -862.6306974933118 -27.894386756464 44.25000000000024
    vertex -869.2727713980032 -51.15439437978979 44.250000000000256
    vertex -869.1029406797454 -50.744386756464095 44.250000000000256
  endloop
endfacet
facet normal 0.0 5.730668550478357e-16 1.0
  outer loop
    vertex -862.6306974933118 -27.894386756464 44.25000000000024
    vertex -869.1029406797454 -50.744386756464095 44.250000000000256
    vertex -868.832779021329 -50.392305228446965 44.250000000000256
  endloop
endfacet
facet normal 0.0 5.730668550478357e-16 1.0
  outer loop
    vertex -862.6306974933118 -27.894386756464 44.25000000000024
    vertex -868.832779021329 -50.392305228446965 44.250000000000256
    vertex -868.4806974933119 -50.12214357003054 44.250000000000256
  endloop
endfacet
facet normal 0.0 5.730668550478357e-16 1.0
  outer loop
    vertex -862.6306974933118 -27.894386756464 44.25000000000024
    vertex -868.4806974933119 -50.12214357003054 44.250000000000256
    vertex -868.0706898699862 -49.95231285177268 44.250000000000256
  endloop
endfacet
facet normal 0.0 5.730668550478357e-16 1.0
  outer loop
    vertex -862.6306974933118 -27.894386756464 44.25000000000024
    vertex -868.0706898699862 -49.95231285177268 44.250000000000256
    vertex -867.6306974933118 -49.89438675646409 44.250000000000256
  endloop
endfacet
facet normal 0.0 5.730668550478357e-16 1.0
  outer loop
    vertex -862.6306974933118 -27.894386756464 44.25000000000024
    vertex -867.6306974933118 -49.89438675646409 44.250000000000256
    vertex -867.1907051166376 -49.95231285177268 44.250000000000256
  endloop
endfacet
facet normal 0.0 5.730668550478357e-16 1.0
  outer loop
    vertex -862.6306974933118 -27.894386756464 44.25000000000024
    vertex -867.1907051166376 -49.95231285177268 44.250000000000256
    vertex -866.780697493312 -50.12214357003054 44.250000000000256
  endloop
endfacet
facet normal 0.0 5.730668550478357e-16 1.0
  outer loop
    vertex -862.6306974933118 -27.894386756464 44.25000000000024
    vertex -866.780697493312 -50.12214357003054 44.250000000000256
    vertex -866.4286159652947 -50.392305228446965 44.250000000000256
  endloop
endfacet
facet normal 0.0 5.730668550478357e-16 1.0
  outer loop
    vertex -862.6306974933118 -27.894386756464 44.25000000000024
    vertex -866.4286159652947 -50.392305228446965 44.250000000000256
    vertex -866.1584543068783 -50.744386756464095 44.250000000000256
  endloop
endfacet
facet normal 0.0 5.730668550478357e-16 1.0
  outer loop
    vertex -862.6306974933118 -27.894386756464 44.25000000000024
    vertex -866.1584543068783 -50.744386756464095 44.250000000000256
    vertex -865.9886235886204 -51.15439437978979 44.250000000000256
  endloop
endfacet
facet normal 0.0 5.730668550478357e-16 1.0
  outer loop
    vertex -862.6306974933118 -27.894386756464 44.25000000000024
    vertex -865.9886235886204 -51.15439437978979 44.250000000000256
    vertex -865.9306974933119 -51.59438675646408 44.250000000000256
  endloop
endfacet
facet normal 0.0 5.730668550478357e-16 1.0
  outer loop
    vertex -862.6306974933118 -27.894386756464 44.25000000000024
    vertex -865.9306974933119 -51.59438675646408 44.250000000000256
    vertex -862.6306974933118 -145.99438675646428 44.25000000000031
  endloop
endfacet
facet normal 0.0 5.730668550478357e-16 1.0
  outer loop
    vertex -869.2727713980032 -116.80439437978978 44.25000000000028
    vertex -869.3306974933117 -51.59438675646408 44.250000000000256
    vertex -869.3306974933117 -117.24438675646408 44.250000000000284
  endloop
endfacet
facet normal 0.0 5.730668550478357e-16 1.0
  outer loop
    vertex -869.3306974933117 -51.59438675646408 44.250000000000256
    vertex -869.2727713980032 -116.80439437978978 44.25000000000028
    vertex -869.2727713980032 -52.034379133138366 44.250000000000256
  endloop
endfacet
facet normal 0.0 5.730668550478357e-16 1.0
  outer loop
    vertex -869.2727713980032 -52.034379133138366 44.250000000000256
    vertex -869.2727713980032 -116.80439437978978 44.25000000000028
    vertex -869.1029406797454 -116.39438675646407 44.25000000000028
  endloop
endfacet
facet normal 0.0 5.730668550478357e-16 1.0
  outer loop
    vertex -869.2727713980032 -52.034379133138366 44.250000000000256
    vertex -869.1029406797454 -116.39438675646407 44.25000000000028
    vertex -869.1029406797454 -52.44438675646409 44.250000000000256
  endloop
endfacet
facet normal 0.0 5.730668550478357e-16 1.0
  outer loop
    vertex -869.1029406797454 -52.44438675646409 44.250000000000256
    vertex -869.1029406797454 -116.39438675646407 44.25000000000028
    vertex -868.832779021329 -116.04230522844695 44.25000000000028
  endloop
endfacet
facet normal 0.0 5.730668550478357e-16 1.0
  outer loop
    vertex -869.1029406797454 -52.44438675646409 44.250000000000256
    vertex -868.832779021329 -116.04230522844695 44.25000000000028
    vertex -868.832779021329 -52.79646828448122 44.250000000000256
  endloop
endfacet
facet normal 0.0 5.730668550478357e-16 1.0
  outer loop
    vertex -868.832779021329 -52.79646828448122 44.250000000000256
    vertex -868.832779021329 -116.04230522844695 44.25000000000028
    vertex -868.4806974933119 -115.77214357003055 44.25000000000028
  endloop
endfacet
facet normal 0.0 5.730668550478357e-16 1.0
  outer loop
    vertex -868.832779021329 -52.79646828448122 44.250000000000256
    vertex -868.4806974933119 -115.77214357003055 44.25000000000028
    vertex -868.4806974933119 -53.06662994289765 44.250000000000256
  endloop
endfacet
facet normal 0.0 5.730668550478357e-16 1.0
  outer loop
    vertex -868.4806974933119 -53.06662994289765 44.250000000000256
    vertex -868.4806974933119 -115.77214357003055 44.25000000000028
    vertex -868.0706898699862 -115.60231285177267 44.25000000000028
  endloop
endfacet
facet normal 0.0 5.730668550478357e-16 1.0
  outer loop
    vertex -868.4806974933119 -53.06662994289765 44.250000000000256
    vertex -868.0706898699862 -115.60231285177267 44.25000000000028
    vertex -868.0706898699862 -53.236460661155505 44.250000000000256
  endloop
endfacet
facet normal 0.0 5.730668550478357e-16 1.0
  outer loop
    vertex -868.0706898699862 -53.236460661155505 44.250000000000256
    vertex -868.0706898699862 -115.60231285177267 44.25000000000028
    vertex -867.6306974933118 -115.54438675646406 44.25000000000028
  endloop
endfacet
facet normal 0.0 5.730668550478357e-16 1.0
  outer loop
    vertex -868.0706898699862 -53.236460661155505 44.250000000000256
    vertex -867.6306974933118 -115.54438675646406 44.25000000000028
    vertex -867.6306974933118 -53.29438675646408 44.250000000000256
  endloop
endfacet
facet normal 0.0 5.730668550478357e-16 1.0
  outer loop
    vertex -867.6306974933118 -53.29438675646408 44.250000000000256
    vertex -867.6306974933118 -115.54438675646406 44.25000000000028
    vertex -867.1907051166376 -115.60231285177267 44.25000000000028
  endloop
endfacet
facet normal 0.0 5.730668550478357e-16 1.0
  outer loop
    vertex -867.6306974933118 -53.29438675646408 44.250000000000256
    vertex -867.1907051166376 -115.60231285177267 44.25000000000028
    vertex -867.1907051166376 -53.236460661155505 44.250000000000256
  endloop
endfacet
facet normal 0.0 5.730668550478357e-16 1.0
  outer loop
    vertex -867.1907051166376 -53.236460661155505 44.250000000000256
    vertex -867.1907051166376 -115.60231285177267 44.25000000000028
    vertex -866.780697493312 -115.77214357003055 44.25000000000028
  endloop
endfacet
facet normal 0.0 5.730668550478357e-16 1.0
  outer loop
    vertex -867.1907051166376 -53.236460661155505 44.250000000000256
    vertex -866.780697493312 -115.77214357003055 44.25000000000028
    vertex -866.780697493312 -53.06662994289765 44.250000000000256
  endloop
endfacet
facet normal 0.0 5.730668550478357e-16 1.0
  outer loop
    vertex -866.780697493312 -53.06662994289765 44.250000000000256
    vertex -866.780697493312 -115.77214357003055 44.25000000000028
    vertex -866.4286159652947 -116.04230522844695 44.25000000000028
  endloop
endfacet
facet normal 0.0 5.730668550478357e-16 1.0
  outer loop
    vertex -866.780697493312 -53.06662994289765 44.250000000000256
    vertex -866.4286159652947 -116.04230522844695 44.25000000000028
    vertex -866.4286159652947 -52.79646828448122 44.250000000000256
  endloop
endfacet
facet normal 0.0 5.730668550478357e-16 1.0
  outer loop
    vertex -866.4286159652947 -52.79646828448122 44.250000000000256
    vertex -866.4286159652947 -116.04230522844695 44.25000000000028
    vertex -866.1584543068783 -116.39438675646407 44.25000000000028
  endloop
endfacet
facet normal 0.0 5.730668550478357e-16 1.0
  outer loop
    vertex -866.4286159652947 -52.79646828448122 44.250000000000256
    vertex -866.1584543068783 -116.39438675646407 44.25000000000028
    vertex -866.1584543068783 -52.44438675646409 44.250000000000256
  endloop
endfacet
facet normal 0.0 5.730668550478357e-16 1.0
  outer loop
    vertex -866.1584543068783 -52.44438675646409 44.250000000000256
    vertex -866.1584543068783 -116.39438675646407 44.25000000000028
    vertex -865.9886235886204 -116.80439437978978 44.25000000000028
  endloop
endfacet
facet normal 0.0 5.730668550478357e-16 1.0
  outer loop
    vertex -866.1584543068783 -52.44438675646409 44.250000000000256
    vertex -865.9886235886204 -116.80439437978978 44.25000000000028
    vertex -865.9886235886204 -52.034379133138366 44.250000000000256
  endloop
endfacet
facet normal 0.0 5.730668550478357e-16 1.0
  outer loop
    vertex -865.9886235886204 -52.034379133138366 44.250000000000256
    vertex -865.9886235886204 -116.80439437978978 44.25000000000028
    vertex -865.9306974933119 -117.24438675646408 44.250000000000284
  endloop
endfacet
facet normal 0.0 5.730668550478357e-16 1.0
  outer loop
    vertex -865.9886235886204 -52.034379133138366 44.250000000000256
    vertex -865.9306974933119 -117.24438675646408 44.250000000000284
    vertex -865.9306974933119 -51.59438675646408 44.250000000000256
  endloop
endfacet
facet normal 0.793353340291197 0.6087614290087704 1.7032752098179301e-18
  outer loop
    vertex -868.832779021329 -118.4464682844812 44.25000000000029
    vertex -869.1029406797454 -118.09438675646408 39.250000000000284
    vertex -869.1029406797454 -118.09438675646408 44.25000000000029
  endloop
endfacet
facet normal 0.793353340291197 0.6087614290087704 1.7032752098179301e-18
  outer loop
    vertex -869.1029406797454 -118.09438675646408 39.250000000000284
    vertex -868.832779021329 -118.4464682844812 44.25000000000029
    vertex -868.832779021329 -118.4464682844812 39.250000000000284
  endloop
endfacet
facet normal 0.3826834323650254 0.9238795325113134 -1.0707235585496245e-18
  outer loop
    vertex -868.0706898699862 -118.88646066115548 39.250000000000284
    vertex -868.4806974933119 -118.71662994289763 44.25000000000029
    vertex -868.0706898699862 -118.88646066115548 44.25000000000029
  endloop
endfacet
facet normal 0.3826834323650254 0.9238795325113134 -1.0707235585496245e-18
  outer loop
    vertex -868.4806974933119 -118.71662994289763 44.25000000000029
    vertex -868.0706898699862 -118.88646066115548 39.250000000000284
    vertex -868.4806974933119 -118.71662994289763 39.250000000000284
  endloop
endfacet
facet normal -0.13052619222004777 0.9914448613738109 4.760898810233808e-20
  outer loop
    vertex -867.1907051166376 -118.88646066115548 39.250000000000284
    vertex -867.6306974933118 -118.94438675646406 44.25000000000029
    vertex -867.1907051166376 -118.88646066115548 44.25000000000029
  endloop
endfacet
facet normal -0.13052619222004777 0.9914448613738109 4.760898810233808e-20
  outer loop
    vertex -867.6306974933118 -118.94438675646406 44.25000000000029
    vertex -867.1907051166376 -118.88646066115548 39.250000000000284
    vertex -867.6306974933118 -118.94438675646406 39.25000000000029
  endloop
endfacet
facet normal 0.6087614290088122 0.793353340291165 -4.0429121392576855e-30
  outer loop
    vertex -868.4806974933119 -118.71662994289763 39.250000000000284
    vertex -868.832779021329 -118.4464682844812 44.25000000000029
    vertex -868.4806974933119 -118.71662994289763 44.25000000000029
  endloop
endfacet
facet normal 0.6087614290088122 0.793353340291165 -4.0429121392576855e-30
  outer loop
    vertex -868.832779021329 -118.4464682844812 44.25000000000029
    vertex -868.4806974933119 -118.71662994289763 39.250000000000284
    vertex -868.832779021329 -118.4464682844812 39.250000000000284
  endloop
endfacet
facet normal -0.38268343236516905 0.9238795325112539 0.0
  outer loop
    vertex -866.780697493312 -118.71662994289763 39.250000000000284
    vertex -867.1907051166376 -118.88646066115548 44.25000000000029
    vertex -866.780697493312 -118.71662994289763 44.25000000000029
  endloop
endfacet
facet normal -0.38268343236516905 0.9238795325112539 0.0
  outer loop
    vertex -867.1907051166376 -118.88646066115548 44.25000000000029
    vertex -866.780697493312 -118.71662994289763 39.250000000000284
    vertex -867.1907051166376 -118.88646066115548 39.250000000000284
  endloop
endfacet
facet normal -0.6087614290085838 -0.7933533402913402 1.7032752097970253e-18
  outer loop
    vertex -866.780697493312 -115.77214357003055 39.25000000000027
    vertex -866.4286159652947 -116.04230522844695 44.25000000000028
    vertex -866.780697493312 -115.77214357003055 44.25000000000028
  endloop
endfacet
facet normal -0.6087614290085838 -0.7933533402913402 1.7032752097970253e-18
  outer loop
    vertex -866.4286159652947 -116.04230522844695 44.25000000000028
    vertex -866.780697493312 -115.77214357003055 39.25000000000027
    vertex -866.4286159652947 -116.04230522844695 39.25000000000027
  endloop
endfacet
facet normal 0.13052619221999512 0.9914448613738179 -3.175948780539985e-19
  outer loop
    vertex -867.6306974933118 -118.94438675646406 39.25000000000029
    vertex -868.0706898699862 -118.88646066115548 44.25000000000029
    vertex -867.6306974933118 -118.94438675646406 44.25000000000029
  endloop
endfacet
facet normal 0.13052619221999512 0.9914448613738179 -3.175948780539985e-19
  outer loop
    vertex -868.0706898699862 -118.88646066115548 44.25000000000029
    vertex -867.6306974933118 -118.94438675646406 39.25000000000029
    vertex -868.0706898699862 -118.88646066115548 39.250000000000284
  endloop
endfacet
facet normal -0.6087614290086156 0.7933533402913158 2.0756902568627873e-29
  outer loop
    vertex -866.4286159652947 -118.4464682844812 39.250000000000284
    vertex -866.780697493312 -118.71662994289763 44.25000000000029
    vertex -866.4286159652947 -118.4464682844812 44.25000000000029
  endloop
endfacet
facet normal -0.6087614290086156 0.7933533402913158 2.0756902568627873e-29
  outer loop
    vertex -866.780697493312 -118.71662994289763 44.25000000000029
    vertex -866.4286159652947 -118.4464682844812 39.250000000000284
    vertex -866.780697493312 -118.71662994289763 39.250000000000284
  endloop
endfacet
facet normal -0.7933533402911971 0.6087614290087705 1.7032752098825181e-18
  outer loop
    vertex -866.4286159652947 -118.4464682844812 39.250000000000284
    vertex -866.1584543068783 -118.09438675646408 44.25000000000029
    vertex -866.1584543068783 -118.09438675646408 39.250000000000284
  endloop
endfacet
facet normal -0.7933533402911971 0.6087614290087705 1.7032752098825181e-18
  outer loop
    vertex -866.1584543068783 -118.09438675646408 44.25000000000029
    vertex -866.4286159652947 -118.4464682844812 39.250000000000284
    vertex -866.4286159652947 -118.4464682844812 44.25000000000029
  endloop
endfacet
facet normal 0.7933533402911971 -0.6087614290087705 3.923026680321819e-18
  outer loop
    vertex -869.1029406797454 -116.39438675646407 44.25000000000028
    vertex -868.832779021329 -116.04230522844695 39.25000000000027
    vertex -868.832779021329 -116.04230522844695 44.25000000000028
  endloop
endfacet
facet normal 0.7933533402911971 -0.6087614290087705 3.923026680321819e-18
  outer loop
    vertex -868.832779021329 -116.04230522844695 39.25000000000027
    vertex -869.1029406797454 -116.39438675646407 44.25000000000028
    vertex -869.1029406797454 -116.39438675646407 39.25000000000028
  endloop
endfacet
facet normal -0.3826834323652124 -0.9238795325112359 1.292477668292198e-18
  outer loop
    vertex -867.1907051166376 -115.60231285177267 39.25000000000027
    vertex -866.780697493312 -115.77214357003055 44.25000000000028
    vertex -867.1907051166376 -115.60231285177267 44.25000000000028
  endloop
endfacet
facet normal -0.3826834323652124 -0.9238795325112359 1.292477668292198e-18
  outer loop
    vertex -866.780697493312 -115.77214357003055 44.25000000000028
    vertex -867.1907051166376 -115.60231285177267 39.25000000000027
    vertex -866.780697493312 -115.77214357003055 39.25000000000027
  endloop
endfacet
facet normal 0.13052619222004508 -0.9914448613738114 1.8454020113547653e-20
  outer loop
    vertex -868.0706898699862 -115.60231285177267 39.25000000000027
    vertex -867.6306974933118 -115.54438675646406 44.25000000000028
    vertex -868.0706898699862 -115.60231285177267 44.25000000000028
  endloop
endfacet
facet normal 0.13052619222004508 -0.9914448613738114 1.8454020113547653e-20
  outer loop
    vertex -867.6306974933118 -115.54438675646406 44.25000000000028
    vertex -868.0706898699862 -115.60231285177267 39.25000000000027
    vertex -867.6306974933118 -115.54438675646406 39.25000000000027
  endloop
endfacet
facet normal 0.38268343236506874 -0.9238795325112956 1.2924776683234569e-18
  outer loop
    vertex -868.4806974933119 -115.77214357003055 39.25000000000027
    vertex -868.0706898699862 -115.60231285177267 44.25000000000028
    vertex -868.4806974933119 -115.77214357003055 44.25000000000028
  endloop
endfacet
facet normal 0.38268343236506874 -0.9238795325112956 1.2924776683234569e-18
  outer loop
    vertex -868.0706898699862 -115.60231285177267 44.25000000000028
    vertex -868.4806974933119 -115.77214357003055 39.25000000000027
    vertex -868.0706898699862 -115.60231285177267 39.25000000000027
  endloop
endfacet
facet normal 0.9914448613738276 -0.13052619221992148 0.0
  outer loop
    vertex -869.3306974933117 -117.24438675646408 44.250000000000284
    vertex -869.2727713980032 -116.80439437978978 39.25000000000028
    vertex -869.2727713980032 -116.80439437978978 44.25000000000028
  endloop
endfacet
facet normal 0.9914448613738276 -0.13052619221992148 0.0
  outer loop
    vertex -869.2727713980032 -116.80439437978978 39.25000000000028
    vertex -869.3306974933117 -117.24438675646408 44.250000000000284
    vertex -869.3306974933117 -117.24438675646408 39.25000000000028
  endloop
endfacet
facet normal 0.9914448613738258 0.13052619221993464 0.0
  outer loop
    vertex -869.2727713980032 -117.68437913313835 44.250000000000284
    vertex -869.3306974933117 -117.24438675646408 39.25000000000028
    vertex -869.3306974933117 -117.24438675646408 44.250000000000284
  endloop
endfacet
facet normal 0.9914448613738258 0.13052619221993464 0.0
  outer loop
    vertex -869.3306974933117 -117.24438675646408 39.25000000000028
    vertex -869.2727713980032 -117.68437913313835 44.250000000000284
    vertex -869.2727713980032 -117.68437913313835 39.250000000000284
  endloop
endfacet
facet normal 0.60876142900878 -0.7933533402911895 0.0
  outer loop
    vertex -868.832779021329 -116.04230522844695 39.25000000000027
    vertex -868.4806974933119 -115.77214357003055 44.25000000000028
    vertex -868.832779021329 -116.04230522844695 44.25000000000028
  endloop
endfacet
facet normal 0.60876142900878 -0.7933533402911895 0.0
  outer loop
    vertex -868.4806974933119 -115.77214357003055 44.25000000000028
    vertex -868.832779021329 -116.04230522844695 39.25000000000027
    vertex -868.4806974933119 -115.77214357003055 39.25000000000027
  endloop
endfacet
facet normal 0.9238795325113704 0.38268343236488767 -9.631104193290248e-19
  outer loop
    vertex -869.1029406797454 -118.09438675646408 44.25000000000029
    vertex -869.2727713980032 -117.68437913313835 39.250000000000284
    vertex -869.2727713980032 -117.68437913313835 44.250000000000284
  endloop
endfacet
facet normal 0.9238795325113704 0.38268343236488767 -9.631104193290248e-19
  outer loop
    vertex -869.2727713980032 -117.68437913313835 39.250000000000284
    vertex -869.1029406797454 -118.09438675646408 44.25000000000029
    vertex -869.1029406797454 -118.09438675646408 39.250000000000284
  endloop
endfacet
facet normal -0.13052619222009773 -0.9914448613738044 -3.467498460375627e-19
  outer loop
    vertex -867.6306974933118 -115.54438675646406 39.25000000000027
    vertex -867.1907051166376 -115.60231285177267 44.25000000000028
    vertex -867.6306974933118 -115.54438675646406 44.25000000000028
  endloop
endfacet
facet normal -0.13052619222009773 -0.9914448613738044 -3.467498460375627e-19
  outer loop
    vertex -867.1907051166376 -115.60231285177267 44.25000000000028
    vertex -867.6306974933118 -115.54438675646406 39.25000000000027
    vertex -867.1907051166376 -115.60231285177267 39.25000000000027
  endloop
endfacet
facet normal 0.9238795325113631 -0.38268343236490554 -2.217541096701216e-19
  outer loop
    vertex -869.2727713980032 -116.80439437978978 44.25000000000028
    vertex -869.1029406797454 -116.39438675646407 39.25000000000028
    vertex -869.1029406797454 -116.39438675646407 44.25000000000028
  endloop
endfacet
facet normal 0.9238795325113631 -0.38268343236490554 -2.217541096701216e-19
  outer loop
    vertex -869.1029406797454 -116.39438675646407 39.25000000000028
    vertex -869.2727713980032 -116.80439437978978 44.25000000000028
    vertex -869.2727713980032 -116.80439437978978 39.25000000000028
  endloop
endfacet
facet normal -0.793353340291197 -0.6087614290087705 -5.164762606152081e-19
  outer loop
    vertex -866.1584543068783 -116.39438675646407 39.25000000000028
    vertex -866.4286159652947 -116.04230522844695 44.25000000000028
    vertex -866.4286159652947 -116.04230522844695 39.25000000000027
  endloop
endfacet
facet normal -0.793353340291197 -0.6087614290087705 -5.164762606152081e-19
  outer loop
    vertex -866.4286159652947 -116.04230522844695 44.25000000000028
    vertex -866.1584543068783 -116.39438675646407 39.25000000000028
    vertex -866.1584543068783 -116.39438675646407 44.25000000000028
  endloop
endfacet
facet normal -0.9238795325112192 -0.38268343236525265 1.0707235585386053e-18
  outer loop
    vertex -865.9886235886204 -116.80439437978978 39.25000000000028
    vertex -866.1584543068783 -116.39438675646407 44.25000000000028
    vertex -866.1584543068783 -116.39438675646407 39.25000000000028
  endloop
endfacet
facet normal -0.9238795325112192 -0.38268343236525265 1.0707235585386053e-18
  outer loop
    vertex -866.1584543068783 -116.39438675646407 44.25000000000028
    vertex -865.9886235886204 -116.80439437978978 39.25000000000028
    vertex -865.9886235886204 -116.80439437978978 44.25000000000028
  endloop
endfacet
facet normal -0.9914448613738276 -0.13052619221992148 0.0
  outer loop
    vertex -865.9306974933119 -117.24438675646408 39.25000000000028
    vertex -865.9886235886204 -116.80439437978978 44.25000000000028
    vertex -865.9886235886204 -116.80439437978978 39.25000000000028
  endloop
endfacet
facet normal -0.9914448613738276 -0.13052619221992148 0.0
  outer loop
    vertex -865.9886235886204 -116.80439437978978 44.25000000000028
    vertex -865.9306974933119 -117.24438675646408 39.25000000000028
    vertex -865.9306974933119 -117.24438675646408 44.250000000000284
  endloop
endfacet
facet normal -0.9914448613738258 0.13052619221993464 0.0
  outer loop
    vertex -865.9886235886204 -117.68437913313835 39.250000000000284
    vertex -865.9306974933119 -117.24438675646408 44.250000000000284
    vertex -865.9306974933119 -117.24438675646408 39.25000000000028
  endloop
endfacet
facet normal -0.9914448613738258 0.13052619221993464 0.0
  outer loop
    vertex -865.9306974933119 -117.24438675646408 44.250000000000284
    vertex -865.9886235886204 -117.68437913313835 39.250000000000284
    vertex -865.9886235886204 -117.68437913313835 44.250000000000284
  endloop
endfacet
facet normal -0.9238795325112267 0.3826834323652347 3.29367248878075e-19
  outer loop
    vertex -866.1584543068783 -118.09438675646408 39.250000000000284
    vertex -865.9886235886204 -117.68437913313835 44.250000000000284
    vertex -865.9886235886204 -117.68437913313835 39.250000000000284
  endloop
endfacet
facet normal -0.9238795325112267 0.3826834323652347 3.29367248878075e-19
  outer loop
    vertex -865.9886235886204 -117.68437913313835 44.250000000000284
    vertex -866.1584543068783 -118.09438675646408 39.250000000000284
    vertex -866.1584543068783 -118.09438675646408 44.25000000000029
  endloop
endfacet
facet normal 0.0 0.7071067811865486 0.7071067811865466
  outer loop
    vertex -862.6306974933118 -22.89438675646402 39.25000000000024
    vertex -872.6306974933117 -27.894386756464 44.25000000000024
    vertex -862.6306974933118 -27.894386756464 44.25000000000024
  endloop
endfacet
facet normal 0.0 0.7071067811865486 0.7071067811865466
  outer loop
    vertex -872.6306974933117 -27.894386756464 44.25000000000024
    vertex -862.6306974933118 -22.89438675646402 39.25000000000024
    vertex -872.6306974933117 -22.89438675646402 39.25000000000024
  endloop
endfacet
facet normal 1.0 0.0 0.0
  outer loop
    vertex -862.6306974933118 -145.99438675646428 44.25000000000031
    vertex -862.6306974933118 -34.894386756464016 39.25000000000025
    vertex -862.6306974933118 -27.894386756464 44.25000000000024
  endloop
endfacet
facet normal 1.0 0.0 0.0
  outer loop
    vertex -862.6306974933118 -34.894386756464016 39.25000000000025
    vertex -862.6306974933118 -145.99438675646428 44.25000000000031
    vertex -862.6306974933118 -138.99438675646428 39.25000000000029
  endloop
endfacet
facet normal 1.0 0.0 0.0
  outer loop
    vertex -862.6306974933118 -138.99438675646428 39.25000000000029
    vertex -862.6306974933118 -145.99438675646428 44.25000000000031
    vertex -862.6306974933118 -138.99438675646428 36.01250000000027
  endloop
endfacet
facet normal 1.0 0.0 0.0
  outer loop
    vertex -862.6306974933118 -138.99438675646428 36.01250000000027
    vertex -862.6306974933118 -145.99438675646428 44.25000000000031
    vertex -862.6306974933118 -150.99438675646428 36.01250000000027
  endloop
endfacet
facet normal 1.0 0.0 0.0
  outer loop
    vertex -862.6306974933118 -150.99438675646428 36.01250000000027
    vertex -862.6306974933118 -145.99438675646428 44.25000000000031
    vertex -862.6306974933118 -150.99438675646428 39.2500000000003
  endloop
endfacet
facet normal 1.0 0.0 0.0
  outer loop
    vertex -862.6306974933118 -27.894386756464 44.25000000000024
    vertex -862.6306974933118 -22.89438675646402 36.012500000000216
    vertex -862.6306974933118 -22.89438675646402 39.25000000000024
  endloop
endfacet
facet normal 1.0 0.0 0.0
  outer loop
    vertex -862.6306974933118 -22.89438675646402 36.012500000000216
    vertex -862.6306974933118 -27.894386756464 44.25000000000024
    vertex -862.6306974933118 -34.89438675646402 36.01250000000023
  endloop
endfacet
facet normal 1.0 0.0 0.0
  outer loop
    vertex -862.6306974933118 -34.89438675646402 36.01250000000023
    vertex -862.6306974933118 -27.894386756464 44.25000000000024
    vertex -862.6306974933118 -34.894386756464016 39.25000000000025
  endloop
endfacet
facet normal 1.5827513291311986e-17 -0.707106781186547 0.707106781186548
  outer loop
    vertex -862.6306974933118 -150.99438675646428 39.2500000000003
    vertex -872.6306974933117 -145.99438675646428 44.25000000000031
    vertex -872.6306974933117 -150.99438675646428 39.2500000000003
  endloop
endfacet
facet normal 1.5827513291311986e-17 -0.707106781186547 0.707106781186548
  outer loop
    vertex -872.6306974933117 -145.99438675646428 44.25000000000031
    vertex -862.6306974933118 -150.99438675646428 39.2500000000003
    vertex -862.6306974933118 -145.99438675646428 44.25000000000031
  endloop
endfacet
endsolid Enclosure
